<svg width="24" height="24" viewBox="0 0 24 24" fill="none" xmlns="http://www.w3.org/2000/svg">
<path d="M22.5 10.4999C22.386 10.4341 22.2567 10.3994 22.125 10.3994C21.9934 10.3994 21.864 10.4341 21.75 10.4999L12 16.0124L2.25001 10.4999C2.13577 10.4339 2.00617 10.3993 1.87426 10.3994C1.74235 10.3995 1.61281 10.4345 1.49871 10.5006C1.38461 10.5668 1.28998 10.6619 1.22437 10.7764C1.15875 10.8908 1.12448 11.0205 1.12501 11.1524V17.6249C1.12501 18.2216 1.36206 18.7939 1.78402 19.2159C2.20597 19.6378 2.77827 19.8749 3.37501 19.8749H20.625C21.2217 19.8749 21.794 19.6378 22.216 19.2159C22.638 18.7939 22.875 18.2216 22.875 17.6249V11.1561C22.8762 11.0234 22.8421 10.8926 22.7762 10.7773C22.7103 10.662 22.615 10.5663 22.5 10.4999Z" fill="#2962FF"/>
<path d="M20.625 4.125H3.37501C2.77827 4.125 2.20597 4.36205 1.78402 4.78401C1.36206 5.20597 1.12501 5.77826 1.12501 6.375V7.78125C1.12448 7.91341 1.15889 8.04336 1.22474 8.15794C1.29059 8.27252 1.38555 8.36767 1.50001 8.43375L11.625 14.1525C11.739 14.2183 11.8684 14.253 12 14.253C12.1317 14.253 12.261 14.2183 12.375 14.1525L22.5 8.43375C22.6145 8.36767 22.7094 8.27252 22.7753 8.15794C22.8411 8.04336 22.8755 7.91341 22.875 7.78125V6.375C22.875 5.77826 22.638 5.20597 22.216 4.78401C21.794 4.36205 21.2217 4.125 20.625 4.125Z" fill="#2962FF"/>
</svg>
