<svg width="24" height="24" viewBox="0 0 24 24" fill="none" xmlns="http://www.w3.org/2000/svg">
<g clip-path="url(#clip0_304_8824)">
<path d="M12.0039 0C6.99403 0 5.52882 0.00517032 5.24402 0.0287999C4.21591 0.114284 3.57616 0.276208 2.87917 0.623305C2.34205 0.890106 1.91843 1.19936 1.50035 1.63287C0.73896 2.42346 0.277507 3.3961 0.110458 4.55226C0.0292467 5.11354 0.00561688 5.228 0.000818394 8.09496C-0.00102299 9.05061 0.000818394 10.3083 0.000818394 11.9953C0.000818394 17.0025 0.00635159 18.4666 0.0303531 18.7509C0.113415 19.7516 0.270305 20.3812 0.602552 21.0699C1.23751 22.3882 2.4502 23.3778 3.87886 23.7471C4.37354 23.8745 4.9199 23.9446 5.6213 23.9778C5.91848 23.9908 8.94744 24 11.9783 24C15.0091 24 18.0399 23.9963 18.3297 23.9815C19.1418 23.9433 19.6134 23.88 20.1349 23.7452C21.5728 23.3741 22.7633 22.3992 23.4112 21.0625C23.737 20.3905 23.9022 19.7369 23.9769 18.7884C23.9932 18.5816 24 15.2847 24 11.9922C24 8.69907 23.9926 5.40821 23.9764 5.20142C23.9007 4.23765 23.7355 3.5896 23.3992 2.90461C23.1232 2.34388 22.8168 1.92514 22.372 1.49699C21.5781 0.738523 20.6072 0.276943 19.4503 0.110039C18.8897 0.0289815 18.778 0.00497991 15.9096 0H12.0039Z" fill="url(#paint0_radial_304_8824)"/>
<path d="M12.0039 0C6.99403 0 5.52882 0.00517032 5.24402 0.0287999C4.21591 0.114284 3.57616 0.276208 2.87917 0.623305C2.34205 0.890106 1.91843 1.19936 1.50035 1.63287C0.73896 2.42346 0.277507 3.3961 0.110458 4.55226C0.0292467 5.11354 0.00561688 5.228 0.000818394 8.09496C-0.00102299 9.05061 0.000818394 10.3083 0.000818394 11.9953C0.000818394 17.0025 0.00635159 18.4666 0.0303531 18.7509C0.113415 19.7516 0.270305 20.3812 0.602552 21.0699C1.23751 22.3882 2.4502 23.3778 3.87886 23.7471C4.37354 23.8745 4.9199 23.9446 5.6213 23.9778C5.91848 23.9908 8.94744 24 11.9783 24C15.0091 24 18.0399 23.9963 18.3297 23.9815C19.1418 23.9433 19.6134 23.88 20.1349 23.7452C21.5728 23.3741 22.7633 22.3992 23.4112 21.0625C23.737 20.3905 23.9022 19.7369 23.9769 18.7884C23.9932 18.5816 24 15.2847 24 11.9922C24 8.69907 23.9926 5.40821 23.9764 5.20142C23.9007 4.23765 23.7355 3.5896 23.3992 2.90461C23.1232 2.34388 22.8168 1.92514 22.372 1.49699C21.5781 0.738523 20.6072 0.276943 19.4503 0.110039C18.8897 0.0289815 18.778 0.00497991 15.9096 0H12.0039Z" fill="url(#paint1_radial_304_8824)"/>
<path d="M12.0039 0C6.99403 0 5.52882 0.00517032 5.24402 0.0287999C4.21591 0.114284 3.57616 0.276208 2.87917 0.623305C2.34205 0.890106 1.91843 1.19936 1.50035 1.63287C0.73896 2.42346 0.277507 3.3961 0.110458 4.55226C0.0292467 5.11354 0.00561688 5.228 0.000818394 8.09496C-0.00102299 9.05061 0.000818394 10.3083 0.000818394 11.9953C0.000818394 17.0025 0.00635159 18.4666 0.0303531 18.7509C0.113415 19.7516 0.270305 20.3812 0.602552 21.0699C1.23751 22.3882 2.4502 23.3778 3.87886 23.7471C4.37354 23.8745 4.9199 23.9446 5.6213 23.9778C5.91848 23.9908 8.94744 24 11.9783 24C15.0091 24 18.0399 23.9963 18.3297 23.9815C19.1418 23.9433 19.6134 23.88 20.1349 23.7452C21.5728 23.3741 22.7633 22.3992 23.4112 21.0625C23.737 20.3905 23.9022 19.7369 23.9769 18.7884C23.9932 18.5816 24 15.2847 24 11.9922C24 8.69907 23.9926 5.40821 23.9764 5.20142C23.9007 4.23765 23.7355 3.5896 23.3992 2.90461C23.1232 2.34388 22.8168 1.92514 22.372 1.49699C21.5781 0.738523 20.6072 0.276943 19.4503 0.110039C18.8897 0.0289815 18.778 0.00497991 15.9096 0H12.0039Z" fill="url(#paint2_radial_304_8824)"/>
<path d="M12.0039 0C6.99403 0 5.52882 0.00517032 5.24402 0.0287999C4.21591 0.114284 3.57616 0.276208 2.87917 0.623305C2.34205 0.890106 1.91843 1.19936 1.50035 1.63287C0.73896 2.42346 0.277507 3.3961 0.110458 4.55226C0.0292467 5.11354 0.00561688 5.228 0.000818394 8.09496C-0.00102299 9.05061 0.000818394 10.3083 0.000818394 11.9953C0.000818394 17.0025 0.00635159 18.4666 0.0303531 18.7509C0.113415 19.7516 0.270305 20.3812 0.602552 21.0699C1.23751 22.3882 2.4502 23.3778 3.87886 23.7471C4.37354 23.8745 4.9199 23.9446 5.6213 23.9778C5.91848 23.9908 8.94744 24 11.9783 24C15.0091 24 18.0399 23.9963 18.3297 23.9815C19.1418 23.9433 19.6134 23.88 20.1349 23.7452C21.5728 23.3741 22.7633 22.3992 23.4112 21.0625C23.737 20.3905 23.9022 19.7369 23.9769 18.7884C23.9932 18.5816 24 15.2847 24 11.9922C24 8.69907 23.9926 5.40821 23.9764 5.20142C23.9007 4.23765 23.7355 3.5896 23.3992 2.90461C23.1232 2.34388 22.8168 1.92514 22.372 1.49699C21.5781 0.738523 20.6072 0.276943 19.4503 0.110039C18.8897 0.0289815 18.778 0.00497991 15.9096 0H12.0039Z" fill="url(#paint3_radial_304_8824)"/>
<path d="M12.0052 3.08154C9.58174 3.08154 9.2776 3.09213 8.32577 3.13541C7.3758 3.17888 6.72737 3.32917 6.15999 3.54968C5.57309 3.77742 5.07524 4.08208 4.57925 4.57788C4.0829 5.07351 3.77801 5.57099 3.54935 6.15727C3.32812 6.72441 3.17753 7.37254 3.13478 8.32144C3.09221 9.27256 3.08105 9.57666 3.08105 11.9983C3.08105 14.4199 3.09184 14.7229 3.13496 15.674C3.17866 16.6233 3.32905 17.2713 3.54953 17.8382C3.77763 18.4247 4.08251 18.9222 4.57869 19.4178C5.0745 19.9138 5.57235 20.2192 6.15887 20.4469C6.72662 20.6674 7.37525 20.8177 8.32502 20.8612C9.27686 20.9045 9.5808 20.9151 12.0041 20.9151C14.4277 20.9151 14.7309 20.9045 15.6827 20.8612C16.6327 20.8177 17.2819 20.6674 17.8496 20.4469C18.4363 20.2192 18.9334 19.9138 19.4292 19.4178C19.9256 18.9222 20.2305 18.4247 20.4592 17.8384C20.6785 17.2713 20.8291 16.6231 20.8737 15.6742C20.9165 14.7231 20.9276 14.4199 20.9276 11.9983C20.9276 9.57665 20.9165 9.27275 20.8737 8.32162C20.8291 7.37235 20.6785 6.72441 20.4592 6.15746C20.2305 5.57099 19.9256 5.07351 19.4292 4.57788C18.9329 4.08189 18.4365 3.77723 17.8491 3.54967C17.2802 3.32917 16.6314 3.17888 15.6814 3.13541C14.7296 3.09213 14.4266 3.08154 12.0024 3.08154H12.0052ZM11.2047 4.68842C11.4423 4.68805 11.7074 4.68842 12.0052 4.68842C14.3877 4.68842 14.6701 4.69696 15.611 4.73969C16.481 4.77945 16.9532 4.92471 17.2677 5.04676C17.6842 5.20837 17.9811 5.40157 18.2932 5.71365C18.6055 6.02575 18.7988 6.32297 18.961 6.73908C19.0831 7.05302 19.2286 7.52487 19.2682 8.39426C19.311 9.33423 19.3203 9.61659 19.3203 11.9963C19.3203 14.3759 19.311 14.6583 19.2682 15.5983C19.2285 16.4676 19.0831 16.9395 18.961 17.2534C18.7992 17.6695 18.6055 17.9658 18.2932 18.2777C17.9809 18.5898 17.6843 18.783 17.2677 18.9446C16.9536 19.0672 16.481 19.2121 15.611 19.2519C14.6703 19.2946 14.3877 19.3039 12.0052 19.3039C9.62245 19.3039 9.34006 19.2946 8.39939 19.2519C7.52936 19.2118 7.05717 19.0665 6.74243 18.9445C6.326 18.7828 6.02855 18.5896 5.71624 18.2775C5.40392 17.9655 5.21059 17.669 5.04847 17.2527C4.92633 16.9387 4.78077 16.4669 4.74118 15.5975C4.69842 14.6575 4.68986 14.3752 4.68986 11.994C4.68986 9.61289 4.69842 9.332 4.74118 8.39203C4.78096 7.52264 4.92633 7.0508 5.04847 6.73649C5.2102 6.32037 5.40392 6.02314 5.71624 5.71106C6.02855 5.39897 6.326 5.20578 6.74243 5.04379C7.05698 4.92118 7.52936 4.77629 8.39939 4.73634C9.22257 4.69919 9.54158 4.68805 11.2047 4.68618L11.2047 4.68842ZM16.7684 6.16897C16.1772 6.16897 15.6976 6.64769 15.6976 7.2386C15.6976 7.82934 16.1772 8.30862 16.7684 8.30862C17.3596 8.30862 17.8392 7.82934 17.8392 7.2386C17.8392 6.64787 17.3596 6.1686 16.7684 6.1686L16.7684 6.16897ZM12.0052 7.41917C9.47447 7.41917 7.42265 9.46947 7.42265 11.9983C7.42265 14.5271 9.47447 16.5765 12.0052 16.5765C14.5359 16.5765 16.587 14.5271 16.587 11.9983C16.587 9.46947 14.5357 7.41917 12.005 7.41917H12.0052ZM12.0052 9.02605C13.6478 9.02605 14.9796 10.3567 14.9796 11.9983C14.9796 13.6397 13.6478 14.9705 12.0052 14.9705C10.3623 14.9705 9.03072 13.6397 9.03072 11.9983C9.03072 10.3567 10.3623 9.02605 12.0052 9.02605Z" fill="white"/>
</g>
<defs>
<radialGradient id="paint0_radial_304_8824" cx="0" cy="0" r="1" gradientUnits="userSpaceOnUse" gradientTransform="translate(23.225 11.2491) rotate(164.25) scale(15.3346 11.0479)">
<stop stop-color="#FF005F"/>
<stop offset="1" stop-color="#FC01D8"/>
</radialGradient>
<radialGradient id="paint1_radial_304_8824" cx="0" cy="0" r="1" gradientUnits="userSpaceOnUse" gradientTransform="translate(6.37482 25.8485) rotate(-90) scale(19.1573 20.3254)">
<stop stop-color="#FFCC00"/>
<stop offset="0.1242" stop-color="#FFCC00"/>
<stop offset="0.5672" stop-color="#FE4A05"/>
<stop offset="0.6942" stop-color="#FF0F3F"/>
<stop offset="1" stop-color="#FE0657" stop-opacity="0"/>
</radialGradient>
<radialGradient id="paint2_radial_304_8824" cx="0" cy="0" r="1" gradientUnits="userSpaceOnUse" gradientTransform="translate(12.6065 23.6615) rotate(-59.8703) scale(7.92169 10.3132)">
<stop stop-color="#FFCC00"/>
<stop offset="1" stop-color="#FFCC00" stop-opacity="0"/>
</radialGradient>
<radialGradient id="paint3_radial_304_8824" cx="0" cy="0" r="1" gradientUnits="userSpaceOnUse" gradientTransform="translate(3.25629 0.977273) rotate(164.274) scale(15.1645 5.16655)">
<stop stop-color="#780CFF"/>
<stop offset="1" stop-color="#820BFF" stop-opacity="0"/>
</radialGradient>
<clipPath id="clip0_304_8824">
<rect width="24" height="24" fill="white"/>
</clipPath>
</defs>
</svg>
