<svg width="24" height="24" viewBox="0 0 24 24" fill="none" xmlns="http://www.w3.org/2000/svg">
<path d="M18.5 19.5H5.5L2.5 22.5V5.5C2.5 3.85 3.85 2.5 5.5 2.5H18.5C20.15 2.5 21.5 3.85 21.5 5.5V16.5C21.5 18.15 20.15 19.5 18.5 19.5Z" fill="#009688"/>
<path d="M12 12.5C12.8284 12.5 13.5 11.8284 13.5 11C13.5 10.1716 12.8284 9.5 12 9.5C11.1716 9.5 10.5 10.1716 10.5 11C10.5 11.8284 11.1716 12.5 12 12.5Z" fill="white"/>
<path d="M17 12.5C17.8284 12.5 18.5 11.8284 18.5 11C18.5 10.1716 17.8284 9.5 17 9.5C16.1716 9.5 15.5 10.1716 15.5 11C15.5 11.8284 16.1716 12.5 17 12.5Z" fill="white"/>
<path d="M7 12.5C7.82843 12.5 8.5 11.8284 8.5 11C8.5 10.1716 7.82843 9.5 7 9.5C6.17157 9.5 5.5 10.1716 5.5 11C5.5 11.8284 6.17157 12.5 7 12.5Z" fill="white"/>
</svg>
