<svg width="24" height="24" viewBox="0 0 24 24" fill="none" xmlns="http://www.w3.org/2000/svg">
<g clip-path="url(#clip0_304_8774)">
<path d="M0.512578 11.8563C0.512016 13.8728 1.04302 15.8417 2.0527 17.5771L0.416016 23.5066L6.53152 21.9156C8.22298 22.8292 10.1181 23.308 12.044 23.3081H12.0491C18.4067 23.3081 23.582 18.1748 23.5847 11.8653C23.586 8.80792 22.3871 5.93295 20.2089 3.76997C18.0311 1.60718 15.1347 0.415458 12.0486 0.414062C5.6902 0.414062 0.515297 5.54709 0.512672 11.8563" fill="url(#paint0_linear_304_8774)"/>
<path d="M0.100313 11.8527C0.0996563 13.9417 0.649687 15.981 1.69537 17.7786L0 23.9207L6.33478 22.2726C8.08022 23.2168 10.0454 23.7147 12.0451 23.7154H12.0502C18.636 23.7154 23.9972 18.3975 24 11.8621C24.0011 8.69488 22.7591 5.71656 20.5031 3.47609C18.2468 1.23591 15.2468 0.00130233 12.0502 0C5.46337 0 0.103031 5.31721 0.100406 11.8527H0.100313ZM3.87281 17.469L3.63628 17.0965C2.64197 15.5277 2.11716 13.7149 2.11791 11.8534C2.12006 6.4213 6.57544 2.00186 12.054 2.00186C14.7071 2.00298 17.2005 3.02921 19.0759 4.89116C20.9512 6.7533 21.9831 9.22865 21.9824 11.8614C21.98 17.2935 17.5245 21.7135 12.0502 21.7135H12.0463C10.2638 21.7126 8.51569 21.2376 6.99113 20.34L6.62831 20.1265L2.86912 21.1045L3.87281 17.4689V17.469Z" fill="url(#paint1_linear_304_8774)"/>
<path d="M9.06383 6.89746C8.84014 6.40416 8.60473 6.39421 8.39202 6.38556C8.21783 6.37811 8.0187 6.37867 7.81977 6.37867C7.62064 6.37867 7.29711 6.453 7.02364 6.74928C6.74989 7.04583 5.97852 7.76249 5.97852 9.22007C5.97852 10.6777 7.04848 12.0864 7.19764 12.2843C7.34698 12.4817 9.26323 15.5686 12.2981 16.7562C14.8204 17.743 15.3336 17.5468 15.881 17.4973C16.4285 17.448 17.6477 16.7808 17.8964 16.089C18.1453 15.3973 18.1453 14.8043 18.0707 14.6804C17.996 14.557 17.7969 14.4829 17.4983 14.3348C17.1996 14.1866 15.7317 13.4698 15.458 13.371C15.1843 13.2722 14.9853 13.2229 14.7861 13.5195C14.587 13.8157 14.0152 14.4829 13.841 14.6804C13.6669 14.8785 13.4926 14.9031 13.1941 14.755C12.8953 14.6063 11.9337 14.2938 10.7929 13.2846C9.90523 12.4993 9.30598 11.5296 9.1318 11.2329C8.95761 10.9367 9.11314 10.7762 9.26286 10.6285C9.39702 10.4958 9.56155 10.2826 9.71098 10.1096C9.85986 9.93663 9.90955 9.81318 10.0091 9.6156C10.1088 9.41783 10.0589 9.24481 9.98436 9.09663C9.90955 8.94844 9.32933 7.48323 9.06383 6.89746Z" fill="white"/>
</g>
<defs>
<linearGradient id="paint0_linear_304_8774" x1="12.0004" y1="23.5066" x2="12.0004" y2="0.414062" gradientUnits="userSpaceOnUse">
<stop stop-color="#1FAF38"/>
<stop offset="1" stop-color="#60D669"/>
</linearGradient>
<linearGradient id="paint1_linear_304_8774" x1="12" y1="23.9207" x2="12" y2="0" gradientUnits="userSpaceOnUse">
<stop stop-color="#F9F9F9"/>
<stop offset="1" stop-color="white"/>
</linearGradient>
<clipPath id="clip0_304_8774">
<rect width="24" height="24" fill="white"/>
</clipPath>
</defs>
</svg>
