<svg width="24" height="24" viewBox="0 0 24 24" fill="none" xmlns="http://www.w3.org/2000/svg">
<path d="M18.32 12.75H15C12.51 12.75 11.25 11.34 11.25 8.54996V5.67996C11.25 4.65996 11.37 3.19996 12.43 2.39996C13.32 1.73996 14.6 1.68996 16.49 2.23996C18.97 2.95996 21.04 5.02996 21.76 7.50996C22.31 9.38996 22.26 10.68 21.6 11.56C20.8 12.63 19.34 12.75 18.32 12.75ZM14.28 3.35996C13.87 3.35996 13.55 3.43996 13.34 3.59996C12.95 3.88996 12.76 4.56996 12.76 5.67996V8.55996C12.76 10.8 13.62 11.26 15.01 11.26H18.33C19.43 11.26 20.11 11.07 20.41 10.68C20.76 10.22 20.73 9.29996 20.34 7.94996C19.76 5.97996 18.06 4.26996 16.09 3.69996C15.35 3.46996 14.75 3.35996 14.28 3.35996Z" fill="#1E1E1E"/>
<path d="M11.0699 22.7501C10.5399 22.7501 9.99988 22.7101 9.45988 22.6201C5.36988 21.9601 2.03988 18.6401 1.37988 14.5501C0.529883 9.29008 3.91988 4.33008 9.10988 3.27008C9.51988 3.19008 9.90988 3.45008 9.99988 3.85008C10.0799 4.26008 9.81988 4.65008 9.41988 4.74008C5.02988 5.64008 2.14988 9.84008 2.87988 14.3101C3.43988 17.7701 6.24988 20.5801 9.70988 21.1401C14.1999 21.8601 18.3899 18.9701 19.2799 14.5601C19.3599 14.1501 19.7599 13.8901 20.1599 13.9701C20.5699 14.0501 20.8299 14.4501 20.7499 14.8501C19.7999 19.5201 15.7199 22.7501 11.0699 22.7501Z" fill="#1E1E1E"/>
</svg>
