<svg width="17" height="16" viewBox="0 0 17 16" fill="none" xmlns="http://www.w3.org/2000/svg">
<path d="M14.9974 12.6667V14.6667H1.66406V12.6667C1.66406 12.3 1.96406 12 2.33073 12H14.3307C14.6974 12 14.9974 12.3 14.9974 12.6667Z" fill="#292D32" stroke="#292D32" stroke-width="1.5" stroke-miterlimit="10" stroke-linecap="round" stroke-linejoin="round"/>
<path d="M4.9974 7.3335H3.66406V12.0002H4.9974V7.3335Z" fill="#292D32"/>
<path d="M7.66536 7.3335H6.33203V12.0002H7.66536V7.3335Z" fill="#292D32"/>
<path d="M10.3333 7.3335H9V12.0002H10.3333V7.3335Z" fill="#292D32"/>
<path d="M12.9974 7.3335H11.6641V12.0002H12.9974V7.3335Z" fill="#292D32"/>
<path d="M15.6667 15.1665H1C0.726667 15.1665 0.5 14.9398 0.5 14.6665C0.5 14.3932 0.726667 14.1665 1 14.1665H15.6667C15.94 14.1665 16.1667 14.3932 16.1667 14.6665C16.1667 14.9398 15.94 15.1665 15.6667 15.1665Z" fill="#292D32"/>
<path d="M14.5774 3.83355L8.5774 1.43355C8.44406 1.38022 8.2174 1.38022 8.08406 1.43355L2.08406 3.83355C1.85073 3.92689 1.66406 4.20022 1.66406 4.45355V6.66689C1.66406 7.03355 1.96406 7.33355 2.33073 7.33355H14.3307C14.6974 7.33355 14.9974 7.03355 14.9974 6.66689V4.45355C14.9974 4.20022 14.8107 3.92689 14.5774 3.83355ZM8.33073 5.66689C7.7774 5.66689 7.33073 5.22022 7.33073 4.66689C7.33073 4.11355 7.7774 3.66689 8.33073 3.66689C8.88406 3.66689 9.33073 4.11355 9.33073 4.66689C9.33073 5.22022 8.88406 5.66689 8.33073 5.66689Z" fill="#292D32"/>
</svg>
