<svg width="21" height="20" viewBox="0 0 21 20" fill="none" xmlns="http://www.w3.org/2000/svg">
<path fill-rule="evenodd" clip-rule="evenodd" d="M7.79279 14.707C7.60532 14.5195 7.5 14.2652 7.5 14C7.5 13.7348 7.60532 13.4805 7.79279 13.293L11.0858 10L7.79279 6.70701C7.61063 6.51841 7.50983 6.26581 7.51211 6.00361C7.51439 5.74141 7.61956 5.4906 7.80497 5.30519C7.99038 5.11978 8.24119 5.01461 8.50339 5.01234C8.76558 5.01006 9.01818 5.11085 9.20679 5.29301L13.2068 9.29301C13.3943 9.48054 13.4996 9.73485 13.4996 10C13.4996 10.2652 13.3943 10.5195 13.2068 10.707L9.20679 14.707C9.01926 14.8945 8.76495 14.9998 8.49979 14.9998C8.23462 14.9998 7.98031 14.8945 7.79279 14.707Z" fill="black"/>
</svg>
