<svg width="510" height="347" viewBox="0 0 510 347" fill="none" xmlns="http://www.w3.org/2000/svg">
<path d="M103.212 50.0137C97.7506 68.5374 87.6973 107.305 91.1747 114.185" stroke="black" stroke-width="2.5" stroke-linecap="round"/>
<path d="M93.8301 54.6925L101.614 49.8565C102.452 49.3355 103.545 49.5043 104.188 50.2539L109.553 56.5153C110.2 57.2697 111.302 57.4352 112.141 56.9042L132.51 44.0186C135.818 41.388 135.763 39.0013 134.495 37.4421C132.382 34.8445 126.487 33.8307 122.337 33.7964C121.493 33.7895 120.77 34.3635 120.527 35.1711L119.231 39.4662C119.052 40.0564 118.61 40.5354 118.03 40.7445C107.372 44.5884 100.49 42.1855 97.6354 38.7917C97.2801 38.3692 97.1894 37.7951 97.3165 37.2579L97.9148 34.7299C98.1932 33.5539 97.3726 32.4002 96.1649 32.3542C90.4782 32.1373 82.2324 33.0441 82.2324 38.0997C82.2324 43.3178 87.7898 50.5318 91.3884 54.3911C92.0207 55.0691 93.0426 55.1818 93.8301 54.6925Z" fill="black"/>
<path d="M66.7088 96.9728C69.3711 68.6128 77.9125 45.1782 82.0168 37.3372C83.348 34.3554 86.5427 32.3013 90.0036 32.0363C94.3298 31.705 127.397 31.7539 135.595 36.012C143.249 39.9877 141.918 39.9877 139.921 62.1854C138.324 79.9436 131.934 103.599 128.939 113.207C126.942 118.508 114.896 123.014 102.649 118.508C87.3414 112.876 92.0003 115.857 78.0234 113.207C66.8419 111.087 66.2423 101.942 66.7088 96.9728Z" stroke="black" stroke-width="2.5"/>
<path d="M141.057 48.8076C138.882 46.4762 133.944 44.1447 131.595 53.4706C128.659 65.1279 122.082 91.1642 121.48 94.4378C120.501 99.7669 120.176 113.756 125.396 105.429C129.572 98.7677 134.423 70.7901 135.837 57.4674" stroke="black" stroke-width="2.5" stroke-linecap="round"/>
<ellipse cx="105.454" cy="58.2758" rx="1.66002" ry="2.65514" transform="rotate(13.2587 105.454 58.2758)" fill="black"/>
<ellipse cx="101.704" cy="71.8612" rx="1.66002" ry="2.65514" transform="rotate(13.2587 101.704 71.8612)" fill="black"/>
<ellipse cx="98.3857" cy="87.7922" rx="1.66002" ry="2.65514" transform="rotate(13.2587 98.3857 87.7922)" fill="black"/>
<ellipse cx="95.7295" cy="104.387" rx="1.66002" ry="2.65514" transform="rotate(13.2587 95.7295 104.387)" fill="black"/>
<path fill-rule="evenodd" clip-rule="evenodd" d="M23.452 46.2658C21.9084 45.8283 20.2938 46.6825 19.7872 48.2048L19.1544 50.1063C18.8059 51.1536 17.9104 51.9249 16.8231 52.1144L14.8488 52.4585C13.2683 52.734 12.1842 54.2042 12.3883 55.7955L12.6432 57.7833C12.7836 58.8781 12.3115 59.9616 11.414 60.6041L9.78456 61.7707C8.48009 62.7047 8.1413 64.4997 9.0156 65.8449L10.1077 67.5252C10.7092 68.4506 10.7539 69.6317 10.2241 70.6L9.26224 72.358C8.49219 73.7655 8.96576 75.5297 10.3371 76.3623L12.0501 77.4024C12.9936 77.9752 13.5463 79.0199 13.4891 80.1222L13.3853 82.1235C13.3022 83.7257 14.4943 85.1097 16.0911 85.2649L18.0858 85.4587C19.1844 85.5654 20.1356 86.2668 20.5624 87.2848L21.3371 89.1329C21.9574 90.6125 23.632 91.3422 25.138 90.7892L27.0192 90.0984C28.0553 89.7179 29.2167 89.9371 30.0428 90.6691L31.5428 91.9981C32.7436 93.062 34.5689 92.9929 35.6859 91.8412L37.081 90.4025C37.8494 89.6102 38.9909 89.3038 40.0528 89.6048L41.9809 90.1514C43.5244 90.5889 45.139 89.7347 45.6456 88.2124L46.2784 86.3109C46.6269 85.2636 47.5224 84.4923 48.6098 84.3028L50.584 83.9587C52.1645 83.6832 53.2486 82.213 53.0445 80.6216L52.7896 78.6339C52.6492 77.5391 53.1214 76.4556 54.0188 75.8131L55.6483 74.6465C56.9527 73.7125 57.2915 71.9175 56.4172 70.5723L55.3251 68.892C54.7236 67.9666 54.6789 66.7855 55.2087 65.8172L56.1706 64.0592C56.9406 62.6517 56.4671 60.8875 55.0957 60.0549L53.3827 59.0148C52.4392 58.442 51.8865 57.3973 51.9437 56.295L52.0475 54.2937C52.1306 52.6915 50.9385 51.3075 49.3417 51.1523L47.347 50.9585C46.2484 50.8518 45.2972 50.1504 44.8705 49.1324L44.0957 47.2843C43.4754 45.8047 41.8008 45.075 40.2948 45.628L38.4136 46.3188C37.3775 46.6993 36.2161 46.4801 35.39 45.7481L33.89 44.4191C32.6892 43.3552 30.8639 43.4243 29.747 44.576L28.3518 46.0147C27.5834 46.807 26.4419 47.1134 25.38 46.8124L23.452 46.2658ZM23.775 65.9589C23.4929 65.4258 23.6965 64.7649 24.2296 64.4828C24.7627 64.2008 25.4236 64.4043 25.7057 64.9374C25.9878 65.4706 25.7842 66.1314 25.2511 66.4135C24.718 66.6956 24.0571 66.4921 23.775 65.9589ZM28.1945 63.6206C29.2039 65.5283 28.4756 67.893 26.5679 68.9024C24.6602 69.9117 22.2955 69.1835 21.2862 67.2758C20.2768 65.3681 21.0051 63.0033 22.9128 61.994C24.8205 60.9846 27.1852 61.7129 28.1945 63.6206ZM40.5453 69.8118C40.0122 70.0939 39.8087 70.7548 40.0907 71.2879C40.3728 71.8211 41.0337 72.0246 41.5668 71.7425C42.0999 71.4604 42.3035 70.7996 42.0214 70.2664C41.7393 69.7333 41.0784 69.5298 40.5453 69.8118ZM42.8836 74.2314C44.7913 73.222 45.5196 70.8573 44.5103 68.9496C43.5009 67.0419 41.1362 66.3136 39.2285 67.323C37.3208 68.3323 36.5925 70.6971 37.6019 72.6048C38.6112 74.5125 40.976 75.2407 42.8836 74.2314ZM34.8111 58.1869C34.7289 56.8086 33.5451 55.7579 32.1668 55.8401C30.7885 55.9222 29.7378 57.1061 29.8199 58.4844L30.9852 78.038C31.0674 79.4163 32.2513 80.467 33.6295 80.3849C35.0078 80.3027 36.0585 79.1188 35.9764 77.7406L34.8111 58.1869Z" fill="black"/>
<path d="M191.638 39.5239C191.638 48.7026 184.107 56.1678 174.788 56.1678C165.469 56.1678 157.938 48.7026 157.938 39.5239C157.938 30.3451 165.469 22.8799 174.788 22.8799C184.107 22.8799 191.638 30.3451 191.638 39.5239Z" stroke="black" stroke-width="2.5"/>
<path d="M174.788 47.5452V50.0133" stroke="black" stroke-width="2.5" stroke-linecap="round"/>
<path d="M174.788 31.5024V29.0343" stroke="black" stroke-width="2.5" stroke-linecap="round"/>
<path d="M179.312 32.5923C178.176 32.0259 176.451 31.4961 174.837 31.5023C172.893 31.5097 171.112 32.2956 170.72 34.7341C170.204 37.9503 174.117 39.1049 176.448 40.267C179.671 41.8735 179.641 44.8848 177.701 46.3355C176.829 46.988 175.838 47.346 174.837 47.4813C173.374 47.679 171.889 47.4008 170.72 46.8708" stroke="black" stroke-width="2.5" stroke-linecap="round"/>
<path d="M57.8646 166.168C48.6145 169.955 48.7677 182.518 50.1512 189.266C50.2892 189.939 50.7952 190.476 51.4525 190.677C71.8921 196.933 87.9053 187.276 94.1403 180.934C94.5998 180.467 94.7686 179.795 94.581 179.167C93.5846 175.831 91.226 170.562 89.7272 168.212C84.4416 160.889 70.073 161.169 57.8646 166.168Z" stroke="black" stroke-width="2.5" stroke-linecap="round"/>
<path d="M95.0006 180.294C104.121 181.857 113.706 185.945 110.839 192.634C107.753 199.833 78.4457 213.441 56.3379 209.714C46.1208 208.179 30.4185 201.203 50.1636 190.372" stroke="black" stroke-width="2.5" stroke-linecap="round"/>
<path d="M138.68 179.677C139.127 192.79 151.304 199.583 159.047 201.92C159.889 202.174 160.096 203.328 159.368 203.822C146.592 212.482 141.46 216.025 143.616 235.827C145.426 252.445 121.335 253.858 109.063 252.486C95.6935 251.664 64.4304 249.936 46.3308 249.607C28.2311 249.278 19.8669 228.902 17.9472 218.755C17.1245 211.214 14.9443 188.192 12.8053 156.435C10.1315 116.739 67.1042 121.47 107.006 128.051C146.907 134.633 138.063 161.577 138.68 179.677Z" stroke="black" stroke-width="2.5" stroke-linecap="round"/>
<path d="M32.4593 37.8783C32.1165 24.7835 41.4261 0.814948 71.5373 1.47312C109.176 2.29583 152.369 3.5299 163.887 24.9204" stroke="black" stroke-width="2.5" stroke-linecap="round"/>
<path d="M31.2255 95.2627C29.9914 104.107 30.7316 123.729 33.6934 127.348" stroke="black" stroke-width="2.5" stroke-linecap="round"/>
<path d="M141.469 165.399C149.764 168.072 166.685 168.525 168.001 148.944C169.063 133.143 174.751 124.851 179.033 121.411C179.8 120.795 179.687 118.916 178.898 118.329C176.206 116.323 173.459 112.122 174.172 104.518C175.406 91.3545 177.051 66.8788 174.172 56.1836" stroke="black" stroke-width="2.5" stroke-linecap="round"/>
<path d="M493.451 298.082C498.6 303.32 505.201 314.765 490.417 318.65" stroke="black" stroke-width="2.5" stroke-linecap="round"/>
<path d="M493.708 309.189C492.83 304.602 489.223 295.951 481.437 293.174C480.158 292.717 478.765 292.419 477.254 292.323" stroke="black" stroke-width="2.5" stroke-linecap="round"/>
<path d="M484.694 266.408C474.459 273.218 457.651 291.14 472.299 308.343C486.947 325.545 492.675 327.053 493.708 325.657" stroke="black" stroke-width="2.5" stroke-linecap="round"/>
<path d="M496.176 279.982L481.367 293.146" stroke="black" stroke-width="2.5" stroke-linecap="round"/>
<path d="M481.367 265.174C482.275 265.276 483.435 265.608 484.736 266.244C488.315 267.993 492.97 272.045 496.429 279.977C497.42 282.253 498.314 284.847 499.055 287.798" stroke="black" stroke-width="2.5" stroke-linecap="round"/>
<path d="M483.013 261.061C489.486 261.883 502.827 265.668 504.403 274.224" stroke="black" stroke-width="2.5" stroke-linecap="round"/>
<path d="M485.48 256.64C488.706 255.736 496.595 254.696 502.346 257.77" stroke="black" stroke-width="2.5" stroke-linecap="round"/>
<path d="M232.906 57.8153L258.936 94.1748" stroke="black" stroke-width="2.5" stroke-linecap="round"/>
<path d="M235.131 91.6295L248.115 102.774" stroke="black" stroke-width="2.5" stroke-linecap="round"/>
<path d="M244.101 117.668L206.668 103.887" stroke="black" stroke-width="2.5" stroke-linecap="round"/>
<path d="M222.615 132.779L240.237 132.177" stroke="black" stroke-width="2.5" stroke-linecap="round"/>
<path d="M197.002 157.643L245.096 145.829" stroke="black" stroke-width="2.5" stroke-linecap="round"/>
<path d="M296.039 132.414C293.576 141.605 289.298 149.324 284.423 154.383C279.52 159.471 274.204 161.698 269.574 160.457C264.944 159.216 261.453 154.631 259.751 147.772C258.059 140.954 258.213 132.13 260.676 122.939C263.138 113.748 267.417 106.029 272.292 100.97C277.195 95.8819 282.511 93.6557 287.141 94.8963C291.771 96.1366 295.261 100.723 296.964 107.581C298.656 114.4 298.502 123.224 296.039 132.414Z" stroke="black" stroke-width="2.5"/>
<path d="M275.171 133.21C276.927 133.681 279.065 131.394 279.947 128.102C280.829 124.81 280.121 121.761 278.365 121.29C276.61 120.82 274.472 123.107 273.59 126.399C272.708 129.69 273.416 132.74 275.171 133.21Z" fill="black"/>
<path d="M349.475 153.12C351.768 149.646 352.524 143.858 352.615 141.398L358.189 145.234C359.923 148.935 357.633 151.544 356.272 152.386L349.475 153.12Z" fill="black"/>
<path d="M275.364 160.305L356.271 152.386M358.188 145.234L289.816 96.0385L358.188 145.234Z" stroke="black" stroke-width="2.5" stroke-linecap="round"/>
<path d="M275.293 131.966L291.814 143.419M277.848 122.43L297.669 121.565L277.848 122.43Z" stroke="black" stroke-width="2.5" stroke-linecap="round"/>
<path d="M362.149 264.946L345.393 281.841C331.699 294.128 322.659 284.678 317.105 279.622C311.347 271.515 302.297 261.387 302.297 227.5C302.297 206.315 307.439 195.993 328.212 203.809" stroke="black" stroke-width="2.5" stroke-linecap="round"/>
<path d="M358.188 145.234C358.879 146.626 359.464 150.005 356.271 152.386" stroke="black" stroke-width="2.5" stroke-linecap="round"/>
<path d="M352.27 141.093C352.378 143.606 351.638 149.015 349.076 153.013" stroke="black" stroke-width="2.5" stroke-linecap="round"/>
<path d="M396.703 178.549C382.511 178.549 350.425 185.953 337.262 216.188" stroke="black" stroke-width="2.5" stroke-linecap="round"/>
<path d="M300.743 179.668C299.805 180.87 298.787 183.811 301.609 186.515C301.817 186.716 302.047 186.915 302.3 187.112C305.964 189.967 307.767 187.37 308.211 185.714" stroke="black" stroke-width="2.5" stroke-linecap="round"/>
<path d="M311.933 180.558C313.039 183.426 310.893 184.176 309.682 184.193C309.395 184.159 309.049 184.106 308.662 184.028C306.539 183.602 303.155 182.469 301.168 180.208C301.005 180.022 300.863 179.842 300.742 179.668C299.118 177.333 301.101 176.019 302.392 175.639" stroke="black" stroke-width="2.5" stroke-linecap="round"/>
<path d="M304.518 170.885C303.322 170.848 301.108 171.376 301.826 173.783C302.544 176.19 308.602 179.219 311.542 180.432C311.67 180.481 311.801 180.523 311.934 180.558C313.138 180.876 314.478 180.602 314.909 178.992C315.519 176.716 312.812 175.165 312.185 174.855" stroke="black" stroke-width="2.5" stroke-linecap="round"/>
<path d="M313.282 165.993C312.032 166.155 310.602 167.574 312.92 169.729C315.239 171.883 314.068 173.656 313.193 174.273C311.885 174.917 308.266 174.699 304.257 168.685C300.247 162.67 309.639 162.107 314.836 162.577" stroke="black" stroke-width="2.5" stroke-linecap="round"/>
<path d="M323.328 173.795C321.556 171.404 317.842 167.726 317.169 172.145C316.496 176.564 319.029 179.245 320.38 180.032" stroke="black" stroke-width="2.5" stroke-linecap="round"/>
<path d="M318.747 194.074C317.856 192.629 316.817 188.404 319.78 183.065" stroke="black" stroke-width="2.5" stroke-linecap="round"/>
<path d="M318.38 156.499L313.277 169.186" stroke="black" stroke-width="2.5" stroke-linecap="round"/>
<path d="M322.85 175.583L332.625 154.993" stroke="black" stroke-width="2.5" stroke-linecap="round"/>
<path d="M304.918 191.646C303.906 195.42 300.787 199.908 304.441 202.165C308.903 204.92 310.604 200.622 312.821 196.319L319.077 183.303" stroke="black" stroke-width="2.5" stroke-linecap="round"/>
<path d="M326.566 170.732C328.76 178.479 328.829 194.348 328.829 225.816" stroke="black" stroke-width="2.5" stroke-linecap="round"/>
<path d="M462.954 252.593C473.01 276.657 459.229 297.842 462.954 337.949C437.998 345.353 382.781 353.869 361.555 328.694C360.595 324.306 361.555 299.487 361.555 283.444" stroke="black" stroke-width="2.5" stroke-linecap="round"/>
<path d="M441.768 216.599L438.465 211.529C435.245 206.587 428.98 204.615 423.51 206.82L415.638 209.994C410.727 211.975 405.1 210.601 401.653 206.58L392.611 196.031" stroke="black" stroke-width="2.5" stroke-linecap="round"/>
<path d="M396.313 179.336C394.462 173.989 396.148 170.39 397.794 169.705C407.666 178.754 422.64 175.395 428.193 169.91C430.168 171.72 429.016 177.074 428.193 178.719C417.498 190.566 402.278 183.93 396.313 179.336Z" fill="black"/>
<path d="M367.953 95.2575C372.478 111.506 374.741 112.946 381.322 120.145C381.322 113.03 382.545 101.089 382.545 96.1165C404.095 96.1165 422.283 87.319 428.683 82.9204C428.453 97.8376 442.438 107.591 442.438 107.591C442.438 107.591 440.432 113.616 439.286 127.099C438.369 137.885 441.005 135.8 442.438 133.41C446.565 120.099 453.328 123.656 456.194 127.099C491.36 69.9593 437.28 58.9188 426.964 59.9707C419.169 53.3153 408.298 48.0997 400.656 47.3347C373.095 44.5758 360.616 68.9112 367.953 95.2575Z" fill="black"/>
<path d="M441.956 143.579C438.254 166.181 413.405 182.434 395.473 164.124C377.541 145.815 381.129 112.301 383.045 96.6621" stroke="black" stroke-width="2.5" stroke-linecap="round"/>
<path d="M456.6 125.698C458.863 131.251 456.74 143.557 441.956 143.557" stroke="black" stroke-width="2.5" stroke-linecap="round"/>
<path d="M450.079 128.748C450.406 129.936 450.145 132.752 446.48 134.507" stroke="black" stroke-width="2.5" stroke-linecap="round"/>
<path d="M383.544 140.677C378.719 138.666 375.317 131.216 376.626 119.287" stroke="black" stroke-width="2.5" stroke-linecap="round"/>
<path d="M394.37 126.207C393 125.656 392.464 123.777 393.174 122.01C393.884 120.243 395.571 119.257 396.941 119.807C398.311 120.358 398.846 122.237 398.136 124.004C397.426 125.771 395.74 126.757 394.37 126.207Z" fill="black"/>
<path d="M419.529 126.916C418.139 126.418 417.491 124.676 418.082 123.024C418.673 121.372 420.28 120.437 421.67 120.934C423.06 121.432 423.708 123.175 423.117 124.826C422.526 126.478 420.919 127.413 419.529 126.916Z" fill="black"/>
<path d="M430.438 118.875C429.788 116.963 426.987 113.427 420.977 114.574" stroke="black" stroke-width="2.5" stroke-linecap="round"/>
<path d="M401.643 115.173C400.209 113.932 396.31 112.193 392.182 115.173" stroke="black" stroke-width="2.5" stroke-linecap="round"/>
<path d="M405.261 124.079C404.782 128.14 401.638 136.831 406.986 136.831" stroke="black" stroke-width="2.5" stroke-linecap="round"/>
<path d="M428.789 177.109C469.719 177.109 520.933 220.096 504.968 273.778" stroke="black" stroke-width="2.5" stroke-linecap="round"/>
<path d="M459.359 236.585C461.21 238.573 465.324 244.071 466.969 250.159C468.615 256.248 473.277 260.512 475.402 261.883" stroke="black" stroke-width="2.5" stroke-linecap="round"/>
<path d="M412.02 151.53C411.727 153.166 411.044 154.523 410.231 155.402C409.408 156.292 408.565 156.592 407.877 156.469C407.188 156.346 406.501 155.771 406.038 154.652C405.58 153.545 405.411 152.035 405.704 150.4C405.996 148.764 406.679 147.407 407.493 146.527C408.316 145.638 409.159 145.337 409.847 145.461C410.536 145.584 411.223 146.158 411.686 147.278C412.143 148.385 412.313 149.895 412.02 151.53Z" stroke="black" stroke-width="2.5"/>
</svg>
