<svg width="16" height="17" viewBox="0 0 16 17" fill="none" xmlns="http://www.w3.org/2000/svg">
<path d="M8.93344 12.1134H7.2601C6.16677 12.1134 5.2801 11.1934 5.2801 10.0601C5.2801 9.78672 5.50677 9.56005 5.7801 9.56005C6.05344 9.56005 6.2801 9.78672 6.2801 10.0601C6.2801 10.6401 6.7201 11.1134 7.2601 11.1134H8.93344C9.36677 11.1134 9.72677 10.7267 9.72677 10.2601C9.72677 9.68005 9.5201 9.56672 9.1801 9.44672L6.49344 8.50005C5.97344 8.32005 5.27344 7.93339 5.27344 6.74005C5.27344 5.71339 6.0801 4.88672 7.06677 4.88672H8.7401C9.83344 4.88672 10.7201 5.80672 10.7201 6.94005C10.7201 7.21339 10.4934 7.44005 10.2201 7.44005C9.94677 7.44005 9.7201 7.21339 9.7201 6.94005C9.7201 6.36005 9.2801 5.88672 8.7401 5.88672H7.06677C6.63344 5.88672 6.27344 6.27339 6.27344 6.74005C6.27344 7.32005 6.4801 7.43339 6.8201 7.55339L9.50677 8.50005C10.0268 8.68005 10.7268 9.06672 10.7268 10.2601C10.7201 11.2801 9.9201 12.1134 8.93344 12.1134Z" fill="#292D32"/>
<path d="M8 13C7.72667 13 7.5 12.7733 7.5 12.5V4.5C7.5 4.22667 7.72667 4 8 4C8.27333 4 8.5 4.22667 8.5 4.5V12.5C8.5 12.7733 8.27333 13 8 13Z" fill="#292D32"/>
<path d="M9.9987 15.6668H5.9987C2.3787 15.6668 0.832031 14.1202 0.832031 10.5002V6.50016C0.832031 2.88016 2.3787 1.3335 5.9987 1.3335H9.9987C13.6187 1.3335 15.1654 2.88016 15.1654 6.50016V10.5002C15.1654 14.1202 13.6187 15.6668 9.9987 15.6668ZM5.9987 2.3335C2.92536 2.3335 1.83203 3.42683 1.83203 6.50016V10.5002C1.83203 13.5735 2.92536 14.6668 5.9987 14.6668H9.9987C13.072 14.6668 14.1654 13.5735 14.1654 10.5002V6.50016C14.1654 3.42683 13.072 2.3335 9.9987 2.3335H5.9987Z" fill="#292D32"/>
</svg>
