<svg width="313" height="345" viewBox="0 0 313 345" fill="none" xmlns="http://www.w3.org/2000/svg">
<path d="M103.208 257.095C116.524 271.285 154.206 296.659 198.405 284.631" stroke="black" stroke-width="6.76753" stroke-linecap="round"/>
<path d="M239.367 338.808C233.553 314.469 224.728 265.761 234.815 261.331C235.273 261.131 235.773 261 236.236 260.807L274.576 244.808" stroke="black" stroke-width="2.25584" stroke-linecap="round"/>
<path d="M284.557 250.022L287.077 261.689" stroke="black" stroke-width="2.25584" stroke-linecap="round"/>
<path d="M238.672 265.906C234.337 274.07 241.074 308.49 246.512 331.117C247.695 336.049 253.064 338.635 257.729 336.607L293.767 320.938C297.45 319.336 299.463 315.345 298.561 311.449L289.096 270.836" stroke="black" stroke-width="2.25584" stroke-linecap="round"/>
<path d="M246.311 266.398C248.07 264.258 249.887 256.702 245.805 252.839C245.101 252.166 244.215 251.607 243.119 251.206C235.716 248.5 230.993 257.696 235.446 260.861" stroke="black" stroke-width="2.25584" stroke-linecap="round"/>
<path d="M245.691 252.503C246.322 248.356 251.704 244.025 258.193 247.621C265.165 252.55 261.662 259.798 258.483 262.326" stroke="black" stroke-width="2.25584" stroke-linecap="round"/>
<path d="M258.488 247.264C259.81 243.995 264.798 237.691 271.378 240.282C280.216 245.104 275.128 254.602 271.43 255.818" stroke="black" stroke-width="2.25584" stroke-linecap="round"/>
<path d="M271.302 239.832C273.311 236.201 278.324 232.691 283.22 236.162C288.117 239.634 286.563 248.835 281.588 251.78" stroke="black" stroke-width="2.25584" stroke-linecap="round"/>
<path d="M252.995 288.678C260.553 286.497 277.09 280.827 282.772 275.594" stroke="black" stroke-width="2.25584" stroke-linecap="round"/>
<path d="M256.605 300.407C263.686 299.285 280.298 292.498 286.834 290.03" stroke="black" stroke-width="2.25584" stroke-linecap="round"/>
<path d="M258.41 313.04C266.433 311.818 283.531 307.852 287.736 301.761" stroke="black" stroke-width="2.25584" stroke-linecap="round"/>
<path d="M262.019 325.672C266.06 325.146 272.621 323.356 277.809 319.356" stroke="black" stroke-width="2.25584" stroke-linecap="round"/>
<rect x="283.325" y="312.643" width="11.7056" height="9.13267" rx="1.12792" transform="rotate(-20.8025 283.325 312.643)" stroke="black" stroke-width="2.25584"/>
<path d="M14.7793 155.132L9.36523 151.071" stroke="black" stroke-width="2.25584" stroke-linecap="round"/>
<path d="M20.1933 151.07L13.4258 141.596" stroke="black" stroke-width="2.25584" stroke-linecap="round"/>
<path d="M26.5088 149.267L23.8018 140.243" stroke="black" stroke-width="2.25584" stroke-linecap="round"/>
<path d="M8.05658 179.032L32.6643 203.705C32.9517 203.994 33.3965 204.054 33.7501 203.852L46.0177 196.858C46.3786 196.652 46.8333 196.719 47.1192 197.021L56.4368 206.842C56.7308 207.152 57.2017 207.213 57.5652 206.989L86.3294 189.241C86.9628 188.85 87.7704 189.351 87.7017 190.092L83.4618 235.855C83.4144 236.366 82.9503 236.735 82.4414 236.666L2.56197 225.78C2.07903 225.714 1.73564 225.276 1.78639 224.792L6.52026 179.576C6.59937 178.82 7.52001 178.494 8.05658 179.032Z" stroke="black" stroke-width="2.25584" stroke-linecap="round"/>
<path d="M9.36523 219.649L26.9608 208.37" stroke="black" stroke-width="2.25584" stroke-linecap="round"/>
<path d="M62.1523 212.88L76.1386 228.22" stroke="black" stroke-width="2.25584" stroke-linecap="round"/>
<path d="M18.3886 170.021L6.6582 178.212L17.8554 188.518L18.3886 170.021Z" fill="black"/>
<path d="M77.4483 177.69L76.1367 195.737L87.4159 188.464L77.4483 177.69Z" fill="black"/>
<path d="M62.1522 159.643L38.2402 156.738L51.6414 148.815L62.1522 159.643Z" fill="black"/>
<path d="M17.4863 188.469L19.0209 156.529C19.0456 156.014 19.4965 155.624 20.0098 155.674L77.9775 161.332C78.4615 161.379 78.821 161.802 78.7904 162.287L76.7385 194.834" stroke="black" stroke-width="2.25584" stroke-linecap="round"/>
<path d="M24.7051 194.722L26.4726 172.771C26.5141 172.257 26.9785 171.882 27.4905 171.949L69.4127 177.501C69.8932 177.564 70.2376 177.996 70.1927 178.479L68.1659 200.248" stroke="black" stroke-width="2.25584" stroke-linecap="round"/>
<path d="M36.8857 187.164L56.286 189.419" stroke="black" stroke-width="2.25584" stroke-linecap="round"/>
<path d="M31.9229 194.383L58.993 197.541" stroke="black" stroke-width="2.25584" stroke-linecap="round"/>
<path d="M228.876 17.3781C242.265 8.83014 262.268 9.48984 272.006 14.1125C279.041 17.4522 300.05 29.7707 284.224 55.9926C284.122 56.1618 284.073 56.3668 284.093 56.5634L285.795 73.0626C285.86 73.6932 285.271 74.1925 284.66 74.0257L268.151 69.5234C268.006 69.484 267.86 69.4799 267.714 69.5136C251.714 73.2046 217.473 75.0562 215.631 45.2575C215.202 38.3198 216.472 32.6193 218.911 27.9921" stroke="black" stroke-width="2.25584" stroke-linecap="round"/>
<path d="M241.943 41.2114C241.943 43.1559 240.276 44.8207 238.108 44.8207C235.94 44.8207 234.273 43.1559 234.273 41.2114C234.273 39.2669 235.94 37.602 238.108 37.602C240.276 37.602 241.943 39.2669 241.943 41.2114Z" stroke="black" stroke-width="2.25584"/>
<circle cx="251.417" cy="41.2114" r="3.60935" stroke="black" stroke-width="2.25584"/>
<circle cx="264.502" cy="41.2114" r="3.60935" stroke="black" stroke-width="2.25584"/>
<path d="M212.774 60.3045L199.421 65.6713C198.779 65.9296 198.097 65.3973 198.191 64.711L199.812 52.935C199.836 52.7552 199.809 52.5772 199.729 52.4144C194.375 41.5076 188.551 19.3553 210.563 7.2962C231.651 -4.25655 248.657 4.91745 258.861 10.3542" stroke="black" stroke-width="2.25584" stroke-linecap="round"/>
<path d="M286.92 195.285C290.068 174.598 289.315 127.409 261.117 104.148" stroke="black" stroke-width="6.76753" stroke-linecap="round"/>
<path d="M92.832 130.768C100.837 113.146 127.204 76.2933 168.628 69.8604" stroke="black" stroke-width="6.76753" stroke-linecap="round"/>
<path d="M130.278 298.152C138.084 304.41 158.582 308.165 168.628 306.947" stroke="black" stroke-width="3.15818" stroke-linecap="round"/>
<path d="M308.501 166.339C308.725 159.922 307.681 144.446 301.721 133.877" stroke="black" stroke-width="3.15818" stroke-linecap="round"/>
<path d="M90.5321 95.0416C98.7278 82.6595 106.19 67.7641 132.134 64.6132" stroke="black" stroke-width="3.15818" stroke-linecap="round"/>
</svg>
