<svg width="81" height="21" viewBox="0 0 81 21" fill="none" xmlns="http://www.w3.org/2000/svg">
<path d="M7.86411 20.5342C6.3319 20.5342 4.8643 20.3508 3.46132 19.984C2.05833 19.5988 0.904557 19.0945 0 18.4709L1.41222 14.5369C2.26139 15.1055 3.25825 15.5548 4.40279 15.8849C5.54734 16.2151 6.70111 16.3801 7.86411 16.3801C9.0825 16.3801 9.93167 16.2242 10.4116 15.9124C10.9101 15.5823 11.1593 15.1788 11.1593 14.702C11.1593 14.2802 10.9839 13.9409 10.6332 13.6841C10.3009 13.4273 9.70092 13.2073 8.83328 13.0239L5.59349 12.3361C2.08602 11.5842 0.332286 9.75931 0.332286 6.86155C0.332286 5.59608 0.673803 4.4865 1.35684 3.5328C2.05833 2.57911 3.0275 1.8455 4.26434 1.33198C5.50119 0.800113 6.94109 0.53418 8.58407 0.53418C9.93167 0.53418 11.2054 0.726752 12.4054 1.1119C13.6237 1.4787 14.6114 1.98306 15.3682 2.62496L13.956 6.31135C13.2545 5.79782 12.4423 5.40351 11.5193 5.1284C10.5962 4.83496 9.59939 4.68824 8.52868 4.68824C7.4949 4.68824 6.70111 4.87164 6.1473 5.23844C5.59349 5.58691 5.31658 6.04541 5.31658 6.61396C5.31658 7.01744 5.48273 7.34757 5.81501 7.60433C6.1473 7.86109 6.73803 8.08118 7.58721 8.26458L10.7993 8.95234C14.3622 9.70429 16.1436 11.4833 16.1436 14.2893C16.1436 15.5548 15.8021 16.6552 15.119 17.5906C14.436 18.5259 13.4761 19.2504 12.2392 19.7639C11.0024 20.2774 9.544 20.5342 7.86411 20.5342Z" fill="white"/>
<path d="M23.4087 20.5342C21.6365 20.5342 20.3258 20.0573 19.4766 19.1036C18.6459 18.1316 18.2305 16.6552 18.2305 14.6745V6.69649H23.1595V14.812C23.1595 16.1325 23.7317 16.7928 24.8763 16.7928C25.5408 16.7928 26.0854 16.5544 26.51 16.0775C26.9346 15.6007 27.1469 14.9679 27.1469 14.1793V6.69649H32.0758V20.2316H27.2577V18.5534C26.3716 19.8739 25.0886 20.5342 23.4087 20.5342Z" fill="white"/>
<path d="M43.9159 20.5342C43.0113 20.5342 42.1806 20.3416 41.4237 19.9565C40.6669 19.553 40.1038 19.0303 39.7346 18.3884V20.2316H34.9442V0.836793H39.8731V8.3196C40.2607 7.73271 40.8145 7.26504 41.5345 6.91657C42.2729 6.56811 43.0667 6.39388 43.9159 6.39388C45.0974 6.39388 46.1311 6.67815 47.0172 7.2467C47.9218 7.81524 48.6233 8.63138 49.1217 9.69512C49.6201 10.7405 49.8694 11.9968 49.8694 13.464C49.8694 14.9129 49.6109 16.1692 49.094 17.2329C48.5956 18.2967 47.8941 19.1128 46.9895 19.6814C46.1034 20.2499 45.0789 20.5342 43.9159 20.5342ZM42.3652 16.9303C43.1036 16.9303 43.7128 16.6552 44.1928 16.105C44.6728 15.5548 44.9127 14.6745 44.9127 13.464C44.9127 12.2352 44.6728 11.3549 44.1928 10.823C43.7128 10.2728 43.1036 9.99773 42.3652 9.99773C41.6083 9.99773 40.9899 10.2728 40.5099 10.823C40.03 11.3549 39.79 12.2352 39.79 13.464C39.79 14.6745 40.03 15.5548 40.5099 16.105C40.9899 16.6552 41.6083 16.9303 42.3652 16.9303Z" fill="white"/>
<path d="M61.0873 20.5342C60.1827 20.5342 59.352 20.3416 58.5951 19.9565C57.8382 19.553 57.2752 19.0303 56.906 18.3884V20.2316H52.1155V0.836793H57.0444V8.3196C57.4321 7.73271 57.9859 7.26504 58.7059 6.91657C59.4443 6.56811 60.2381 6.39388 61.0873 6.39388C62.2687 6.39388 63.3025 6.67815 64.1886 7.2467C65.0932 7.81524 65.7947 8.63138 66.2931 9.69512C66.7915 10.7405 67.0407 11.9968 67.0407 13.464C67.0407 14.9129 66.7823 16.1692 66.2654 17.2329C65.767 18.2967 65.0655 19.1128 64.1609 19.6814C63.2748 20.2499 62.2503 20.5342 61.0873 20.5342ZM59.5366 16.9303C60.275 16.9303 60.8842 16.6552 61.3642 16.105C61.8441 15.5548 62.0841 14.6745 62.0841 13.464C62.0841 12.2352 61.8441 11.3549 61.3642 10.823C60.8842 10.2728 60.275 9.99773 59.5366 9.99773C58.7797 9.99773 58.1613 10.2728 57.6813 10.823C57.2014 11.3549 56.9614 12.2352 56.9614 13.464C56.9614 14.6745 57.2014 15.5548 57.6813 16.105C58.1613 16.6552 58.7797 16.9303 59.5366 16.9303Z" fill="white"/>
<path d="M74.7142 20.5342C73.4589 20.5342 72.2959 20.4058 71.2252 20.149C70.173 19.8923 69.2777 19.5346 68.5393 19.0761L69.6746 15.9124C70.3576 16.2976 71.1514 16.6185 72.056 16.8753C72.9605 17.1137 73.8558 17.2329 74.7419 17.2329C75.425 17.2329 75.9142 17.1412 76.2095 16.9578C76.5049 16.7561 76.6526 16.4993 76.6526 16.1876C76.6526 15.9124 76.5511 15.7107 76.348 15.5823C76.1634 15.4356 75.8957 15.3256 75.545 15.2522L72.4713 14.757C71.3268 14.5736 70.4407 14.161 69.813 13.519C69.1854 12.8771 68.8715 12.0427 68.8715 11.0156C68.8715 10.0619 69.1392 9.24578 69.6746 8.56719C70.2099 7.87026 70.9576 7.3384 71.9175 6.97159C72.8774 6.58645 73.9758 6.39388 75.2127 6.39388C76.1911 6.39388 77.1602 6.51309 78.1202 6.75151C79.0801 6.97159 79.9201 7.3384 80.64 7.85192L79.4216 10.9606C78.8863 10.5938 78.2217 10.2912 77.4279 10.0527C76.6341 9.79599 75.9234 9.66761 75.2958 9.66761C74.5389 9.66761 74.0035 9.77765 73.6897 9.99773C73.3759 10.1995 73.219 10.4471 73.219 10.7405C73.219 11.2357 73.5605 11.5383 74.2435 11.6483L77.3172 12.171C78.4986 12.3544 79.4032 12.7579 80.0308 13.3815C80.6769 13.9867 81 14.812 81 15.8574C81 17.343 80.4277 18.4984 79.2832 19.3237C78.1386 20.1307 76.6157 20.5342 74.7142 20.5342Z" fill="white"/>
</svg>
