<svg width="25" height="24" viewBox="0 0 25 24" fill="none" xmlns="http://www.w3.org/2000/svg">
<path d="M7.875 2H6.875C3.875 2 2.875 3.79 2.875 6V7V21C2.875 21.83 3.815 22.3 4.475 21.8L6.185 20.52C6.585 20.22 7.145 20.26 7.505 20.62L9.165 22.29C9.555 22.68 10.195 22.68 10.585 22.29L12.265 20.61C12.615 20.26 13.175 20.22 13.565 20.52L15.275 21.8C15.935 22.29 16.875 21.82 16.875 21V4C16.875 2.9 17.775 2 18.875 2H7.875ZM12.125 13.75H7.625C7.215 13.75 6.875 13.41 6.875 13C6.875 12.59 7.215 12.25 7.625 12.25H12.125C12.535 12.25 12.875 12.59 12.875 13C12.875 13.41 12.535 13.75 12.125 13.75ZM12.875 9.75H6.875C6.465 9.75 6.125 9.41 6.125 9C6.125 8.59 6.465 8.25 6.875 8.25H12.875C13.285 8.25 13.625 8.59 13.625 9C13.625 9.41 13.285 9.75 12.875 9.75Z" fill="white"/>
<path d="M18.885 2V3.5C19.545 3.5 20.175 3.77 20.635 4.22C21.115 4.71 21.375 5.34 21.375 6V8.42C21.375 9.16 21.045 9.5 20.295 9.5H18.375V4.01C18.375 3.73 18.605 3.5 18.885 3.5V2ZM18.885 2C17.775 2 16.875 2.9 16.875 4.01V11H20.295C21.875 11 22.875 10 22.875 8.42V6C22.875 4.9 22.425 3.9 21.705 3.17C20.975 2.45 19.985 2.01 18.885 2C18.895 2 18.885 2 18.885 2Z" fill="white"/>
</svg>
