<svg width="487" height="451" viewBox="0 0 487 451" fill="none" xmlns="http://www.w3.org/2000/svg">
<path d="M72.8007 334.162V298.793V255.406C72.8007 244.869 74.2921 235.674 61.6081 234.951C48.9241 234.228 42.884 248.588 21.1398 243.629C9.664 241.012 1.18082e-05 229.373 0 215.737C-2.03956e-05 192.183 25.563 177.972 50.1319 193.423C72.8007 207.679 72.8007 181.026 72.8007 172.349V116.526C72.8007 114.493 74.4488 112.845 76.4817 112.845H158.569C175.481 114.085 165.213 133.3 160.381 145.076C150.717 168.63 163.803 181.853 173.065 185.365C205.681 193.423 213.533 158.712 202.661 145.076C187.796 126.431 191.789 114.705 199.037 114.705H277.825C279.964 114.705 281.667 116.521 281.611 118.659C281.323 129.691 281.785 153.053 281.785 176.068C281.785 208.299 310.777 197.762 310.777 198.381C310.777 199.001 354.22 186.808 357.889 220.695C360.305 243.009 336.749 257.265 310.777 249.207C290 242.76 286.617 250.447 286.617 257.265V334.162C286.617 336.194 284.969 337.842 282.936 337.842H195.669C194.385 337.842 193.184 337.177 192.557 336.056C182.171 317.464 192.425 308.733 198.433 293.835C205.681 275.86 197.759 260.89 185.749 257.265C170.045 252.525 142.261 260.984 153.737 293.835C162.586 319.167 162.193 337.842 147.697 337.842H76.4817C74.4488 337.842 72.8007 336.194 72.8007 334.162Z" fill="black"/>
<path d="M280.357 117.685H349.913C358.381 117.685 373.825 109.967 368.663 78.9917C363.219 46.3287 389.192 46.6006 400.114 50.5616C405.759 52.5798 415.356 61.0913 408.582 78.9917C400.114 101.367 405.558 118.914 423.098 118.914H482.319C484.352 118.914 486 120.562 486 122.595V331.102C486 333.149 484.358 334.803 482.311 334.786C468.777 334.667 422.188 334.303 413.42 334.819C403.138 335.424 404.923 346.644 411.001 360.827C420.073 381.996 410.698 407.826 380.155 402.56C362.614 399.536 355.357 380.786 362.614 360.827C369.872 340.867 361.405 334.819 353.542 334.819C337.567 334.819 300.197 334.617 284.27 334.819" stroke="black" stroke-width="2" stroke-linecap="round"/>
<path d="M289.715 403.163C293.545 409.816 301.449 424.211 302.416 428.566" stroke="black" stroke-width="2" stroke-linecap="round"/>
<path d="M274.59 406.791C272.574 412.234 271.566 428.444 283.663 449.734" stroke="black" stroke-width="2" stroke-linecap="round"/>
<path d="M251.609 403.163C243.746 410.421 227.658 427.356 226.206 437.033" stroke="black" stroke-width="2" stroke-linecap="round"/>
<path d="M277.014 48.1272C284.877 40.8692 300.965 23.9339 302.417 14.2566" stroke="black" stroke-width="2" stroke-linecap="round"/>
<path d="M254.031 44.4978C256.047 39.0543 257.055 22.8448 244.958 1.55477" stroke="black" stroke-width="2" stroke-linecap="round"/>
<path d="M238.91 48.1272C235.08 41.4741 227.176 27.0791 226.209 22.7243" stroke="black" stroke-width="2" stroke-linecap="round"/>
</svg>
