<svg width="366" height="347" viewBox="0 0 366 347" fill="none" xmlns="http://www.w3.org/2000/svg">
<path d="M172.134 314.933C177.011 316.067 190.847 316.838 193.569 308.128" stroke="black" stroke-width="3" stroke-linecap="round"/>
<path d="M179.278 295.879C187.444 303.704 200.373 316.294 207.178 306.086L211.261 299.281" stroke="black" stroke-width="3" stroke-linecap="round"/>
<path d="M179.278 274.785C188.578 283.631 217.113 304.862 229.634 297.241C231.902 295.766 236.507 291.048 236.779 283.971" stroke="black" stroke-width="3" stroke-linecap="round"/>
<path d="M201.733 262.876C213.188 271.835 238.479 287.849 248.006 280.228C257.533 272.607 247.666 262.082 241.541 257.772L200.372 224.428" stroke="black" stroke-width="3" stroke-linecap="round"/>
<path d="M83.3291 230.553C88.4328 233.234 94.0636 240.187 95.918 246.545C98.2999 254.71 104.991 261.742 107.827 263.897" stroke="black" stroke-width="3" stroke-linecap="round"/>
<path d="M185.402 184.962C178.597 182.24 159.543 176.728 144.573 179.177C129.602 181.627 130.963 176.796 123.818 172.713L83.3291 147.875" stroke="black" stroke-width="3" stroke-linecap="round"/>
<path d="M239.842 182.92L254.812 175.094M253.111 271.043C259.372 269.41 269.783 260.155 274.206 255.732L291.559 246.545" stroke="black" stroke-width="3" stroke-linecap="round"/>
<path d="M241.201 219.325C231.221 225.336 206.224 232.73 186.082 216.943" stroke="black" stroke-width="3" stroke-linecap="round"/>
<path d="M186.082 216.944C178.597 227.492 161.04 247.634 150.697 243.823C140.354 240.012 145.026 228.853 148.656 223.749C159.203 202.654 192.207 164.955 239.841 182.92" stroke="black" stroke-width="3" stroke-linecap="round"/>
<path d="M172.812 302.685C172.54 312.756 169.296 317.088 167.709 317.996C159.968 322.419 151.377 315.614 153.774 310.083C155.42 307.019 157.625 300.699 158.522 297.921C160.61 291.457 173.084 292.613 172.812 302.685Z" stroke="black" stroke-width="3" stroke-linecap="round"/>
<path d="M144.573 312.21C133.141 314.66 133.005 303.024 138.109 297.24C139.744 295.386 143.825 291.577 148.996 287.373C154.168 283.168 157.503 286.755 158.523 289.074C159.871 292.136 156.005 309.761 144.573 312.21Z" stroke="black" stroke-width="3" stroke-linecap="round"/>
<path d="M125.52 298.602C112.999 298.33 113.611 287.374 118.715 282.611C122.684 278.414 132.801 270.634 141.511 273.084C150.221 275.534 148.316 283.631 146.275 287.714C144.573 291.457 138.041 298.874 125.52 298.602Z" stroke="black" stroke-width="3" stroke-linecap="round"/>
<path d="M129.604 260.834C116.267 257.568 104.993 265.598 101.024 270.021C98.3018 273.559 98.5287 277.62 98.9823 279.207C102.249 287.373 117.355 281.476 124.501 277.506C131.759 273.31 142.942 264.101 129.604 260.834Z" stroke="black" stroke-width="3" stroke-linecap="round"/>
<path d="M147.976 138.347C150.017 142.884 153.488 154.066 151.038 162.504" stroke="black" stroke-width="3" stroke-linecap="round"/>
<path d="M160.563 146.854C161.131 149.349 162.265 155.36 162.265 159.442" stroke="black" stroke-width="3" stroke-linecap="round"/>
<path d="M203.096 122.695L210.921 150.255" stroke="black" stroke-width="3" stroke-linecap="round"/>
<path d="M225.211 134.945L222.829 151.276" stroke="black" stroke-width="3" stroke-linecap="round"/>
<path d="M246.307 146.854L234.398 156.04" stroke="black" stroke-width="3" stroke-linecap="round"/>
<circle cx="10.8581" cy="176.794" r="10.5475" fill="black"/>
<path d="M28.1944 177.696C46.0377 175.859 74.0356 178.031 77.3447 191.833C80.6538 205.635 68.0175 210.683 61.2858 211.482C35.6564 215.556 1.67285 213.639 1.67285 191.833" stroke="black" stroke-width="3" stroke-linecap="round"/>
<circle cx="21.7476" cy="196.53" r="2.24267" stroke="black" stroke-width="3"/>
<path d="M41.6814 196.53C41.6814 197.648 40.6506 198.772 39.0985 198.772C37.5465 198.772 36.5156 197.648 36.5156 196.53C36.5156 195.411 37.5465 194.287 39.0985 194.287C40.6506 194.287 41.6814 195.411 41.6814 196.53Z" stroke="black" stroke-width="3"/>
<circle cx="56.4507" cy="196.53" r="2.24267" stroke="black" stroke-width="3"/>
<circle cx="306.871" cy="304.046" r="9.86703" fill="black"/>
<path d="M322.911 296.9C328.894 296.9 345.993 296.9 354.036 296.9C360.551 296.9 363.687 298.341 363.687 308.429C363.687 318.23 363.606 330.926 363.687 336.05C363.743 339.653 361.95 343.64 355.966 344.216C349.982 344.793 325.966 344.456 314.707 344.216C310.524 344.216 303.125 341.845 303.125 332.207L303.125 321.399" stroke="black" stroke-width="3" stroke-linecap="round"/>
<path d="M318.776 313.913L333.747 324.12" stroke="black" stroke-width="3" stroke-linecap="round"/>
<path d="M333.748 324.118L360.967 298.94" stroke="black" stroke-width="3" stroke-linecap="round"/>
<path d="M313.333 332.966L324.307 317.996M340.647 317.996L355.523 332.966" stroke="black" stroke-width="3" stroke-linecap="round"/>
<path d="M311.806 137.698L276.421 164.577C231.509 198.941 275.4 237.502 291.731 246.235L343.789 212.891" stroke="black" stroke-width="3" stroke-linecap="round"/>
<path d="M161.176 50.7305C166.279 50.05 177.235 46.1713 180.229 36.1001" stroke="black" stroke-width="3" stroke-linecap="round"/>
<path d="M144.506 42.563C147.908 42.6764 155.734 40.9979 159.817 33.3765" stroke="black" stroke-width="3" stroke-linecap="round"/>
<path d="M129.193 30.3156C134.637 29.185 146.478 25.6639 150.288 20.624" stroke="black" stroke-width="3" stroke-linecap="round"/>
<path d="M178.056 67.9218C145.082 74.9956 114.319 43.4926 100.938 23.98C99.7767 22.2872 100.603 19.9947 102.55 19.3421L153.133 2.37811C154.304 1.98557 155.589 2.31264 156.47 3.17746C173.049 19.4511 201.756 27.4318 219.765 30.3349C222.643 30.7988 223.657 34.6207 221.311 36.3509L179.234 67.3869C178.884 67.6447 178.481 67.8306 178.056 67.9218Z" stroke="black" stroke-width="3" stroke-linecap="round"/>
</svg>
