<svg width="81" height="20" viewBox="0 0 81 20" fill="none" xmlns="http://www.w3.org/2000/svg">
<path d="M7.86411 20C6.3319 20 4.8643 19.8166 3.46132 19.4498C2.05833 19.0646 0.904557 18.5603 0 17.9367L1.41222 14.0028C2.26139 14.5713 3.25825 15.0206 4.40279 15.3508C5.54734 15.6809 6.70111 15.8459 7.86411 15.8459C9.0825 15.8459 9.93167 15.6901 10.4116 15.3783C10.9101 15.0481 11.1593 14.6447 11.1593 14.1678C11.1593 13.746 10.9839 13.4067 10.6332 13.1499C10.3009 12.8932 9.70092 12.6731 8.83328 12.4897L5.59349 11.8019C2.08602 11.05 0.332286 9.22513 0.332286 6.32737C0.332286 5.0619 0.673803 3.95232 1.35684 2.99862C2.05833 2.04493 3.0275 1.31132 4.26434 0.797799C5.50119 0.265933 6.94109 0 8.58407 0C9.93167 0 11.2054 0.192572 12.4054 0.577716C13.6237 0.944521 14.6114 1.44888 15.3682 2.09078L13.956 5.77717C13.2545 5.26364 12.4423 4.86933 11.5193 4.59422C10.5962 4.30078 9.59939 4.15406 8.52868 4.15406C7.4949 4.15406 6.70111 4.33746 6.1473 4.70426C5.59349 5.05273 5.31658 5.51123 5.31658 6.07978C5.31658 6.48326 5.48273 6.81339 5.81501 7.07015C6.1473 7.32691 6.73803 7.547 7.58721 7.7304L10.7993 8.41816C14.3622 9.17011 16.1436 10.9491 16.1436 13.7552C16.1436 15.0206 15.8021 16.121 15.119 17.0564C14.436 17.9917 13.4761 18.7162 12.2392 19.2297C11.0024 19.7432 9.544 20 7.86411 20Z" fill="#393232"/>
<path d="M23.4087 20C21.6365 20 20.3258 19.5232 19.4766 18.5695C18.6459 17.5974 18.2305 16.121 18.2305 14.1403V6.16231H23.1595V14.2779C23.1595 15.5983 23.7317 16.2586 24.8763 16.2586C25.5408 16.2586 26.0854 16.0202 26.51 15.5433C26.9346 15.0665 27.1469 14.4337 27.1469 13.6451V6.16231H32.0758V19.6974H27.2577V18.0193C26.3716 19.3398 25.0886 20 23.4087 20Z" fill="#393232"/>
<path d="M43.9159 20C43.0113 20 42.1806 19.8074 41.4237 19.4223C40.6669 19.0188 40.1038 18.4961 39.7346 17.8542V19.6974H34.9442V0.302613H39.8731V7.78542C40.2607 7.19853 40.8145 6.73086 41.5345 6.38239C42.2729 6.03393 43.0667 5.8597 43.9159 5.8597C45.0974 5.8597 46.1311 6.14397 47.0172 6.71252C47.9218 7.28106 48.6233 8.0972 49.1217 9.16094C49.6201 10.2063 49.8694 11.4626 49.8694 12.9298C49.8694 14.3787 49.6109 15.635 49.094 16.6988C48.5956 17.7625 47.8941 18.5786 46.9895 19.1472C46.1034 19.7157 45.0789 20 43.9159 20ZM42.3652 16.3961C43.1036 16.3961 43.7128 16.121 44.1928 15.5708C44.6728 15.0206 44.9127 14.1403 44.9127 12.9298C44.9127 11.7011 44.6728 10.8207 44.1928 10.2889C43.7128 9.73865 43.1036 9.46355 42.3652 9.46355C41.6083 9.46355 40.9899 9.73865 40.5099 10.2889C40.03 10.8207 39.79 11.7011 39.79 12.9298C39.79 14.1403 40.03 15.0206 40.5099 15.5708C40.9899 16.121 41.6083 16.3961 42.3652 16.3961Z" fill="#393232"/>
<path d="M61.0873 20C60.1827 20 59.352 19.8074 58.5951 19.4223C57.8382 19.0188 57.2752 18.4961 56.906 17.8542V19.6974H52.1155V0.302613H57.0444V7.78542C57.4321 7.19853 57.9859 6.73086 58.7059 6.38239C59.4443 6.03393 60.2381 5.8597 61.0873 5.8597C62.2687 5.8597 63.3025 6.14397 64.1886 6.71252C65.0932 7.28106 65.7947 8.0972 66.2931 9.16094C66.7915 10.2063 67.0407 11.4626 67.0407 12.9298C67.0407 14.3787 66.7823 15.635 66.2654 16.6988C65.767 17.7625 65.0655 18.5786 64.1609 19.1472C63.2748 19.7157 62.2503 20 61.0873 20ZM59.5366 16.3961C60.275 16.3961 60.8842 16.121 61.3642 15.5708C61.8441 15.0206 62.0841 14.1403 62.0841 12.9298C62.0841 11.7011 61.8441 10.8207 61.3642 10.2889C60.8842 9.73865 60.275 9.46355 59.5366 9.46355C58.7797 9.46355 58.1613 9.73865 57.6813 10.2889C57.2014 10.8207 56.9614 11.7011 56.9614 12.9298C56.9614 14.1403 57.2014 15.0206 57.6813 15.5708C58.1613 16.121 58.7797 16.3961 59.5366 16.3961Z" fill="#393232"/>
<path d="M74.7142 20C73.4589 20 72.2959 19.8716 71.2252 19.6149C70.173 19.3581 69.2777 19.0005 68.5393 18.542L69.6746 15.3783C70.3576 15.7634 71.1514 16.0844 72.056 16.3411C72.9605 16.5795 73.8558 16.6988 74.7419 16.6988C75.425 16.6988 75.9142 16.6071 76.2095 16.4237C76.5049 16.2219 76.6526 15.9652 76.6526 15.6534C76.6526 15.3783 76.5511 15.1765 76.348 15.0481C76.1634 14.9014 75.8957 14.7914 75.545 14.718L72.4713 14.2228C71.3268 14.0394 70.4407 13.6268 69.813 12.9849C69.1854 12.343 68.8715 11.5085 68.8715 10.4814C68.8715 9.52774 69.1392 8.7116 69.6746 8.03301C70.2099 7.33608 70.9576 6.80422 71.9175 6.43741C72.8774 6.05227 73.9758 5.8597 75.2127 5.8597C76.1911 5.8597 77.1602 5.97891 78.1202 6.21733C79.0801 6.43741 79.9201 6.80422 80.64 7.31774L79.4216 10.4264C78.8863 10.0596 78.2217 9.75699 77.4279 9.51857C76.6341 9.26181 75.9234 9.13343 75.2958 9.13343C74.5389 9.13343 74.0035 9.24347 73.6897 9.46355C73.3759 9.66529 73.219 9.91288 73.219 10.2063C73.219 10.7015 73.5605 11.0041 74.2435 11.1142L77.3172 11.6369C78.4986 11.8203 79.4032 12.2238 80.0308 12.8473C80.6769 13.4525 81 14.2779 81 15.3232C81 16.8088 80.4277 17.9642 79.2832 18.7895C78.1386 19.5965 76.6157 20 74.7142 20Z" fill="#393232"/>
</svg>
