<svg width="176" height="136" viewBox="0 0 176 136" fill="none" xmlns="http://www.w3.org/2000/svg">
<path d="M21.4146 14.1995L21.2615 14.3355C21.0246 14.5461 20.641 14.3548 20.6414 14.0378C20.6425 13.249 20.5187 12.5076 20.0491 12.925C19.2298 13.6533 18.7746 16.3841 18.2284 15.2918C17.6822 14.1995 17.5002 13.9265 16.4078 14.9277C15.3154 15.929 15.6795 14.1993 15.1333 14.5635C14.818 14.7738 13.9149 15.3758 13.1628 15.8772C12.8967 16.0546 12.5549 15.8109 12.6421 15.5032C13.8716 11.1625 16.5594 4.16725 20.2311 5.1872C23.6904 6.55268 21.8697 23.5758 25.2379 19.2062C26.9922 16.9304 27.2407 8.24589 30.1537 9.55676C35.2076 11.2414 33.8709 25.6211 40.1908 39.8261C40.334 40.1482 40.9274 40.0743 41.1774 39.8258C41.4044 39.6002 41.7263 39.4984 42.17 39.6885C43.4444 40.2347 42.8983 40.7809 44.0817 39.6885C45.2651 38.5961 45.1741 41.3271 45.9023 39.9616C46.6306 38.5961 45.9023 36.6845 47.723 38.0499C49.5436 39.4154 49.9078 40.2347 50.1809 38.9603C50.454 37.6858 50.454 37.8679 51.1822 38.4141C51.8818 38.9388 51.9934 39.5475 52.566 38.5454C52.6133 38.4627 52.6232 38.3667 52.5938 38.2761C51.1479 33.8273 48.0758 23.485 46.9947 16.5663C45.9023 9.57496 43.8086 7.58438 42.8983 7.46301C40.7438 7.34163 35.3608 7.4448 31.064 8.82849" stroke="black" stroke-width="0.870129" stroke-linecap="round"/>
<path d="M78.5069 57.8047C70.8621 60.6137 62.1865 70.2391 84.8633 84.2041" stroke="black" stroke-width="0.870129" stroke-linecap="round"/>
<path d="M97.4948 56.6189C102.584 55.9344 115.996 59.0142 109.2 72.9592C108.38 74.6417 105.4 77.9556 100.04 77.7502C93.169 77.4871 89.4651 84.4804 87.2315 87.8455" stroke="black" stroke-width="0.870129" stroke-linecap="round"/>
<path d="M99.6094 62.1738C94.9328 65.7066 85.8549 77.1994 86.9567 94.9089C88.0584 112.618 88.1617 115.051 88.0755 114.054" stroke="black" stroke-width="0.870129" stroke-linecap="round"/>
<path d="M92.875 80.7451V95.3103" stroke="black" stroke-width="0.870129" stroke-linecap="round"/>
<path d="M82.1328 82.5654V96.4024" stroke="black" stroke-width="0.870129" stroke-linecap="round"/>
<path d="M85.0469 83.8395C84.7312 79.0447 83.0146 65.9964 78.6746 52.1602" stroke="black" stroke-width="0.870129" stroke-linecap="round"/>
<path d="M94.3317 66.9077C94.2731 64.4605 94.9115 58.7053 97.9337 55.2624C101.711 50.9588 102.133 47.5635 102.133 39.5469" stroke="black" stroke-width="0.870129" stroke-linecap="round"/>
<path d="M92.9995 42.7159C94.4273 42.4601 96.8545 40.7547 95.1411 35.9795" stroke="black" stroke-width="0.870129" stroke-linecap="round"/>
<path d="M72.3011 35.2285C72.3556 36.1957 72.9052 38.1689 74.668 38.3236" stroke="black" stroke-width="0.870129" stroke-linecap="round"/>
<path d="M74.668 42.6926C71.2194 40.7584 65.6844 36.0065 71.1331 32.4729C71.8803 31.9532 73.6335 31.6415 74.668 34.5514" stroke="black" stroke-width="0.870129" stroke-linecap="round"/>
<path d="M77.3554 10.9756C58.1105 12.9675 63.9909 27.4885 69.3367 34.5001C70.4288 32.096 72.5783 32.0103 73.5167 32.2677C74.4039 18.737 82.8719 20.5628 86.9951 23.1671C95.5939 22.8237 97.7436 26.2293 97.7436 27.975C101.471 25.6349 104.627 28.3823 104.883 28.9832C114.437 0.960056 90.4357 5.39501 77.3554 10.9756Z" fill="black"/>
<path d="M86.9577 36.5028C87.8124 36.5028 88.5053 35.7691 88.5053 34.8642C88.5053 33.9592 87.8124 33.2256 86.9577 33.2256C86.103 33.2256 85.4102 33.9592 85.4102 34.8642C85.4102 35.7691 86.103 36.5028 86.9577 36.5028Z" fill="black"/>
<path d="M100.363 36.0179C101.062 36.3011 101.904 35.8508 102.244 35.0121C102.584 34.1734 102.293 33.2639 101.594 32.9806C100.895 32.6974 100.053 33.1477 99.7127 33.9864C99.3728 34.8251 99.6638 35.7346 100.363 36.0179Z" fill="black"/>
<path d="M94.332 33.5898H91.2369" stroke="black" stroke-width="0.870129" stroke-linecap="round"/>
<path d="M80.1211 33.2812L74.3035 33.5892" stroke="black" stroke-width="0.870129" stroke-linecap="round"/>
<path d="M79.8867 31.8027L73.4478 32.1508" stroke="black" stroke-width="0.870129" stroke-linecap="round"/>
<path d="M71.0273 63.9951C53.1604 73.8466 32.4877 100.101 62.0465 131.905" stroke="black" stroke-width="0.870129" stroke-linecap="round"/>
<path d="M68.8398 116.612C65.5671 111.275 65.5103 110.279 65.1985 103.503" stroke="black" stroke-width="0.870129" stroke-linecap="round"/>
<path d="M118.91 83.6572C116.187 92.1221 116.816 101.812 117.527 111.422" stroke="black" stroke-width="0.870129" stroke-linecap="round"/>
<path d="M95.6055 49.4297C94.581 48.3306 91.6536 46.7917 88.1408 49.4297" stroke="black" stroke-width="0.870129" stroke-linecap="round"/>
<path d="M120.547 76.3752C120.01 75.1529 115.462 65.4264 110.715 62.9023" stroke="black" stroke-width="0.870129" stroke-linecap="round"/>
<path d="M16.8614 71.4589L16.4062 69.0011L28.2405 64.9046L28.6956 66.4521L35.25 64.3584L35.6141 65.2687L16.8614 71.4589Z" fill="black"/>
<path d="M12.5625 104.027C7.61756 94.0214 3.01012 70.5859 1.20007 59.3491C1.15906 59.0945 1.40156 58.8956 1.64788 58.9721L3.51061 59.5502C3.65515 59.595 3.81211 59.5413 3.8989 59.4174L4.85958 58.045C4.95672 57.9062 5.13965 57.8575 5.29291 57.9296L6.22354 58.3676C6.41118 58.4559 6.63392 58.3615 6.70105 58.1653L7.57396 55.6137C7.65828 55.3672 7.97359 55.2974 8.15416 55.4852L9.73425 57.1285C9.88842 57.2888 10.1514 57.2654 10.2747 57.0803L10.6038 56.5867C10.6961 56.4482 10.8736 56.3945 11.0272 56.4585L11.5256 56.6661C11.7062 56.7414 11.9134 56.653 11.984 56.4705L12.5459 55.019C12.669 54.7009 13.1271 54.7304 13.2052 55.0624C16.2886 68.1653 18.7022 84.4408 23.1234 99.0859C23.2188 99.4019 22.8622 99.663 22.5902 99.476L22.505 99.4174C22.274 99.2586 21.9597 99.424 21.9597 99.7042V99.8021C21.9597 100.071 21.6683 100.238 21.4363 100.103L19.1077 98.7444C18.9002 98.6233 18.6354 98.7439 18.5905 98.9799L18.3864 100.051C18.3493 100.246 18.1576 100.37 17.9648 100.325L17.098 100.121C16.9155 100.078 16.7318 100.187 16.6825 100.368L16.3464 101.6C16.2854 101.824 16.0274 101.927 15.8296 101.806L14.5175 101.007C14.3223 100.889 14.0675 100.987 14.0027 101.206L13.1882 103.963C13.1 104.261 12.7004 104.306 12.5625 104.027Z" stroke="black" stroke-width="0.870129" stroke-linecap="round"/>
<path d="M5.11795 62.8109C5.48208 64.1157 6.02827 66.7617 5.30001 66.9074C4.38969 67.0895 4.75382 64.6316 6.48343 63.7213C8.21305 62.8109 6.84757 65.906 8.03099 65.6329C9.21442 65.3598 10.6709 61.8096 9.85165 61.8096C9.03235 61.8096 8.57719 65.5419 10.762 65.4509C12.9468 65.3598 12.3095 61.3544 11.8544 62.0827C11.3992 62.8109 11.9454 64.5405 13.584 64.9957" stroke="black" stroke-width="0.522078" stroke-linecap="round"/>
<path d="M12.9473 95.4916C12.917 96.3715 13.2204 97.6035 14.6769 95.4916C15.041 95.0364 14.9864 94.4902 14.4038 94.8543C13.6755 95.3095 14.6769 96.766 15.8603 96.1288C17.0437 95.4916 18.5913 93.7619 17.4989 93.944C16.4065 94.1261 17.1348 95.7647 18.5003 95.2185" stroke="black" stroke-width="0.522078" stroke-linecap="round"/>
<path d="M11.0352 91.7595C12.2793 91.6381 15.0042 91.1587 15.9509 90.2119" stroke="black" stroke-width="0.522078" stroke-linecap="round"/>
<path d="M11.8555 88.9377C12.8265 88.8163 14.9142 88.4643 15.4968 88.0273" stroke="black" stroke-width="0.522078" stroke-linecap="round"/>
<path d="M16.7695 87.7542V86.3887" stroke="black" stroke-width="0.522078" stroke-linecap="round"/>
<path d="M17.7734 87.7544V86.2979" stroke="black" stroke-width="0.522078" stroke-linecap="round"/>
<path d="M9.125 82.2919C10.9457 81.8671 14.7144 80.9446 15.2242 80.6533" stroke="black" stroke-width="0.522078" stroke-linecap="round"/>
<path d="M7.30469 76.4664C8.8219 76.1629 12.2569 75.3558 13.859 74.5547" stroke="black" stroke-width="0.522078" stroke-linecap="round"/>
<path d="M6.9375 75.2826C8.57609 75.2826 11.9989 74.3358 13.3098 73.4619" stroke="black" stroke-width="0.522078" stroke-linecap="round"/>
<path d="M18.5898 79.1064L37.509 72.6547C37.9683 72.4981 38.2107 71.9962 38.0478 71.5391L35.5219 64.4502" stroke="black" stroke-width="0.870129" stroke-linecap="round"/>
<path d="M15.5859 65.1776L27.056 61.4453" stroke="black" stroke-width="0.870129" stroke-linecap="round"/>
<path d="M28.3438 65.5278L24.7671 54.0826C24.6239 53.6242 24.8792 53.1363 25.3375 52.9927L43.4378 47.3207C43.8939 47.1778 44.38 47.4296 44.5263 47.8846L48.1817 59.2479C48.3293 59.7069 48.0756 60.1985 47.6159 60.344L29.4369 66.0979C28.9775 66.2433 28.4875 65.9877 28.3438 65.5278Z" stroke="black" stroke-width="0.870129" stroke-linecap="round"/>
<path d="M18.2266 74.2806C18.621 73.7344 19.5738 72.6785 20.2293 72.8241C21.0486 73.0062 21.3217 73.0062 22.141 72.0049C22.9603 71.0035 23.1423 72.7331 24.5078 72.0049C25.8733 71.2766 27.3298 69.9111 28.0581 70.6394C28.6407 71.222 29.2718 70.3966 29.5146 69.9111" stroke="black" stroke-width="0.522078" stroke-linecap="round"/>
<path d="M28.5937 60.3639C28.4572 59.9008 28.2731 59.3177 28.1054 58.881C28.0021 58.6118 28.179 58.1249 28.4518 58.0315L30.9232 57.186C31.1019 57.1249 31.2967 57.2174 31.3623 57.3945L32.0308 59.1994C32.0987 59.3828 32.0021 59.5862 31.817 59.6496L29.044 60.5982C28.8548 60.663 28.6503 60.5557 28.5937 60.3639Z" stroke="black" stroke-width="0.522078"/>
<path d="M41.6211 60.4446L42.1673 57.8047" stroke="black" stroke-width="0.522078" stroke-linecap="round"/>
<path d="M42.8984 58.8962C43.4446 58.623 44.537 59.2607 43.8998 59.5335C43.6487 59.6409 42.8074 58.259 45.2653 58.35" stroke="black" stroke-width="0.522078" stroke-linecap="round"/>
<path d="M38.7109 59.9929C39.2571 59.7197 40.3495 60.3573 39.7123 60.6301C39.4612 60.7376 38.6199 59.3557 41.0778 59.4467" stroke="black" stroke-width="0.522078" stroke-linecap="round"/>
<path d="M19.4102 5.00527C22.1411 4.09495 28.3315 2.45579 31.2444 3.18462C32.7919 3.57183 34.4002 6.76527 34.1574 8.10043" stroke="black" stroke-width="0.870129" stroke-linecap="round"/>
<path d="M23.2344 6.0973C25.5102 6.09727 28.9148 4.54974 29.7887 4.91387" stroke="black" stroke-width="0.522078" stroke-linecap="round"/>
<path d="M23.3242 7.18983C24.3559 7.18983 26.6742 6.98956 27.6938 6.18848" stroke="black" stroke-width="0.522078" stroke-linecap="round"/>
<path d="M35.4336 12.6527C37.8308 12.4403 42.789 11.9427 43.4445 11.6514" stroke="black" stroke-width="0.522078" stroke-linecap="round"/>
<path d="M36.0703 14.0183C38.1337 13.6541 42.6611 12.9441 44.2632 13.0169" stroke="black" stroke-width="0.522078" stroke-linecap="round"/>
<path d="M36.3438 18.3875C38.2554 18.6607 42.8253 17.1677 43.2622 17.3862" stroke="black" stroke-width="0.522078" stroke-linecap="round"/>
<path d="M36.4336 19.7526C39.2556 19.7524 42.7148 17.7496 45.1727 18.2051" stroke="black" stroke-width="0.522078" stroke-linecap="round"/>
<path d="M131.206 15.0377L131.657 13.4279C131.707 13.249 131.889 13.141 132.07 13.1825L147.655 16.7522C147.86 16.7991 147.977 17.0154 147.904 17.2124L147.239 19.0078C147.177 19.1735 147.002 19.267 146.83 19.225L131.459 15.4696C131.268 15.4229 131.153 15.2272 131.206 15.0377Z" fill="black"/>
<path d="M133.111 10.1035L148.575 13.4355C149.103 13.5494 149.401 14.1129 149.198 14.6139L144.322 26.6034C144.158 27.0072 143.72 27.2272 143.298 27.118L128.195 23.2122" stroke="black" stroke-width="0.870129" stroke-linecap="round"/>
<path d="M134.475 5.46104C133.094 7.13292 129.21 20.5224 126.661 26.4564C126.651 26.4792 126.638 26.5011 126.624 26.5211C125.279 28.3801 125.095 26.483 124.462 25.3061C123.825 24.1225 121.094 26.7626 119.91 27.1267C118.727 27.4908 120.092 24.7599 118.272 25.3061C116.451 25.8522 116.451 25.124 116.36 24.3957C116.303 23.9394 115.2 24.3468 114.301 24.7781C114.033 24.9068 113.723 24.6752 113.788 24.3851C115.585 16.3205 119.792 6.50944 121.9 2.13004C121.999 1.92575 122.262 1.87763 122.464 1.98036C123.418 2.46482 124.004 1.42793 124.917 1.09153C126.647 0.454145 125.463 3.36735 127.011 3.00316C128.558 2.63898 128.831 3.00316 129.013 3.36735C129.195 3.73153 130.015 3.54936 131.016 2.45697C132.017 1.36458 132.473 1.54664 132.655 3.00316C132.837 4.45969 134.02 2.91213 134.657 3.54936C135.167 4.05914 134.748 5.03623 134.475 5.46104Z" stroke="black" stroke-width="0.870129" stroke-linecap="round"/>
<path d="M118.82 17.1133C121.733 18.0236 127.414 17.7141 127.924 18.2967" stroke="black" stroke-width="0.522078" stroke-linecap="round"/>
<path d="M122.914 19.2067C123.46 19.0854 124.771 18.9154 125.645 19.2067" stroke="black" stroke-width="0.522078" stroke-linecap="round"/>
<path d="M120.457 12.1973L126.465 12.6524" stroke="black" stroke-width="0.522078" stroke-linecap="round"/>
<path d="M121.457 10.6494C123.49 10.8011 127.829 11.1956 128.922 11.5597" stroke="black" stroke-width="0.522078" stroke-linecap="round"/>
<path d="M122.367 21.2097L123.278 20.4814" stroke="black" stroke-width="0.522078" stroke-linecap="round"/>
<path d="M124.552 20.6641L124.188 21.6654" stroke="black" stroke-width="0.522078" stroke-linecap="round"/>
<path d="M125.646 21.0273L125.555 21.6646" stroke="black" stroke-width="0.522078" stroke-linecap="round"/>
<path d="M126.738 20.9365V21.5738" stroke="black" stroke-width="0.522078" stroke-linecap="round"/>
<path d="M123.008 5.36993C122.461 5.94647 121.569 7.04493 122.37 6.82645C123.288 6.57617 124.894 5.25554 125.016 6.57801C125.036 6.7982 124.766 6.98548 124.64 6.80401C124.546 6.66937 124.707 6.50545 125.556 6.37129C127.286 6.09819 125.83 7.00852 127.468 6.82645C129.107 6.64439 130.29 4.36857 129.653 5.0058C129.016 5.64303 128.287 7.37259 130.017 7.28156C131.747 7.19053 132.02 5.09678 131.474 6.18917C130.927 7.28156 131.474 7.19053 131.474 7.55466" stroke="black" stroke-width="0.522078" stroke-linecap="round"/>
<path d="M130.016 18.2054C130.349 18.0233 131.326 17.9687 132.565 19.2068C134.112 20.7543 136.297 18.7516 136.934 19.6619C137.571 20.5722 137.48 20.6633 138.3 20.3902" stroke="black" stroke-width="0.522078" stroke-linecap="round"/>
<path d="M121.269 126.211L121.484 124.706C121.52 124.449 121.741 124.258 122.001 124.258H141.61C141.928 124.258 142.172 124.539 142.127 124.854L141.912 126.358C141.875 126.616 141.655 126.807 141.395 126.807H121.786C121.468 126.807 121.224 126.525 121.269 126.211Z" fill="black"/>
<path d="M142.504 121.567L140.903 134.542C140.871 134.804 140.648 135 140.385 135H120.598C120.282 135 120.038 134.721 120.081 134.408L121.85 121.433C121.885 121.174 122.106 120.981 122.367 120.981H141.986C142.299 120.981 142.542 121.256 142.504 121.567Z" stroke="black" stroke-width="0.522078" stroke-linecap="round"/>
<path d="M122.461 130.176C123.068 129.629 124.5 128.701 125.374 129.356C126.466 130.176 127.286 128.719 128.287 129.629C129.288 130.54 131.928 128.537 133.021 129.629C133.895 130.503 134.841 129.994 135.205 129.629" stroke="black" stroke-width="0.522078" stroke-linecap="round"/>
<path d="M125.464 120.708L126.512 113.048C126.584 112.525 126.178 112.06 125.65 112.06H106.739C106.306 112.06 105.938 112.379 105.878 112.808L104.123 125.253C104.048 125.782 104.464 126.253 104.998 126.244L121.095 125.988" stroke="black" stroke-width="0.870129" stroke-linecap="round"/>
<path d="M106.846 120.412L107.038 118.741C107.059 118.565 107.207 118.433 107.384 118.433H110.294C110.512 118.433 110.677 118.632 110.636 118.846L110.314 120.517C110.283 120.681 110.139 120.799 109.973 120.799H107.191C106.983 120.799 106.822 120.618 106.846 120.412Z" stroke="black" stroke-width="0.522078" stroke-linecap="round"/>
<path d="M118 124.258L119.73 122.073" stroke="black" stroke-width="0.522078" stroke-linecap="round"/>
<path d="M114.812 123.348C115.086 123.045 115.796 122.529 116.451 122.893C117.27 123.348 117.088 124.258 116.178 124.076C115.268 123.894 116.087 122.711 117.999 123.257" stroke="black" stroke-width="0.522078" stroke-linecap="round"/>
<path d="M120.094 123.257C120.367 123.5 121.022 123.803 121.459 123.075" stroke="black" stroke-width="0.522078" stroke-linecap="round"/>
<path d="M134.223 70.1846C133.726 70.8638 133.829 72.6158 138.207 74.19" stroke="black" stroke-width="0.870129" stroke-linecap="round"/>
<path d="M139.541 69.0919C138.243 69.0882 136.985 69.0029 134.037 68.0424C133.342 67.8238 132.863 67.2808 132.71 67.0366C132.159 66.0826 133.255 65.24 134.242 65.2693C135.318 65.3015 137.426 65.4305 139.938 65.7142" stroke="black" stroke-width="0.870129" stroke-linecap="round"/>
<path d="M139.484 69.0524C138.186 69.0487 136.927 68.9632 133.978 68C133.305 68.2433 133.218 69.4014 134.283 70.1243C134.956 70.5826 136.174 71.1446 138.186 71.8234" stroke="black" stroke-width="0.870129" stroke-linecap="round"/>
<path d="M117.18 104.868C122.399 109.086 132.414 108.779 136.57 97.7679C140.211 88.1185 141.485 79.7738 141.667 75.8291" stroke="black" stroke-width="0.870129" stroke-linecap="round"/>
<path d="M121.73 97.0398C121.822 96.4936 123.642 88.7558 126.555 85.8428" stroke="black" stroke-width="0.870129" stroke-linecap="round"/>
<path d="M141.578 75.1004C142.337 73.037 143.399 68.2366 141.578 65.542" stroke="black" stroke-width="0.870129" stroke-linecap="round"/>
<path d="M136.022 73.4624L135.689 83.5203C135.676 83.9334 135.21 84.1676 134.87 83.9323L134.846 83.9156C134.633 83.7678 134.343 83.7993 134.167 83.9896L133.647 84.549C133.451 84.7607 133.119 84.7725 132.908 84.5754L132.27 83.98C132.074 83.7972 131.772 83.7923 131.57 83.9688L130.714 84.7185C130.564 84.8496 130.353 84.8841 130.169 84.8075L128.56 84.137C128.389 84.0659 128.193 84.0903 128.045 84.2012L126.501 85.3595C126.277 85.5278 125.96 85.4887 125.783 85.271L125.256 84.6226C125.07 84.3937 124.731 84.3642 124.509 84.5572L124.228 84.8002C123.926 85.0623 123.458 84.9132 123.393 84.5182C121.109 70.6476 125.848 35.4527 143.669 38.2328C146.733 38.688 152.59 42.5659 151.498 54.4365C150.429 66.0515 153.049 69.3753 154.584 69.6268C154.65 69.6376 154.722 69.664 154.781 69.6327C154.919 69.5598 155.116 69.2114 155.23 68.1824C155.41 66.5594 156.573 56.3617 160.753 61.3889C160.829 61.4797 160.874 61.6014 160.874 61.7196V74.017C160.874 74.3967 161.266 74.6494 161.612 74.4923L162.65 74.0206C162.793 73.9554 162.959 73.9584 163.099 74.0289L164.433 74.6956C164.597 74.7776 164.792 74.7676 164.947 74.6691L168.264 72.5579C168.507 72.4036 168.828 72.4743 168.984 72.716L170.068 74.402C170.22 74.6393 170.533 74.7125 170.775 74.5674L172.222 73.6994C172.433 73.5726 172.708 73.6566 172.812 73.8798V73.8798C172.971 74.2205 173.458 74.1907 173.562 73.8296C174.64 70.0994 175.834 63.424 173.71 60.1716C172.996 59.0792 162.968 58.1385 159.053 59.3523" stroke="black" stroke-width="0.870129" stroke-linecap="round"/>
<path d="M143.762 38.1416C147.919 38.2023 157.517 37.9911 160.603 40.2354C165.61 43.8767 162.788 56.5302 164.517 58.6239" stroke="black" stroke-width="0.870129" stroke-linecap="round"/>
<path d="M137.207 63.3571C138.087 57.9255 140.757 47.6085 149.678 42.9658" stroke="black" stroke-width="0.870129" stroke-linecap="round"/>
<path d="M151.953 41.4189C153.986 41.4189 158.344 41.51 159.509 41.8741" stroke="black" stroke-width="0.522078" stroke-linecap="round"/>
<path d="M152.863 42.9658C156.414 42.9658 160.601 43.8215 160.965 43.603" stroke="black" stroke-width="0.522078" stroke-linecap="round"/>
<path d="M153.594 48.7012L161.332 48.9743" stroke="black" stroke-width="0.522078" stroke-linecap="round"/>
<path d="M154.32 50.1572C155.838 50.3393 159.018 50.5942 159.6 50.1572" stroke="black" stroke-width="0.522078" stroke-linecap="round"/>
<path d="M153.594 55.7109L160.239 55.984" stroke="black" stroke-width="0.522078" stroke-linecap="round"/>
<path d="M154.504 56.8936C155.445 57.0149 157.417 57.1849 157.781 56.8936" stroke="black" stroke-width="0.522078" stroke-linecap="round"/>
<path d="M164.606 62.2646C164.788 63.8122 165.043 66.9255 164.606 66.9983C164.06 67.0894 166.245 63.5391 166.882 64.2674C167.519 64.9956 164.97 68.819 167.975 66.9983C168.794 66.3308 170.214 64.7225 169.34 63.6301C168.248 62.2646 168.43 67.7266 169.067 66.9983C169.704 66.2701 171.525 62.9929 172.071 64.9046C172.617 66.8163 170.432 66.8163 171.161 66.088C171.889 65.3598 172.799 64.9046 173.345 66.088" stroke="black" stroke-width="0.522078" stroke-linecap="round"/>
<path d="M80.9912 38.2421C88.758 42.6802 91.1618 35.4783 91.2561 30.9462C91.2602 30.7485 91.0943 30.5927 90.8967 30.6019L80.4528 31.0915C80.2672 31.1002 80.1211 31.2533 80.1211 31.4392V33.4564" stroke="black" stroke-width="0.870129" stroke-linecap="round"/>
<path d="M102.57 38.8512C95.625 40.1216 94.2585 35.3467 94.2173 30.9456C94.2155 30.7485 94.3804 30.5919 94.5773 30.6002L104.126 31.0049C104.322 31.0132 104.473 31.1817 104.459 31.3774L104.31 33.4564" stroke="black" stroke-width="0.870129" stroke-linecap="round"/>
</svg>
