<svg width="486" height="318" viewBox="0 0 486 318" fill="none" xmlns="http://www.w3.org/2000/svg">
<path d="M337.38 296.741C308.2 286.647 325.587 203.881 339.108 173.917C359.484 192.984 395.937 184.759 398.741 177.095C399.584 181.616 402.283 201.866 414.106 219.781C425.929 237.696 441.268 247.013 443.979 254.791C450.582 273.716 436.118 283.493 428.885 285.701C403.478 291.505 382.032 262.887 374.486 247.852C363.668 292.262 345.242 298.948 337.38 296.741Z" fill="black"/>
<path d="M331.904 292.25C332.12 295.526 330.634 306.516 322.063 300.492C319.949 298.379 314.953 294.913 311.905 297.956C308.858 301 314.87 306.622 318.254 309.053C321.746 311.801 330.316 316.471 336.665 313.174C343.014 309.877 342.912 301.232 342.061 297.322" stroke="black" stroke-width="1.71751" stroke-linecap="round"/>
<path d="M435.929 280.772C438.144 281.829 442.575 284.766 442.575 288.063C440.043 291.655 435.992 300.488 440.043 307.081C444.095 313.675 451.438 298.629 454.603 290.282C456.186 285.527 456.375 275.003 444.475 270.946" stroke="black" stroke-width="1.71751" stroke-linecap="round"/>
<path d="M341.352 310.948C342.709 313.548 348.043 317.375 358.55 311.884" stroke="black" stroke-width="1.71751" stroke-linecap="round"/>
<path d="M348.444 306.454C351.461 309.179 359.533 313.662 369.755 309.829" stroke="black" stroke-width="1.71751" stroke-linecap="round"/>
<path d="M363.035 304.59C366.819 308.965 377.351 316.026 389.206 309.277" stroke="black" stroke-width="1.71751" stroke-linecap="round"/>
<path d="M379.477 302.348C380.419 306.222 393.18 314.488 436.679 316.555" stroke="black" stroke-width="1.71751" stroke-linecap="round"/>
<path d="M376.384 143.827C393.695 138.853 407.315 123.151 411.961 115.922C417.15 108.15 412.986 90.7742 354.811 83.4463" stroke="black" stroke-width="1.71751" stroke-linecap="round"/>
<path d="M376.48 143.827C375.422 142.406 372.642 139.836 369.377 139.714" stroke="black" stroke-width="1.71751" stroke-linecap="round"/>
<path d="M369.387 139.7C369.484 135.641 372.909 125.171 385.838 115.772" stroke="black" stroke-width="1.71751" stroke-linecap="round"/>
<path d="M370.147 113.667C368.806 111.495 364.683 106.883 358.931 105.816" stroke="black" stroke-width="1.71751" stroke-linecap="round"/>
<path d="M357.571 146.07C354.625 145.926 348.472 145.493 347.428 144.917C346.124 144.197 345.834 144.197 345.834 142.756C345.834 141.315 357.571 143.765 357.571 139.154C356.508 138.098 354.789 135.726 356.412 134.688C358.035 133.651 361.435 136.657 362.932 138.29C364.478 139.923 367.946 142.497 369.453 139.731" stroke="black" stroke-width="1.71751" stroke-linecap="round"/>
<path d="M376.117 143.761C374.813 147.555 370.118 154.364 361.772 151.252C353.426 148.141 353.078 146.498 353.948 146.066" stroke="black" stroke-width="1.71751" stroke-linecap="round"/>
<path d="M318.072 140.144C316.044 139.589 311.611 137.011 310.104 131.13C308.598 125.249 310.636 125.22 311.843 125.941" stroke="black" stroke-width="1.71751" stroke-linecap="round"/>
<path d="M325.611 135.885C324.984 132.618 322.772 126.315 318.947 127.237" stroke="black" stroke-width="1.71751" stroke-linecap="round"/>
<path d="M324.016 130.55C326.681 128.359 328.314 133.385 328.797 136.172C331.81 137.094 332.95 141.457 333.143 143.523C326.169 144.238 321.214 142.365 318.076 140.141C316.154 138.779 314.914 137.285 314.309 136.172C312.812 132.184 310.629 123.862 313.875 122.478C317.12 121.095 318.028 124.208 318.076 125.937C317.728 129.858 319.766 134.202 320.828 135.883" stroke="black" stroke-width="1.71751" stroke-linecap="round"/>
<path d="M392.576 147.698C398.501 155.695 406.222 177.474 392.576 182.094C373.197 187.809 333.13 188.93 327.896 147.698" stroke="black" stroke-width="1.71751" stroke-linecap="round"/>
<path d="M309.016 134.28L262.976 131.5C261.056 131.384 259.414 132.868 259.337 134.791L258.581 153.559C258.503 155.491 256.846 156.979 254.917 156.848L242.44 156.004C240.582 155.878 239.163 154.295 239.24 152.435L239.709 141.041C239.787 139.16 238.335 137.567 236.455 137.469L232.419 137.261C230.532 137.163 228.92 138.608 228.812 140.495L228.45 146.831C228.344 148.689 226.777 150.125 224.917 150.068L219.469 149.903C217.529 149.845 216.023 148.191 216.145 146.254L217.011 132.515C217.132 130.605 215.669 128.966 213.759 128.868L206.096 128.475C204.195 128.377 202.736 126.753 202.842 124.852L203.764 108.38C203.871 106.478 205.505 105.026 207.406 105.144L258.439 108.296L383.23 116.708" stroke="black" stroke-width="1.71751" stroke-linecap="round"/>
<path d="M330.202 87.1992C327.729 85.6772 309.126 87.1443 305.509 63.7431C299.317 63.8156 295.95 58.7432 300.674 56.5725C305.711 53.9752 305.333 49.2068 304.421 46.3972C302.97 42.7126 302.882 38.8441 303.195 38.0349" stroke="black" stroke-width="1.71751" stroke-linecap="round"/>
<path d="M310.96 55.3012C310.257 55.3094 309.678 54.4617 309.665 53.4077C309.653 52.3537 310.213 51.4926 310.915 51.4844C311.618 51.4762 312.198 52.3239 312.21 53.3779C312.222 54.4318 311.663 55.2929 310.96 55.3012Z" fill="black"/>
<path d="M314.432 47.5749C313.399 46.4704 310.727 44.855 308.306 47.2279" stroke="black" stroke-width="1.71751" stroke-linecap="round"/>
<path d="M321.432 69.0759C319.533 71.9978 317.448 72.8274 313.399 70.9419" stroke="black" stroke-width="1.71751" stroke-linecap="round"/>
<path d="M336.976 48.5969C337.417 49.563 337.785 51.7562 335.74 52.8" stroke="black" stroke-width="1.71751" stroke-linecap="round"/>
<path d="M358.789 38.6837C361.198 51.8648 353.66 61.787 348.196 69.4148C342.359 66.2616 332.793 58.7631 336.462 57.9537C340.318 57.1031 344.385 46.5848 340.64 43.3672C336.247 39.5921 332.286 45.3039 331.532 49.635L327.993 43.5153C328.994 39.235 329.386 31.7267 322.95 35.9359C316.515 40.1451 307.075 39.0425 303.159 37.965C295.439 32.4389 283.444 19.5491 297.228 12.1984C308.693 6.08459 323.612 13.814 332.719 20.7594C338.885 19.1315 355.504 20.7118 358.789 38.6837Z" fill="black"/>
<path d="M347.771 68.5276C344.984 71.8827 343.599 74.6689 343.772 80.4404" stroke="black" stroke-width="1.71751" stroke-linecap="round"/>
<path d="M350.865 88.1632C351.841 84.7594 352.412 78.2675 346.893 79.5293C339.995 81.1063 325.934 87.928 326.964 91.7094" stroke="black" stroke-width="1.71751" stroke-linecap="round"/>
<path d="M326.948 97.032C321.901 101.705 320.779 104.696 320.032 110.305" stroke="black" stroke-width="1.71751" stroke-linecap="round"/>
<path d="M119.505 191.523C123.926 199.137 140.074 210.297 169.594 195.022C170.112 194.754 170.734 195.197 170.625 195.77C167.556 211.852 167.256 238.391 204.935 248.352C221.199 252.652 236.154 244.24 224.19 234.145C207.909 220.408 178.951 265.924 195.775 293.778" stroke="black" stroke-width="1.71751" stroke-linecap="round"/>
<path d="M46.4188 74.2854C45.7675 54.6671 50.3271 13.5619 82.0815 14.8698C91.3635 15.4304 105.401 26.753 106.182 56.3487" stroke="black" stroke-width="1.71751" stroke-linecap="round"/>
<path d="M31.0839 78.0182C30.4336 55.843 37.0595 4.47564 71.8882 1.21477C107.815 -2.14895 116.486 34.789 117.407 56.7151" stroke="black" stroke-width="1.71751" stroke-linecap="round"/>
<path d="M54.208 68.1148L98.3252 56.5247" stroke="black" stroke-width="1.71751" stroke-linecap="round"/>
<path d="M25.8534 76.5242C20.7438 77.4589 9.36554 81.3845 4.72949 89.6098" stroke="black" stroke-width="1.71751" stroke-linecap="round"/>
<path d="M3.98511 89.043C17.1455 81.2664 21.3703 96.0221 22.8658 102.503V191.485C22.8658 210.926 28.4739 209.992 34.0419 214.91C18.3391 209.488 10.1539 201.953 7.30975 198.272C-0.419429 188.269 0.393139 114.898 0.0192639 106.86C-0.279836 100.429 2.98811 91.224 3.98511 89.043Z" fill="black"/>
<path d="M120.718 65.0242L35.9294 89.7497C28.6009 91.8868 23.5625 98.6043 23.5625 106.238V200.121C23.5625 212.379 36.0359 220.691 47.3498 215.972L132.138 180.603C138.535 177.935 142.701 171.683 142.701 164.752V81.5125C142.701 70.0628 131.709 61.8188 120.718 65.0242Z" stroke="black" stroke-width="1.71751" stroke-linecap="round"/>
<path d="M87.31 123.12C96.1839 108.617 86.8874 101.466 81.1299 99.7031C100.526 96.5304 97.1347 114.496 93.0146 123.876L105.058 155.413L95.2998 150.827C94.3561 150.384 93.665 149.536 93.4211 148.522L87.31 123.12Z" fill="black"/>
<path d="M73.2822 164.38L81.7884 126.279C70.7619 123.814 70.5842 100.709 81.7884 99.1716C99.7457 96.7074 97.698 115.663 92.9723 123.814L104.314 155.282L73.2822 164.38Z" stroke="black" stroke-width="1.71751"/>
<path d="M5.11595 254.887C-4.45524 251.149 2.8727 246.475 7.73307 244.606L91.2941 218.622C97.8993 216.752 113.54 214.359 123.26 219.743C135.411 226.473 121.952 229.838 119.522 231.707C117.091 233.576 65.8707 254.887 48.2985 260.682C30.7264 266.477 17.0799 259.561 5.11595 254.887Z" fill="black"/>
<path d="M482.95 132.616C482.352 144.458 478.542 154.977 472.911 162.411C467.276 169.849 459.884 174.129 452.085 173.735C444.286 173.341 437.362 168.339 432.505 160.371C427.651 152.407 424.92 141.559 425.518 129.716C426.116 117.874 429.925 107.355 435.557 99.9214C441.192 92.4831 448.584 88.2031 456.383 88.5968C464.182 88.9906 471.106 93.9934 475.963 101.961C480.817 109.925 483.548 120.773 482.95 132.616Z" stroke="black" stroke-width="1.71751"/>
<path d="M470.897 131.92C470.547 138.849 468.318 144.987 465.042 149.311C461.763 153.64 457.501 156.081 453.048 155.856C448.596 155.631 444.601 152.773 441.774 148.136C438.951 143.504 437.352 137.173 437.701 130.244C438.051 123.316 440.28 117.178 443.556 112.853C446.835 108.525 451.097 106.083 455.55 106.308C460.002 106.533 463.997 109.391 466.823 114.028C469.647 118.66 471.246 124.992 470.897 131.92Z" stroke="black" stroke-width="1.71751"/>
<path d="M410.32 120.452L427.145 121.387" stroke="black" stroke-width="1.71751" stroke-linecap="round"/>
<path d="M332.949 138.03L356.316 139.713" stroke="black" stroke-width="1.71751" stroke-linecap="round"/>
<path d="M384.718 141.575L426.966 143.258" stroke="black" stroke-width="1.71751" stroke-linecap="round"/>
</svg>
