<svg width="259" height="241" viewBox="0 0 259 241" fill="none" xmlns="http://www.w3.org/2000/svg">
<path d="M38.4741 177.722V159.085V136.155C38.4741 130.587 39.2622 125.728 32.5589 125.346C25.8556 124.963 22.6636 132.552 11.1721 129.932C5.10728 128.549 6.24044e-06 122.398 0 115.191C-1.07787e-05 102.743 13.5097 95.2329 26.4939 103.398C38.4741 110.933 38.4741 96.8471 38.4741 92.2611V62.8145C38.4741 61.7099 39.3695 60.8145 40.4741 60.8145H83.8012C92.7389 61.4696 87.3125 71.6242 84.7588 77.8481C79.6515 90.2957 86.5676 97.2839 91.4621 99.1401C108.699 103.398 112.849 85.0546 107.103 77.8481C99.2471 67.9945 101.357 61.7972 105.188 61.7972H146.768C147.93 61.7972 148.855 62.7824 148.826 63.944C148.677 69.7972 148.919 82.1028 148.919 94.2265C148.919 111.26 164.241 105.691 164.241 106.019C164.241 106.347 187.2 99.9025 189.139 117.812C190.416 129.604 177.967 137.138 164.241 132.879C153.26 129.473 151.473 133.535 151.473 137.138V177.722C151.473 178.827 150.577 179.722 149.473 179.722H103.439C102.741 179.722 102.088 179.361 101.749 178.751C96.2844 168.944 101.697 164.331 104.869 156.465C108.699 146.965 104.513 139.054 98.1654 137.138C89.8661 134.633 75.1826 139.104 81.2476 156.465C85.9244 169.852 85.7164 179.722 78.0555 179.722H40.4741C39.3695 179.722 38.4741 178.827 38.4741 177.722Z" fill="black"/>
<path d="M148.165 63.3718H184.924C189.399 63.3718 197.561 59.2933 194.833 42.9232C191.956 25.6613 205.682 25.805 211.454 27.8983C214.438 28.9649 219.509 33.4631 215.929 42.9232C211.454 54.7483 214.331 64.0214 223.601 64.0214H254.844C255.948 64.0214 256.844 64.9168 256.844 66.0214V176.105C256.844 177.217 255.948 178.115 254.836 178.106C247.61 178.043 223.108 177.852 218.486 178.124C213.053 178.444 213.996 184.373 217.208 191.869C222.003 203.056 217.048 216.707 200.906 213.924C191.636 212.326 187.801 202.417 191.636 191.869C195.472 181.32 190.997 178.124 186.842 178.124C178.399 178.124 158.65 178.017 150.233 178.124" stroke="black" stroke-width="4" stroke-linecap="round"/>
<path d="M153.11 214.244C155.134 217.76 159.311 225.367 159.822 227.669" stroke="black" stroke-width="4" stroke-linecap="round"/>
<path d="M145.118 216.161C144.053 219.038 143.52 227.605 149.913 238.856" stroke="black" stroke-width="4" stroke-linecap="round"/>
<path d="M132.972 214.244C128.817 218.079 120.314 227.029 119.547 232.144" stroke="black" stroke-width="4" stroke-linecap="round"/>
<path d="M146.397 26.6125C150.552 22.7768 159.055 13.8268 159.822 8.71248" stroke="black" stroke-width="4" stroke-linecap="round"/>
<path d="M134.25 24.6948C135.316 21.818 135.849 13.2516 129.456 2.00009" stroke="black" stroke-width="4" stroke-linecap="round"/>
<path d="M126.26 26.6125C124.235 23.0965 120.058 15.4889 119.547 13.1875" stroke="black" stroke-width="4" stroke-linecap="round"/>
</svg>
