<svg width="21" height="21" viewBox="0 0 21 21" fill="none" xmlns="http://www.w3.org/2000/svg">
<path d="M14.69 0.754761H6.31C2.67 0.754761 0.5 2.92476 0.5 6.56476V14.9348C0.5 18.5848 2.67 20.7548 6.31 20.7548H14.68C18.32 20.7548 20.49 18.5848 20.49 14.9448V6.56476C20.5 2.92476 18.33 0.754761 14.69 0.754761ZM15.75 11.0848C15.75 11.4948 15.41 11.8348 15 11.8348C14.59 11.8348 14.25 11.4948 14.25 11.0848V8.06476L6.53 15.7848C6.38 15.9348 6.19 16.0048 6 16.0048C5.81 16.0048 5.62 15.9348 5.47 15.7848C5.18 15.4948 5.18 15.0148 5.47 14.7248L13.19 7.00476H10.17C9.76 7.00476 9.42 6.66476 9.42 6.25476C9.42 5.84476 9.76 5.50476 10.17 5.50476H15C15.41 5.50476 15.75 5.84476 15.75 6.25476V11.0848Z" fill="#292D32"/>
</svg>
