<svg width="510" height="349" viewBox="0 0 510 349" fill="none" xmlns="http://www.w3.org/2000/svg">
<path d="M103.212 50.5538C97.7509 69.0776 87.6975 107.845 91.175 114.725" stroke="black" stroke-width="4" stroke-linecap="round"/>
<path d="M93.8308 55.2327L101.614 50.3967C102.453 49.8757 103.546 50.0445 104.188 50.7941L109.554 57.0555C110.2 57.8098 111.302 57.9754 112.142 57.4443L132.511 44.5587C135.819 41.9282 135.764 39.5415 134.495 37.9823C132.383 35.3846 126.488 34.3709 122.338 34.3366C121.494 34.3296 120.771 34.9037 120.527 35.7112L119.231 40.0064C119.053 40.5966 118.611 41.0755 118.031 41.2847C107.373 45.1286 100.491 42.7256 97.6362 39.3319C97.2808 38.9094 97.1901 38.3352 97.3172 37.798L97.9156 35.2701C98.1939 34.094 97.3733 32.9404 96.1656 32.8943C90.4789 32.6775 82.2332 33.5843 82.2332 38.6399C82.2332 43.858 87.7905 51.072 91.3891 54.9312C92.0214 55.6093 93.0433 55.722 93.8308 55.2327Z" fill="black"/>
<path d="M66.7088 97.5131C69.3711 69.153 77.9125 45.7184 82.0168 37.8774C83.348 34.8957 86.5427 32.8416 90.0036 32.5765C94.3298 32.2452 127.397 32.2941 135.595 36.5522C143.249 40.5279 141.918 40.5279 139.921 62.7256C138.324 80.4838 131.934 104.139 128.939 113.747C126.942 119.048 114.896 123.554 102.649 119.048C87.3414 113.416 92.0003 116.398 78.0234 113.747C66.8419 111.627 66.2423 102.483 66.7088 97.5131Z" stroke="black" stroke-width="4"/>
<path d="M141.057 49.3478C138.882 47.0163 133.944 44.6848 131.595 54.0107C128.659 65.6681 122.082 91.7044 121.48 94.978C120.501 100.307 120.176 114.296 125.396 105.969C129.572 99.3079 134.423 71.3302 135.837 58.0075" stroke="black" stroke-width="4" stroke-linecap="round"/>
<ellipse cx="105.454" cy="58.8159" rx="1.66002" ry="2.65514" transform="rotate(13.2587 105.454 58.8159)" fill="black"/>
<ellipse cx="101.704" cy="72.4014" rx="1.66002" ry="2.65514" transform="rotate(13.2587 101.704 72.4014)" fill="black"/>
<ellipse cx="98.3852" cy="88.3325" rx="1.66002" ry="2.65514" transform="rotate(13.2587 98.3852 88.3325)" fill="black"/>
<ellipse cx="95.73" cy="104.927" rx="1.66002" ry="2.65514" transform="rotate(13.2587 95.73 104.927)" fill="black"/>
<path fill-rule="evenodd" clip-rule="evenodd" d="M23.452 46.806C21.9084 46.3685 20.2938 47.2228 19.7872 48.745L19.1544 50.6465C18.8059 51.6938 17.9104 52.4651 16.8231 52.6546L14.8488 52.9988C13.2683 53.2742 12.1842 54.7445 12.3883 56.3358L12.6432 58.3235C12.7836 59.4183 12.3115 60.5018 11.414 61.1443L9.78456 62.311C8.48009 63.2449 8.1413 65.0399 9.0156 66.3851L10.1077 68.0654C10.7092 68.9908 10.7539 70.1719 10.2241 71.1402L9.26224 72.8983C8.49219 74.3057 8.96576 76.0699 10.3371 76.9026L12.0501 77.9426C12.9936 78.5154 13.5463 79.5601 13.4891 80.6624L13.3853 82.6637C13.3022 84.2659 14.4943 85.6499 16.0911 85.8051L18.0858 85.9989C19.1844 86.1056 20.1356 86.807 20.5624 87.825L21.3371 89.6732C21.9574 91.1527 23.632 91.8825 25.138 91.3294L27.0192 90.6386C28.0553 90.2581 29.2167 90.4773 30.0428 91.2093L31.5428 92.5383C32.7436 93.6022 34.5689 93.5331 35.6859 92.3814L37.081 90.9428C37.8494 90.1504 38.9909 89.844 40.0528 90.145L41.9809 90.6916C43.5244 91.1292 45.139 90.2749 45.6456 88.7526L46.2784 86.8511C46.6269 85.8038 47.5224 85.0325 48.6098 84.843L50.584 84.4989C52.1645 84.2234 53.2486 82.7532 53.0445 81.1619L52.7896 79.1741C52.6492 78.0793 53.1214 76.9959 54.0188 76.3533L55.6483 75.1867C56.9527 74.2527 57.2915 72.4577 56.4172 71.1126L55.3251 69.4323C54.7236 68.5068 54.6789 67.3258 55.2087 66.3574L56.1706 64.5994C56.9406 63.1919 56.4671 61.4277 55.0957 60.5951L53.3827 59.555C52.4392 58.9822 51.8865 57.9375 51.9437 56.8352L52.0475 54.8339C52.1306 53.2317 50.9385 51.8477 49.3417 51.6925L47.347 51.4987C46.2484 51.392 45.2972 50.6906 44.8705 49.6727L44.0957 47.8245C43.4754 46.3449 41.8008 45.6152 40.2948 46.1682L38.4136 46.859C37.3775 47.2395 36.2161 47.0203 35.39 46.2883L33.89 44.9594C32.6892 43.8954 30.8639 43.9645 29.747 45.1163L28.3518 46.5549C27.5834 47.3472 26.4419 47.6536 25.38 47.3526L23.452 46.806ZM23.775 66.4991C23.4929 65.966 23.6965 65.3051 24.2296 65.0231C24.7627 64.741 25.4236 64.9445 25.7057 65.4777C25.9878 66.0108 25.7842 66.6717 25.2511 66.9537C24.718 67.2358 24.0571 67.0323 23.775 66.4991ZM28.1945 64.1608C29.2039 66.0685 28.4756 68.4332 26.5679 69.4426C24.6602 70.4519 22.2955 69.7237 21.2862 67.816C20.2768 65.9083 21.0051 63.5436 22.9128 62.5342C24.8205 61.5249 27.1852 62.2531 28.1945 64.1608ZM40.5453 70.3521C40.0122 70.6342 39.8087 71.295 40.0907 71.8282C40.3728 72.3613 41.0337 72.5648 41.5668 72.2827C42.0999 72.0007 42.3035 71.3398 42.0214 70.8067C41.7393 70.2735 41.0784 70.07 40.5453 70.3521ZM42.8836 74.7716C44.7913 73.7622 45.5196 71.3975 44.5103 69.4898C43.5009 67.5821 41.1362 66.8539 39.2285 67.8632C37.3208 68.8726 36.5925 71.2373 37.6019 73.145C38.6112 75.0527 40.976 75.7809 42.8836 74.7716ZM34.8111 58.7271C34.7289 57.3489 33.5451 56.2981 32.1668 56.3803C30.7885 56.4624 29.7378 57.6463 29.8199 59.0246L30.9852 78.5782C31.0674 79.9565 32.2513 81.0072 33.6295 80.9251C35.0078 80.8429 36.0585 79.6591 35.9764 78.2808L34.8111 58.7271Z" fill="black"/>
<path d="M190.888 40.064C190.888 48.8205 183.701 55.9579 174.788 55.9579C165.875 55.9579 158.688 48.8205 158.688 40.064C158.688 31.3074 165.875 24.17 174.788 24.17C183.701 24.17 190.888 31.3074 190.888 40.064Z" stroke="black" stroke-width="4"/>
<path d="M174.788 48.0853V50.5535" stroke="black" stroke-width="4" stroke-linecap="round"/>
<path d="M174.788 32.0426V29.5745" stroke="black" stroke-width="4" stroke-linecap="round"/>
<path d="M179.313 33.1326C178.177 32.5661 176.451 32.0363 174.838 32.0425C172.894 32.0499 171.112 32.8358 170.721 35.2743C170.205 38.4905 174.118 39.6451 176.449 40.8072C179.671 42.4137 179.642 45.425 177.702 46.8757C176.829 47.5282 175.839 47.8862 174.838 48.0215C173.375 48.2193 171.89 47.9411 170.721 47.411" stroke="black" stroke-width="4" stroke-linecap="round"/>
<path d="M57.8651 166.708C48.615 170.495 48.7682 183.058 50.1517 189.806C50.2897 190.479 50.7957 191.016 51.453 191.217C71.8926 197.474 87.9058 187.816 94.1408 181.475C94.6003 181.007 94.7691 180.336 94.5815 179.707C93.585 176.371 91.2265 171.102 89.7277 168.752C84.4421 161.429 70.0735 161.709 57.8651 166.708Z" stroke="black" stroke-width="4" stroke-linecap="round"/>
<path d="M95.0011 180.834C104.122 182.397 113.706 186.485 110.839 193.175C107.754 200.373 78.4462 213.981 56.3383 210.254C46.1213 208.719 30.419 201.743 50.164 190.912" stroke="black" stroke-width="4" stroke-linecap="round"/>
<path d="M493.451 298.622C498.6 303.86 505.201 315.305 490.417 319.19" stroke="black" stroke-width="4" stroke-linecap="round"/>
<path d="M493.708 309.729C492.83 305.142 489.222 296.491 481.437 293.714C480.157 293.257 478.765 292.959 477.253 292.864" stroke="black" stroke-width="4" stroke-linecap="round"/>
<path d="M484.693 266.948C474.459 273.758 457.651 291.68 472.299 308.883C486.947 326.085 492.675 327.593 493.708 326.197" stroke="black" stroke-width="4" stroke-linecap="round"/>
<path d="M496.176 280.523L481.367 293.686" stroke="black" stroke-width="4" stroke-linecap="round"/>
<path d="M481.367 265.714C482.275 265.817 483.435 266.148 484.736 266.785C488.315 268.533 492.969 272.585 496.428 280.517C497.42 282.793 498.314 285.388 499.055 288.338" stroke="black" stroke-width="4" stroke-linecap="round"/>
<path d="M483.012 261.601C489.486 262.423 502.827 266.208 504.403 274.764" stroke="black" stroke-width="4" stroke-linecap="round"/>
<path d="M485.48 257.18C488.706 256.276 496.595 255.236 502.346 258.31" stroke="black" stroke-width="4" stroke-linecap="round"/>
<path d="M232.906 58.3555L258.936 94.7149" stroke="black" stroke-width="4" stroke-linecap="round"/>
<path d="M235.13 92.1697L248.114 103.314" stroke="black" stroke-width="4" stroke-linecap="round"/>
<path d="M244.102 118.208L206.668 104.427" stroke="black" stroke-width="4" stroke-linecap="round"/>
<path d="M222.615 133.319L240.236 132.718" stroke="black" stroke-width="4" stroke-linecap="round"/>
<path d="M197.001 158.183L245.096 146.369" stroke="black" stroke-width="4" stroke-linecap="round"/>
<path d="M296.039 132.955C293.576 142.146 289.298 149.865 284.423 154.923C279.52 160.012 274.204 162.238 269.574 160.997C264.944 159.757 261.454 155.171 259.751 148.313C258.059 141.494 258.213 132.67 260.676 123.479C263.138 114.288 267.417 106.569 272.292 101.511C277.195 96.4222 282.511 94.1959 287.141 95.4366C291.771 96.6768 295.261 101.263 296.964 108.121C298.656 114.94 298.502 123.764 296.039 132.955Z" stroke="black" stroke-width="4"/>
<path d="M275.171 133.751C276.927 134.221 279.065 131.934 279.947 128.642C280.829 125.351 280.121 122.301 278.365 121.83C276.609 121.36 274.471 123.647 273.589 126.939C272.707 130.23 273.415 133.28 275.171 133.751Z" fill="black"/>
<path d="M349.474 153.66C351.767 150.186 352.523 144.398 352.614 141.938L358.188 145.774C359.922 149.475 357.632 152.084 356.271 152.926L349.474 153.66Z" fill="black"/>
<path d="M275.364 160.845L356.271 152.926M358.187 145.774L289.816 96.5786L358.187 145.774Z" stroke="black" stroke-width="4" stroke-linecap="round"/>
<path d="M275.292 132.506L291.813 143.959M277.848 122.97L297.669 122.106L277.848 122.97Z" stroke="black" stroke-width="4" stroke-linecap="round"/>
<path d="M362.149 265.486L345.392 282.381C331.699 294.668 322.658 285.219 317.105 280.163C311.346 272.055 302.296 261.927 302.296 228.04C302.296 206.855 307.438 196.533 328.212 204.349" stroke="black" stroke-width="4" stroke-linecap="round"/>
<path d="M358.188 145.774C358.879 147.166 359.464 150.545 356.271 152.926" stroke="black" stroke-width="4" stroke-linecap="round"/>
<path d="M352.27 141.633C352.377 144.146 351.638 149.555 349.076 153.553" stroke="black" stroke-width="4" stroke-linecap="round"/>
<path d="M396.702 179.089C382.511 179.089 350.425 186.493 337.261 216.728" stroke="black" stroke-width="4" stroke-linecap="round"/>
<path d="M300.742 180.208C299.804 181.41 298.786 184.351 301.608 187.055C301.817 187.256 302.046 187.455 302.299 187.652C305.963 190.508 307.766 187.91 308.21 186.255" stroke="black" stroke-width="4" stroke-linecap="round"/>
<path d="M311.934 181.098C313.039 183.966 310.893 184.717 309.682 184.733C309.395 184.7 309.05 184.646 308.662 184.568C306.54 184.142 303.155 183.009 301.168 180.748C301.005 180.562 300.864 180.382 300.742 180.208C299.118 177.873 301.101 176.559 302.392 176.179" stroke="black" stroke-width="4" stroke-linecap="round"/>
<path d="M304.518 171.425C303.321 171.388 301.107 171.916 301.825 174.323C302.543 176.73 308.602 179.759 311.542 180.972C311.67 181.021 311.801 181.063 311.934 181.098C313.137 181.416 314.477 181.142 314.909 179.532C315.518 177.256 312.811 175.705 312.184 175.395" stroke="black" stroke-width="4" stroke-linecap="round"/>
<path d="M313.281 166.533C312.031 166.695 310.601 168.114 312.919 170.269C315.238 172.423 314.067 174.196 313.192 174.813C311.884 175.457 308.265 175.239 304.256 169.225C300.246 163.211 309.638 162.647 314.835 163.117" stroke="black" stroke-width="4" stroke-linecap="round"/>
<path d="M323.327 174.336C321.555 171.944 317.842 168.267 317.169 172.686C316.496 177.105 319.028 179.785 320.379 180.573" stroke="black" stroke-width="4" stroke-linecap="round"/>
<path d="M318.746 194.614C317.856 193.169 316.816 188.944 319.78 183.605" stroke="black" stroke-width="4" stroke-linecap="round"/>
<path d="M318.38 157.04L313.278 169.726" stroke="black" stroke-width="4" stroke-linecap="round"/>
<path d="M322.849 176.123L332.625 155.533" stroke="black" stroke-width="4" stroke-linecap="round"/>
<path d="M304.917 192.186C303.906 195.961 300.787 200.449 304.441 202.705C308.902 205.461 310.603 201.162 312.821 196.859L319.077 183.843" stroke="black" stroke-width="4" stroke-linecap="round"/>
<path d="M326.566 171.273C328.76 179.02 328.829 194.888 328.829 226.356" stroke="black" stroke-width="4" stroke-linecap="round"/>
<path d="M462.953 253.133C473.009 277.197 459.229 298.382 462.953 338.489C437.998 345.894 382.78 354.409 361.554 329.234C360.594 324.846 361.554 300.027 361.554 283.985" stroke="black" stroke-width="4" stroke-linecap="round"/>
<path d="M441.768 217.139L438.464 212.069C435.245 207.127 428.979 205.155 423.51 207.36L415.637 210.534C410.726 212.515 405.099 211.141 401.653 207.121L392.611 196.571" stroke="black" stroke-width="4" stroke-linecap="round"/>
<path d="M396.313 179.877C394.462 174.529 396.148 170.93 397.793 170.245C407.666 179.295 422.639 175.935 428.193 170.45C430.167 172.26 429.016 177.614 428.193 179.26C417.498 191.107 402.277 184.47 396.313 179.877Z" fill="black"/>
<path d="M367.953 95.7977C372.478 112.046 374.741 113.486 381.322 120.685C381.322 113.57 382.544 101.629 382.544 96.6566C404.095 96.6566 422.283 87.8592 428.682 83.4605C428.453 98.3777 442.438 108.131 442.438 108.131C442.438 108.131 440.432 114.156 439.286 127.639C438.369 138.425 441.005 136.341 442.438 133.95C446.564 120.639 453.328 124.196 456.193 127.639C491.359 70.4994 437.28 59.459 426.963 60.5108C419.169 53.8554 408.298 48.6399 400.656 47.8749C373.095 45.116 360.616 69.4514 367.953 95.7977Z" fill="black"/>
<path d="M441.956 144.119C438.253 166.721 413.404 182.974 395.472 164.665C377.541 146.356 381.129 112.842 383.045 97.2023" stroke="black" stroke-width="4" stroke-linecap="round"/>
<path d="M456.6 126.238C458.863 131.791 456.74 144.097 441.956 144.097" stroke="black" stroke-width="4" stroke-linecap="round"/>
<path d="M450.079 129.288C450.406 130.477 450.145 133.292 446.48 135.047" stroke="black" stroke-width="4" stroke-linecap="round"/>
<path d="M383.544 141.217C378.718 139.206 375.316 131.756 376.625 119.827" stroke="black" stroke-width="4" stroke-linecap="round"/>
<path d="M394.369 126.747C392.999 126.196 392.464 124.318 393.174 122.55C393.884 120.783 395.57 119.797 396.94 120.348C398.311 120.898 398.846 122.777 398.136 124.544C397.426 126.311 395.74 127.297 394.369 126.747Z" fill="black"/>
<path d="M419.529 127.456C418.139 126.958 417.491 125.216 418.082 123.564C418.674 121.912 420.28 120.977 421.67 121.475C423.061 121.972 423.708 123.715 423.117 125.366C422.526 127.018 420.919 127.954 419.529 127.456Z" fill="black"/>
<path d="M430.438 119.415C429.788 117.503 426.987 113.967 420.977 115.114" stroke="black" stroke-width="4" stroke-linecap="round"/>
<path d="M401.643 115.713C400.209 114.472 396.31 112.733 392.182 115.713" stroke="black" stroke-width="4" stroke-linecap="round"/>
<path d="M405.261 124.619C404.782 128.681 401.639 137.371 406.986 137.371" stroke="black" stroke-width="4" stroke-linecap="round"/>
<path d="M428.788 177.649C469.718 177.649 520.932 220.636 504.967 274.318" stroke="black" stroke-width="4" stroke-linecap="round"/>
<path d="M459.359 237.125C461.21 239.113 465.324 244.612 466.969 250.7C468.615 256.788 473.277 261.052 475.402 262.423" stroke="black" stroke-width="4" stroke-linecap="round"/>
<path d="M138.68 180.217C139.127 193.33 151.304 200.123 159.047 202.46C159.888 202.714 160.095 203.869 159.367 204.362C146.591 213.023 141.459 216.565 143.616 236.367C145.426 252.985 121.334 254.398 109.062 253.027C95.693 252.204 64.4299 250.476 46.3303 250.147C28.2306 249.818 19.8664 229.442 17.9467 219.295C17.124 211.754 14.9438 188.732 12.8048 156.975C10.131 117.279 67.1037 122.01 107.005 128.592C146.907 135.173 138.063 162.117 138.68 180.217Z" stroke="black" stroke-width="4" stroke-linecap="round"/>
<path d="M32.4593 38.4184C32.1165 25.3236 41.4261 1.35511 71.5373 2.01328C109.176 2.83599 152.369 4.07006 163.887 25.4606" stroke="black" stroke-width="4" stroke-linecap="round"/>
<path d="M31.2248 95.8029C29.9907 104.647 30.7309 124.269 33.6927 127.889" stroke="black" stroke-width="4" stroke-linecap="round"/>
<path d="M141.468 165.939C149.764 168.613 166.684 169.065 168.001 149.484C169.063 133.683 174.751 125.391 179.033 121.951C179.799 121.335 179.686 119.456 178.898 118.869C176.206 116.863 173.458 112.662 174.171 105.058C175.405 91.8947 177.051 67.419 174.171 56.7238" stroke="black" stroke-width="4" stroke-linecap="round"/>
<path d="M412.02 152.07C411.727 153.706 411.044 155.063 410.231 155.943C409.408 156.832 408.565 157.133 407.877 157.009C407.188 156.886 406.501 156.312 406.038 155.192C405.58 154.085 405.411 152.575 405.704 150.94C405.996 149.304 406.679 147.947 407.493 147.068C408.316 146.178 409.159 145.878 409.847 146.001C410.536 146.124 411.223 146.699 411.686 147.818C412.143 148.925 412.313 150.435 412.02 152.07Z" stroke="black" stroke-width="4"/>
</svg>
