<svg width="117" height="130" viewBox="0 0 117 130" fill="none" xmlns="http://www.w3.org/2000/svg">
<path d="M19.8493 22.1734L12.8772 16.9443" stroke="black" stroke-width="5" stroke-linecap="round"/>
<path d="M26.8215 16.9443L18.1063 4.74304" stroke="black" stroke-width="5" stroke-linecap="round"/>
<path d="M34.9555 14.6202L31.4695 3" stroke="black" stroke-width="5" stroke-linecap="round"/>
<path d="M12.4354 54.1994L42.4295 84.2731C43.0665 84.9119 44.0524 85.045 44.8361 84.5982L59.5072 76.2337C60.3071 75.7777 61.315 75.9267 61.9487 76.5947L73.027 88.272C73.6786 88.9588 74.7225 89.0947 75.5282 88.5976L110.562 66.9813C111.966 66.1151 113.756 67.2253 113.603 68.8679L108.379 125.257C108.274 126.391 107.245 127.208 106.117 127.054L4.92093 113.263C3.85049 113.117 3.08938 112.148 3.20187 111.073L9.03018 55.4035C9.20554 53.7285 11.2461 53.007 12.4354 54.1994Z" stroke="black" stroke-width="5" stroke-linecap="round"/>
<path d="M12.8772 105.258L35.5366 90.7327" stroke="black" stroke-width="5" stroke-linecap="round"/>
<path d="M80.8555 96.5428L98.8668 116.297" stroke="black" stroke-width="5" stroke-linecap="round"/>
<path d="M24.4974 41.3467L9.39111 51.8962L23.8108 65.1682L24.4974 41.3467Z" fill="black"/>
<path d="M100.556 51.2239L98.8668 74.4644L113.392 65.0988L100.556 51.2239Z" fill="black"/>
<path d="M80.8555 27.9836L50.0619 24.2424L67.3198 14.0393L80.8555 27.9836Z" fill="black"/>
<path d="M23.3354 65.1054L25.2694 24.8531C25.3243 23.7111 26.3235 22.8474 27.4614 22.9585L100.43 30.0806C101.502 30.1853 102.299 31.1212 102.231 32.1969L99.6399 73.3024" stroke="black" stroke-width="5" stroke-linecap="round"/>
<path d="M32.6316 73.1571L34.837 45.7693C34.9289 44.6282 35.9582 43.7969 37.0931 43.9472L89.4065 50.8745C90.4716 51.0156 91.235 51.9729 91.1354 53.0426L88.6001 80.2745" stroke="black" stroke-width="5" stroke-linecap="round"/>
<path d="M48.3188 63.4252L73.3023 66.3302" stroke="black" stroke-width="5" stroke-linecap="round"/>
<path d="M41.9277 72.7214L76.7884 76.7885" stroke="black" stroke-width="5" stroke-linecap="round"/>
</svg>
