<svg width="202" height="85" viewBox="0 0 202 85" fill="none" xmlns="http://www.w3.org/2000/svg">
<path d="M1 49.3135C18.3218 52.8661 10.1994 76.7096 22.895 83.0546C38.0479 90.6282 43.2657 47.9871 41.294 29.888C40.729 21.9522 31.4872 18.4224 30.2405 29.888C28.9161 42.0671 44.0306 89.2939 61.3525 71.0703L72.9182 57.6906C76.1319 53.7315 82.4671 48.2309 87.821 57.6906C93.1745 67.15 101.705 64.0241 105.301 61.2784L116.602 53.0599" stroke="black" stroke-width="0.813831" stroke-linecap="round"/>
<path d="M108.369 16.6914L200.447 1.0936C200.608 1.06638 200.705 1.26597 200.584 1.37502L157.124 40.5139C157.112 40.5248 157.1 40.5332 157.085 40.5399C153.443 42.1835 138.258 36.0929 130.939 32.7619C130.848 32.7204 130.746 32.7722 130.719 32.8687C128.82 39.6896 126.4 46.0775 125.37 48.5599C125.341 48.6305 125.268 48.6698 125.196 48.6446C122.667 47.7635 122.402 34.4756 122.592 27.6985C122.595 27.6149 122.535 27.5468 122.452 27.535C116.889 26.7411 108.946 21.5985 105.645 19.1055" stroke="black" stroke-width="0.813831" stroke-linecap="round"/>
<path d="M131.116 33.0029C140.597 28.509 164.581 17.2538 184.672 8.18433" stroke="black" stroke-width="0.813831" stroke-linecap="round"/>
<path d="M125.238 48.6773L142.872 38.2278" stroke="black" stroke-width="0.813831" stroke-linecap="round"/>
<path d="M129.157 23.8592L153.323 16.0217" stroke="black" stroke-width="0.813831" stroke-linecap="round"/>
</svg>
