<svg width="378" height="418" viewBox="0 0 378 418" fill="none" xmlns="http://www.w3.org/2000/svg">
<path d="M122.474 306.06C138.278 322.901 182.998 353.014 235.453 338.74" stroke="black" stroke-width="4" stroke-linecap="round"/>
<path d="M289.707 411.035C282.669 381.573 271.987 322.611 284.197 317.248C284.752 317.005 285.357 316.846 285.918 316.613L332.329 297.246" stroke="black" stroke-width="4" stroke-linecap="round"/>
<path d="M344.411 303.56L347.462 317.683" stroke="black" stroke-width="4" stroke-linecap="round"/>
<path d="M288.867 322.786C283.619 332.669 291.774 374.335 298.358 401.725C299.79 407.696 306.289 410.826 311.936 408.372L355.561 389.404C360.019 387.464 362.455 382.634 361.364 377.917L349.906 328.754" stroke="black" stroke-width="4" stroke-linecap="round"/>
<path d="M298.114 323.382C300.243 320.791 302.443 311.645 297.501 306.969C296.65 306.154 295.577 305.477 294.25 304.992C285.288 301.716 279.572 312.848 284.962 316.679" stroke="black" stroke-width="4" stroke-linecap="round"/>
<path d="M297.363 306.561C298.126 301.542 304.642 296.299 312.497 300.652C320.937 306.618 316.697 315.391 312.848 318.452" stroke="black" stroke-width="4" stroke-linecap="round"/>
<path d="M312.853 300.22C314.454 296.263 320.492 288.632 328.457 291.769C339.156 297.606 332.997 309.104 328.52 310.575" stroke="black" stroke-width="4" stroke-linecap="round"/>
<path d="M328.367 291.223C330.799 286.828 336.868 282.579 342.794 286.781C348.722 290.984 346.841 302.122 340.818 305.687" stroke="black" stroke-width="4" stroke-linecap="round"/>
<path d="M300.241 343.541C309.211 340.953 328.836 334.224 335.58 328.013" stroke="black" stroke-width="4" stroke-linecap="round"/>
<path d="M304.524 357.462C312.927 356.131 332.642 348.076 340.399 345.147" stroke="black" stroke-width="4" stroke-linecap="round"/>
<path d="M306.666 372.455C316.188 371.005 336.479 366.297 341.47 359.069" stroke="black" stroke-width="4" stroke-linecap="round"/>
<path d="M310.95 387.447C315.746 386.823 323.533 384.699 329.69 379.951" stroke="black" stroke-width="4" stroke-linecap="round"/>
<rect x="337.089" y="372.366" width="12.5693" height="9.51575" rx="3" transform="rotate(-20.8025 337.089 372.366)" stroke="black" stroke-width="4"/>
<path d="M17.5278 185.05L11.1025 180.231" stroke="black" stroke-width="4" stroke-linecap="round"/>
<path d="M23.953 180.231L15.9214 168.987" stroke="black" stroke-width="4" stroke-linecap="round"/>
<path d="M31.4492 178.089L28.2366 167.38" stroke="black" stroke-width="4" stroke-linecap="round"/>
<path d="M10.9281 214.798L38.2523 242.194C38.8894 242.833 39.8753 242.966 40.659 242.52L53.9684 234.931C54.7683 234.475 55.7762 234.624 56.4099 235.292L66.447 245.872C67.0986 246.559 68.1425 246.695 68.9482 246.198L100.858 226.509C102.262 225.643 104.052 226.753 103.9 228.395L99.1289 279.886C99.0239 281.019 97.9953 281.837 96.8674 281.683L3.92093 269.016C2.85049 268.87 2.08938 267.901 2.20187 266.826L7.5229 216.002C7.69827 214.327 9.73881 213.605 10.9281 214.798Z" stroke="black" stroke-width="4" stroke-linecap="round"/>
<path d="M11.1025 261.618L31.9848 248.232" stroke="black" stroke-width="4" stroke-linecap="round"/>
<path d="M73.7493 253.587L90.348 271.792" stroke="black" stroke-width="4" stroke-linecap="round"/>
<path d="M21.8114 202.72L7.88989 212.442L21.1786 224.673L21.8114 202.72Z" fill="black"/>
<path d="M91.9044 211.822L90.3479 233.24L103.734 224.609L91.9044 211.822Z" fill="black"/>
<path d="M73.7493 190.404L45.3708 186.957L61.2752 177.554L73.7493 190.404Z" fill="black"/>
<path d="M20.7405 224.615L22.5148 187.684C22.5697 186.542 23.569 185.679 24.7068 185.79L91.6372 192.322C92.71 192.427 93.5068 193.363 93.439 194.439L91.0603 232.169" stroke="black" stroke-width="4" stroke-linecap="round"/>
<path d="M29.3076 232.035L31.3268 206.96C31.4187 205.819 32.448 204.988 33.5829 205.138L81.48 211.481C82.5451 211.622 83.3085 212.579 83.2089 213.649L80.8864 238.594" stroke="black" stroke-width="4" stroke-linecap="round"/>
<path d="M43.7644 223.066L66.7884 225.743" stroke="black" stroke-width="4" stroke-linecap="round"/>
<path d="M37.8745 231.634L70.001 235.382" stroke="black" stroke-width="4" stroke-linecap="round"/>
<path d="M271.616 21.5659C287.505 11.4213 311.246 12.2043 322.802 17.6904C331.126 21.6422 355.938 36.1872 337.468 67.1183C337.243 67.4944 337.134 67.9469 337.179 68.3826L339.027 86.3033C339.171 87.7011 337.867 88.8078 336.511 88.438L318.454 83.5133C318.133 83.4258 317.807 83.4176 317.483 83.4914C298.4 87.8369 258.074 89.8784 255.897 54.6529C255.388 46.4193 256.894 39.654 259.789 34.1626" stroke="black" stroke-width="4" stroke-linecap="round"/>
<path d="M286.461 49.8509C286.461 51.7647 284.809 53.473 282.571 53.473C280.334 53.473 278.682 51.7647 278.682 49.8509C278.682 47.9371 280.334 46.2288 282.571 46.2288C284.809 46.2288 286.461 47.9371 286.461 49.8509Z" stroke="black" stroke-width="4"/>
<circle cx="298.367" cy="49.8509" r="3.62214" stroke="black" stroke-width="4"/>
<circle cx="313.895" cy="49.8509" r="3.62214" stroke="black" stroke-width="4"/>
<path d="M252.507 72.511L238.145 78.2832C236.72 78.8559 235.208 77.6759 235.418 76.1548L237.084 64.0489C237.139 63.6505 237.075 63.2532 236.9 62.8913C230.582 49.8596 223.93 23.8193 249.882 9.60129C274.909 -4.10938 295.092 6.77821 307.202 13.2305" stroke="black" stroke-width="4" stroke-linecap="round"/>
<path d="M340.501 232.705C344.237 208.154 343.343 152.15 309.879 124.545" stroke="black" stroke-width="4" stroke-linecap="round"/>
<path d="M110.159 156.136C119.66 135.223 150.952 91.4864 200.113 83.8518" stroke="black" stroke-width="4" stroke-linecap="round"/>
<path d="M154.601 354.786C163.864 362.213 188.192 366.669 200.113 365.224" stroke="black" stroke-width="4" stroke-linecap="round"/>
<path d="M366.114 198.352C366.379 190.736 365.141 172.37 358.067 159.827" stroke="black" stroke-width="4" stroke-linecap="round"/>
<path d="M107.431 113.737C117.158 99.0421 126.014 81.3644 156.804 77.6251" stroke="black" stroke-width="4" stroke-linecap="round"/>
</svg>
