<svg width="411" height="454" viewBox="0 0 411 454" fill="none" xmlns="http://www.w3.org/2000/svg">
<path d="M133.728 331.852C150.876 350.126 199.403 382.802 256.321 367.313" stroke="black" stroke-width="15" stroke-linecap="round"/>
<path d="M315.193 445.762C307.556 413.792 295.965 349.812 309.214 343.993C309.816 343.729 310.473 343.557 311.081 343.303L361.443 322.288" stroke="black" stroke-width="5" stroke-linecap="round"/>
<path d="M374.552 329.14L377.863 344.464" stroke="black" stroke-width="5" stroke-linecap="round"/>
<path d="M314.281 350.002C308.587 360.725 317.436 405.938 324.58 435.659C326.133 442.138 333.186 445.534 339.314 442.871L386.651 422.289C391.489 420.184 394.133 414.942 392.948 409.824L380.515 356.477" stroke="black" stroke-width="5" stroke-linecap="round"/>
<path d="M324.315 350.648C326.625 347.837 329.012 337.912 323.65 332.838C322.726 331.954 321.562 331.219 320.122 330.694C310.398 327.138 304.195 339.218 310.043 343.375" stroke="black" stroke-width="5" stroke-linecap="round"/>
<path d="M323.5 332.396C324.329 326.949 331.399 321.26 339.922 325.984C349.08 332.458 344.479 341.978 340.303 345.299" stroke="black" stroke-width="5" stroke-linecap="round"/>
<path d="M340.308 325.516C342.045 321.222 348.597 312.942 357.241 316.345C368.85 322.679 362.167 335.155 357.308 336.752" stroke="black" stroke-width="5" stroke-linecap="round"/>
<path d="M357.143 315.753C359.782 310.983 366.367 306.373 372.798 310.933C379.23 315.494 377.189 327.579 370.654 331.448" stroke="black" stroke-width="5" stroke-linecap="round"/>
<path d="M326.623 372.523C336.357 369.715 357.652 362.413 364.97 355.674" stroke="black" stroke-width="5" stroke-linecap="round"/>
<path d="M331.271 387.629C340.389 386.185 361.782 377.444 370.199 374.266" stroke="black" stroke-width="5" stroke-linecap="round"/>
<path d="M333.595 403.898C343.927 402.324 365.945 397.216 371.361 389.372" stroke="black" stroke-width="5" stroke-linecap="round"/>
<path d="M338.243 420.166C343.448 419.488 351.897 417.183 358.579 412.032" stroke="black" stroke-width="5" stroke-linecap="round"/>
<rect x="367.033" y="403.992" width="12.9794" height="9.66603" rx="2.5" transform="rotate(-20.8025 367.033 403.992)" stroke="black" stroke-width="5"/>
<path d="M19.8491 200.544L12.877 195.315" stroke="black" stroke-width="5" stroke-linecap="round"/>
<path d="M26.8216 195.315L18.1064 183.113" stroke="black" stroke-width="5" stroke-linecap="round"/>
<path d="M34.9555 192.991L31.4695 181.37" stroke="black" stroke-width="5" stroke-linecap="round"/>
<path d="M12.4354 232.57L42.4295 262.644C43.0665 263.282 44.0524 263.415 44.8361 262.969L59.5072 254.604C60.3071 254.148 61.315 254.297 61.9487 254.965L73.027 266.642C73.6786 267.329 74.7225 267.465 75.5282 266.968L110.562 245.352C111.966 244.486 113.756 245.596 113.603 247.238L108.379 303.628C108.274 304.761 107.245 305.579 106.117 305.425L4.92093 291.634C3.85049 291.488 3.08938 290.518 3.20187 289.444L9.03018 233.774C9.20554 232.099 11.2461 231.377 12.4354 232.57Z" stroke="black" stroke-width="5" stroke-linecap="round"/>
<path d="M12.877 283.628L35.5364 269.103" stroke="black" stroke-width="5" stroke-linecap="round"/>
<path d="M80.8555 274.913L98.8668 294.668" stroke="black" stroke-width="5" stroke-linecap="round"/>
<path d="M24.4974 219.717L9.39111 230.267L23.8108 243.539L24.4974 219.717Z" fill="black"/>
<path d="M100.556 229.594L98.8669 252.835L113.392 243.469L100.556 229.594Z" fill="black"/>
<path d="M80.8556 206.354L50.062 202.613L67.32 192.41L80.8556 206.354Z" fill="black"/>
<path d="M23.3354 243.476L25.2694 203.223C25.3243 202.082 26.3235 201.218 27.4614 201.329L100.43 208.451C101.502 208.556 102.299 209.492 102.231 210.567L99.6399 251.673" stroke="black" stroke-width="5" stroke-linecap="round"/>
<path d="M32.6316 251.528L34.837 224.14C34.9289 222.999 35.9582 222.167 37.0931 222.318L89.4065 229.245C90.4716 229.386 91.235 230.343 91.1354 231.413L88.6001 258.645" stroke="black" stroke-width="5" stroke-linecap="round"/>
<path d="M48.3188 241.796L73.3023 244.701" stroke="black" stroke-width="5" stroke-linecap="round"/>
<path d="M41.9277 251.092L76.7884 255.159" stroke="black" stroke-width="5" stroke-linecap="round"/>
<path d="M295.562 23.1464C312.804 12.1384 338.564 12.988 351.104 18.941C360.141 23.2313 387.087 39.0278 366.988 72.6259C366.763 73.0017 366.654 73.4546 366.699 73.8903L368.736 93.6404C368.88 95.0381 367.576 96.1448 366.22 95.7751L346.345 90.3546C346.024 90.2671 345.698 90.2587 345.374 90.3327C324.684 95.0545 280.869 97.2982 278.505 59.0493C277.953 50.1149 279.588 42.7739 282.729 36.8151" stroke="black" stroke-width="5" stroke-linecap="round"/>
<path d="M311.341 53.8385C311.341 55.7187 309.71 57.4391 307.45 57.4391C305.19 57.4391 303.559 55.7187 303.559 53.8385C303.559 51.9582 305.19 50.2379 307.45 50.2379C309.71 50.2379 311.341 51.9582 311.341 53.8385Z" stroke="black" stroke-width="5"/>
<circle cx="324.59" cy="53.8385" r="3.60062" stroke="black" stroke-width="5"/>
<circle cx="341.439" cy="53.8385" r="3.60062" stroke="black" stroke-width="5"/>
<path d="M274.827 78.4268L258.97 84.7997C257.546 85.3723 256.034 84.1924 256.243 82.6713L258.098 69.1925C258.153 68.7941 258.09 68.3973 257.914 68.0355C251.052 53.9105 243.786 25.6083 271.979 10.1631C299.135 -4.71443 321.036 7.09976 334.176 14.1012" stroke="black" stroke-width="5" stroke-linecap="round"/>
<path d="M370.31 252.254C374.364 225.613 373.394 164.844 337.081 134.89" stroke="black" stroke-width="15" stroke-linecap="round"/>
<path d="M120.364 169.169C130.674 146.475 164.629 99.017 217.974 90.7327" stroke="black" stroke-width="15" stroke-linecap="round"/>
<path d="M168.588 384.724C178.64 392.783 205.038 397.619 217.974 396.05" stroke="black" stroke-width="7" stroke-linecap="round"/>
<path d="M398.103 214.977C398.391 206.714 397.047 186.784 389.371 173.173" stroke="black" stroke-width="7" stroke-linecap="round"/>
<path d="M117.404 123.161C127.959 107.216 137.568 88.0336 170.979 83.9761" stroke="black" stroke-width="7" stroke-linecap="round"/>
</svg>
