<svg width="441" height="418" viewBox="0 0 441 418" fill="none" xmlns="http://www.w3.org/2000/svg">
<path d="M19.9456 192.396C22.3998 192.396 24.3893 190.407 24.3893 187.952C24.3893 185.498 22.3998 183.508 19.9456 183.508C17.4914 183.508 15.502 185.498 15.502 187.952C15.502 190.407 17.4914 192.396 19.9456 192.396Z" stroke="black" stroke-width="3.5"/>
<path d="M28.6533 188.405C37.6163 187.483 51.6802 188.574 53.3424 195.507C55.0047 202.44 48.6571 204.976 45.2758 205.377C32.4016 207.423 15.3311 206.46 15.3311 195.507" stroke="black" stroke-width="3.5" stroke-linecap="round"/>
<path d="M25.4149 198.891C25.9812 198.891 26.4403 198.432 26.4403 197.865C26.4403 197.299 25.9812 196.84 25.4149 196.84C24.8485 196.84 24.3894 197.299 24.3894 197.865C24.3894 198.432 24.8485 198.891 25.4149 198.891Z" stroke="black" stroke-width="3.5"/>
<path d="M35.3274 197.865C35.3274 198.364 34.8634 198.891 34.1312 198.891C33.3989 198.891 32.9348 198.364 32.9348 197.865C32.9348 197.367 33.3989 196.84 34.1312 196.84C34.8634 196.84 35.3274 197.367 35.3274 197.865Z" stroke="black" stroke-width="3.5"/>
<path d="M42.8475 198.891C43.4139 198.891 43.8729 198.432 43.8729 197.865C43.8729 197.299 43.4139 196.84 42.8475 196.84C42.2814 196.84 41.822 197.299 41.822 197.865C41.822 198.432 42.2814 198.891 42.8475 198.891Z" stroke="black" stroke-width="3.5"/>
<path d="M357.151 67.2882C359.417 67.2882 361.253 65.4516 361.253 63.1863C361.253 60.9211 359.417 59.0844 357.151 59.0844C354.884 59.0844 353.049 60.9211 353.049 63.1863C353.049 65.4516 354.884 67.2882 357.151 67.2882Z" stroke="black" stroke-width="3.5"/>
<path d="M365.211 59.5975C368.215 59.5975 376.805 59.5975 380.845 59.5975C384.117 59.5975 385.692 60.3215 385.692 65.3887C385.692 70.312 385.651 76.6894 385.692 79.2633C385.72 81.073 384.821 83.0757 381.813 83.3652C378.808 83.6548 366.745 83.4859 361.088 83.3652C358.986 83.3652 355.271 82.1743 355.271 77.3327V71.9035" stroke="black" stroke-width="3.5" stroke-linecap="round"/>
<path d="M363.132 68.143L370.652 73.2703" stroke="black" stroke-width="3.5" stroke-linecap="round"/>
<path d="M370.653 73.2706L384.325 60.6231" stroke="black" stroke-width="3.5" stroke-linecap="round"/>
<path d="M374.119 70.1942L377.855 73.9543L381.591 77.7143" stroke="black" stroke-width="3.5" stroke-linecap="round"/>
<path d="M360.398 77.7143L365.912 70.1942" stroke="black" stroke-width="3.5" stroke-linecap="round"/>
<path d="M387.21 323.65C386.076 324.788 385.095 325.769 384.421 326.444C382.661 328.205 380.815 327.178 380.111 326.444L368.892 315.633C367.234 314.093 365.833 312.572 359.574 306.599C358.932 305.957 357.916 304.319 358.983 302.897C360.046 301.475 366.031 294.011 368.892 290.457C369.757 289.2 371.644 287.705 374.047 289.941C376.118 291.866 383.218 298.53 389.282 303.597" stroke="black" stroke-width="3.5" stroke-linecap="round"/>
<path d="M368.772 290.842C369.125 297.326 371.504 307.764 383.813 311.693" stroke="black" stroke-width="3.5" stroke-linecap="round"/>
<path d="M399.984 312.194C399.851 313.408 399.765 314.681 399.786 315.763L399.984 312.194ZM400.343 310.199C400.216 310.948 400.086 311.263 399.984 312.194L400.343 310.199ZM405.347 319.517C404.869 320.971 401.748 324.076 395.988 323.997C390.225 323.918 388.461 318.836 388.277 316.471C388.109 314.308 388.947 310.139 392.013 307.535C395.099 304.912 399.023 304.838 402.503 307.535C405.388 309.769 405.385 313.186 404.872 314.97C404.564 316.031 403.409 317.072 401.269 318.341C400.203 318.973 399.827 317.663 399.786 315.763L405.347 319.517ZM399.984 312.194C399.42 310.761 395.089 309.091 393.452 312.194C391.763 315.396 393.055 318.092 394.152 318.621C395.554 319.296 397.612 319.649 399.786 315.763L399.984 312.194Z" stroke="black" stroke-width="3.5" stroke-linecap="round"/>
<path d="M96.6841 269.501C95.4552 264.757 91.3746 256.007 84.8855 258.965C78.396 261.922 82.1813 267.221 84.8855 269.501C86.705 270.733 90.6167 272.052 91.7065 267.467C92.7962 262.884 88.2038 260.998 86.9131 263.032C86.2326 263.832 85.4638 265.841 87.835 267.467" stroke="black" stroke-width="3.5" stroke-linecap="round"/>
<path d="M125.319 36.099C125.301 36.044 125.307 36.0119 125.314 35.9917C125.324 35.9654 125.345 35.9336 125.38 35.9076C125.416 35.8816 125.452 35.871 125.48 35.87C125.502 35.869 125.534 35.8728 125.581 35.9066L132.553 40.9112C133.215 41.3864 134.107 41.3813 134.763 40.8986L141.678 35.8143C141.724 35.7801 141.756 35.776 141.778 35.7767C141.806 35.7774 141.843 35.7876 141.879 35.8133C141.914 35.8389 141.936 35.8704 141.945 35.8967C141.953 35.9169 141.959 35.9486 141.941 36.004L139.336 44.1815C139.089 44.9574 139.37 45.8045 140.031 46.2793L140.53 45.585L140.031 46.2793L147.003 51.2842C147.05 51.3181 147.064 51.3475 147.07 51.368C147.078 51.395 147.08 51.4329 147.066 51.475C147.053 51.5167 147.03 51.5468 147.008 51.5642C146.991 51.5775 146.963 51.5936 146.905 51.5939L138.322 51.6432C137.508 51.6476 136.789 52.1764 136.542 52.9523L133.937 61.1298C133.919 61.1852 133.895 61.2074 133.878 61.2194C133.854 61.2354 133.819 61.2484 133.775 61.2488C133.731 61.2491 133.695 61.2361 133.672 61.2207C133.654 61.2088 133.63 61.1866 133.612 61.1315L130.913 52.9845C130.657 52.2113 129.932 51.691 129.117 51.6958L120.535 51.745C120.477 51.7454 120.448 51.7293 120.432 51.7163C120.409 51.6992 120.386 51.6695 120.372 51.6278C120.358 51.5861 120.359 51.5481 120.367 51.5211C120.373 51.5003 120.386 51.4705 120.433 51.4364L127.347 46.3521C128.003 45.8694 128.274 45.0193 128.018 44.2461L125.319 36.099Z" stroke="black" stroke-width="3.5"/>
<path d="M231.19 192.367V221.422" stroke="black" stroke-width="3.5" stroke-linecap="round"/>
<path d="M253.067 195.785V223.473" stroke="black" stroke-width="3.5" stroke-linecap="round"/>
<path d="M201.899 321.606C194.675 322.505 177.764 325.822 174.06 332.568C172.949 334.592 171.66 339.517 175.394 343.024C179.128 346.531 185.951 345.612 188.896 344.71L206.066 337.796" stroke="black" stroke-width="3.5" stroke-linecap="round"/>
<path d="M300.34 270.7C286.861 271.134 227.33 299.955 199.248 314.312C196.857 330.131 206.948 341.49 212.293 345.192C240.283 337.065 297.731 320.596 303.601 319.729C309.471 318.863 315.286 314.673 317.46 312.687C332.678 294.917 321.446 279.82 313.927 274.492C308.575 270.7 303.955 270.583 300.34 270.7Z" fill="black"/>
<path d="M174.083 266.668C183.633 267.305 225.294 283.452 245.034 291.914L199.89 314.473C179.686 320.398 167.275 318.446 163.484 317.169C141.606 306.628 150.178 280.623 158.871 270.99C164.473 266.221 170.661 266.44 174.083 266.668Z" fill="black"/>
<path d="M280.373 324.682C286.342 327.55 289.569 331.309 291.206 334.39C294.712 342.416 288.416 347.239 281.227 344.973C277.254 343.718 276.318 342.877 274.214 341.134C273.146 340.248 268.16 335.615 262.467 330.142" stroke="black" stroke-width="3.5" stroke-linecap="round"/>
<path d="M165.757 187.721L170.339 271.003C170.439 272.816 171.937 274.234 173.752 274.234H301.605C303.493 274.234 305.023 272.704 305.023 270.816V185.748C305.023 183.842 303.464 182.304 301.559 182.33L169.123 184.115C167.18 184.141 165.65 185.78 165.757 187.721Z" fill="black"/>
<path d="M301.776 275.43H172.91C171.116 275.43 169.663 276.884 169.663 278.678C169.663 280.471 171.116 281.925 172.91 281.925H301.776C303.569 281.925 305.023 280.471 305.023 278.678C305.023 276.884 303.569 275.43 301.776 275.43Z" fill="black"/>
<path d="M253.408 146.221C265.315 146.05 291.521 155.108 301.947 183.65" stroke="black" stroke-width="3.5" stroke-linecap="round"/>
<path d="M227.259 146.05C200.085 151.348 187.095 162.97 176.841 185.36" stroke="black" stroke-width="3.5" stroke-linecap="round"/>
<path d="M318.183 173.083L324.849 161.974" stroke="black" stroke-width="3.5" stroke-linecap="round"/>
<path d="M324.849 176.159L333.907 168.639" stroke="black" stroke-width="3.5" stroke-linecap="round"/>
<path d="M326.216 181.287C327.982 181.97 331.993 182.62 333.907 179.749" stroke="black" stroke-width="3.5" stroke-linecap="round"/>
<path d="M151.375 171.003L141.121 160.406" stroke="black" stroke-width="3.5" stroke-linecap="round"/>
<path d="M161.801 169.294L155.648 153.399" stroke="black" stroke-width="3.5" stroke-linecap="round"/>
<path d="M148.812 176.985L141.121 174.079" stroke="black" stroke-width="3.5" stroke-linecap="round"/>
<path d="M308.783 202.822C315.107 212.735 322.285 224.528 308.783 246.717" stroke="black" stroke-width="3.5" stroke-linecap="round"/>
<path d="M253.579 147.075C255.118 142.632 253.716 139.641 252.349 139.071C244.145 146.592 231.703 143.8 227.088 139.242C225.448 140.746 226.405 145.195 227.088 146.563C235.976 156.407 248.623 150.892 253.579 147.075Z" fill="black"/>
<path d="M217.176 174.421L219.92 170.208C222.595 166.102 227.802 164.463 232.347 166.295L238.889 168.933C242.97 170.579 247.646 169.437 250.509 166.096L258.023 157.33" stroke="black" stroke-width="3.5" stroke-linecap="round"/>
<path d="M163.681 209.116C161.117 215.155 158.075 229.797 166.415 240.052" stroke="black" stroke-width="3.5" stroke-linecap="round"/>
<path d="M277.145 77.2085C273.385 90.7105 271.505 91.9069 266.036 97.8888C266.036 91.977 265.021 82.0538 265.021 77.9218C247.113 77.9218 232 70.6116 226.682 66.9565C226.873 79.352 215.252 87.457 215.252 87.457C215.252 87.457 216.919 92.463 217.871 103.667C218.633 112.63 216.442 110.898 215.252 108.911C211.823 97.8505 206.202 100.806 203.821 103.667C174.6 56.1863 219.538 47.0117 228.11 47.8858C234.588 42.3554 243.621 38.0214 249.971 37.3859C272.873 35.0932 283.242 55.3153 277.145 77.2085Z" fill="black"/>
<path d="M215.652 117.362C218.728 136.144 239.377 149.649 254.277 134.435C269.178 119.22 266.196 91.371 264.604 78.3755" stroke="black" stroke-width="3.5" stroke-linecap="round"/>
<path d="M203.483 102.504C201.603 107.118 203.367 117.344 215.652 117.344" stroke="black" stroke-width="3.5" stroke-linecap="round"/>
<path d="M208.901 105.038C208.63 106.025 208.847 108.365 211.892 109.824" stroke="black" stroke-width="3.5" stroke-linecap="round"/>
<path d="M264.19 114.951C268.2 113.279 271.027 107.089 269.939 97.1762" stroke="black" stroke-width="3.5" stroke-linecap="round"/>
<path d="M241.63 126.231C245.561 127.257 245.313 124.435 248.296 121.958" stroke="black" stroke-width="3.5" stroke-linecap="round"/>
<path d="M253.365 104.918C254.781 104.918 255.929 103.771 255.929 102.355C255.929 100.939 254.781 99.791 253.365 99.791C251.949 99.791 250.801 100.939 250.801 102.355C250.801 103.771 251.949 104.918 253.365 104.918Z" fill="black"/>
<path d="M230.805 105.26C232.221 105.26 233.369 104.112 233.369 102.696C233.369 101.28 232.221 100.133 230.805 100.133C229.389 100.133 228.241 101.28 228.241 102.696C228.241 104.112 229.389 105.26 230.805 105.26Z" fill="black"/>
<path d="M225.223 96.8344C225.762 95.2459 228.09 92.3073 233.085 93.2603" stroke="black" stroke-width="3.5" stroke-linecap="round"/>
<path d="M249.15 93.7581C250.342 92.7261 253.582 91.2815 257.012 93.7581" stroke="black" stroke-width="3.5" stroke-linecap="round"/>
<path d="M240.881 100.936C240.482 104.311 240.212 111.156 242.314 111.533" stroke="black" stroke-width="3.5" stroke-linecap="round"/>
<path d="M339.376 255.975C385.009 268.623 466.977 283.15 429.787 240.08C418.053 228.515 400.733 214.957 372.874 202.993" stroke="black" stroke-width="3.5" stroke-linecap="round"/>
<path d="M388.769 167.609C417.14 149.436 462.841 111.892 418.678 107.107C374.515 102.321 334.192 118.9 319.551 127.787" stroke="black" stroke-width="3.5" stroke-linecap="round"/>
<path d="M278.874 141.052C297.674 100.546 328.096 16.5936 299.383 4.83484C263.492 -9.86361 217.004 32.5226 179.062 133.702" stroke="black" stroke-width="3.5" stroke-linecap="round"/>
<path d="M137.251 106.158C95.2074 83.1422 9.37637 47.7405 2.40325 90.2634C-4.56988 132.786 80.623 168.256 124.091 180.676" stroke="black" stroke-width="3.5" stroke-linecap="round"/>
<path d="M135.252 202.993C73.8953 234.27 -2.98356 277.526 39.6005 300.071C57.033 309.3 101.64 303.66 122.15 295.285" stroke="black" stroke-width="3.5" stroke-linecap="round"/>
<path d="M235.634 418C282.357 418 320.234 413.409 320.234 407.745C320.234 402.082 282.357 397.491 235.634 397.491C188.91 397.491 151.033 402.082 151.033 407.745C151.033 413.409 188.91 418 235.634 418Z" fill="black"/>
</svg>
