<svg width="20" height="20" viewBox="0 0 20 20" fill="none" xmlns="http://www.w3.org/2000/svg">
<path d="M6.56686 10.0584C6.56686 9.71675 6.8502 9.43341 7.19186 9.43341H11.7585V2.38341C11.7502 1.98341 11.4335 1.66675 11.0335 1.66675C6.1252 1.66675 2.7002 5.09175 2.7002 10.0001C2.7002 14.9084 6.1252 18.3334 11.0335 18.3334C11.4252 18.3334 11.7502 18.0167 11.7502 17.6167V10.6751H7.19186C6.84186 10.6834 6.56686 10.4001 6.56686 10.0584Z" fill="#1E1E1E"/>
<path d="M17.1167 9.61655L14.75 7.24155C14.5083 6.99989 14.1083 6.99989 13.8667 7.24155C13.625 7.48322 13.625 7.88322 13.8667 8.12489L15.1667 9.42489H11.75V10.6749H15.1583L13.8583 11.9749C13.6167 12.2166 13.6167 12.6166 13.8583 12.8582C13.9833 12.9832 14.1417 13.0416 14.3 13.0416C14.4583 13.0416 14.6167 12.9832 14.7417 12.8582L17.1083 10.4832C17.3583 10.2499 17.3583 9.85822 17.1167 9.61655Z" fill="#1E1E1E"/>
</svg>
