<svg width="304" height="259" viewBox="0 0 304 259" fill="none" xmlns="http://www.w3.org/2000/svg">
<path d="M35.3835 150.96L39.6459 148.87C42.188 147.624 45.2567 148.735 46.4117 151.32L53.7693 167.787C54.8375 170.178 53.8803 172.988 51.5747 174.229L49.3123 175.448C46.9605 176.714 44.0286 175.908 42.6543 173.618L33.2968 158.022C31.7903 155.511 32.7542 152.249 35.3835 150.96Z" fill="black"/>
<path d="M24.814 141.719L38.074 135.495" stroke="black" stroke-width="4" stroke-linecap="round"/>
<path d="M27.2495 123.047L6.23845 130.844C3.44418 131.881 2.16707 135.108 3.53752 137.754C11.4149 152.968 25.6232 178.751 35.0972 190.159C41.3901 197.736 48.8985 211.808 52.6871 218.844C55.1214 223.364 94.0909 270.26 89.2199 252.67C85.44 239.021 40.6176 140.927 16.6907 89.2784C15.507 86.7232 16.6407 83.7101 19.2321 82.608C53.519 68.0248 120.468 41.3297 147.943 36.9915C174.479 32.8017 213.778 14.3465 234.111 3.57022C236.693 2.2018 239.895 3.28011 241.09 5.94691C253.105 32.7686 275.127 83.2318 278.378 112.493C281.536 140.915 308.48 150.825 299.233 174.982C298.892 175.875 298.261 176.639 297.465 177.169C251.446 207.809 181.805 226.687 93.5497 257" stroke="black" stroke-width="4" stroke-linecap="round"/>
<path d="M51.0635 180.687L81.6428 233.998" stroke="black" stroke-width="4" stroke-linecap="round"/>
<path d="M240.494 205.313C238.239 197.735 230.209 181.499 225.339 169.862C222.6 163.318 255.792 156.504 271.503 149.532C275.078 147.946 280.964 149.291 282.57 152.856C287.037 162.774 292.692 175.064 294.346 177.71" stroke="black" stroke-width="4" stroke-linecap="round"/>
<path d="M254.023 148.484L228.315 157.955" stroke="black" stroke-width="4" stroke-linecap="round"/>
<path d="M225.068 151.19L255.918 139.013" stroke="black" stroke-width="4" stroke-linecap="round"/>
<path d="M264.307 135.765L269.719 133.33" stroke="black" stroke-width="4" stroke-linecap="round"/>
<path d="M221.009 143.884L268.907 125.211" stroke="black" stroke-width="4" stroke-linecap="round"/>
<path d="M217.761 136.847L266.471 118.446" stroke="black" stroke-width="4" stroke-linecap="round"/>
<path d="M214.784 130.353L263.765 111.41" stroke="black" stroke-width="4" stroke-linecap="round"/>
<path d="M151.19 152.002L202.336 134.683" stroke="black" stroke-width="4" stroke-linecap="round"/>
<path d="M156.061 159.309L204.772 142.531" stroke="black" stroke-width="4" stroke-linecap="round"/>
<path d="M158.226 167.968L207.207 149.837" stroke="black" stroke-width="4" stroke-linecap="round"/>
<path d="M159.038 176.628L209.913 157.685" stroke="black" stroke-width="4" stroke-linecap="round"/>
<path d="M162.015 185.558L190.7 172.298" stroke="black" stroke-width="4" stroke-linecap="round"/>
<path d="M168.78 189.347L209.372 175.546" stroke="black" stroke-width="4" stroke-linecap="round"/>
<path d="M168.51 198.006L212.619 182.04" stroke="black" stroke-width="4" stroke-linecap="round"/>
<path d="M172.027 205.042L218.573 187.723" stroke="black" stroke-width="4" stroke-linecap="round"/>
<path d="M175.275 212.349L221.279 196.383" stroke="black" stroke-width="4" stroke-linecap="round"/>
<path d="M176.087 219.926L209.913 208.29" stroke="black" stroke-width="4" stroke-linecap="round"/>
<path d="M88.408 213.161L149.567 191.782" stroke="black" stroke-width="4" stroke-linecap="round"/>
<path d="M93.8203 225.879L154.708 203.689" stroke="black" stroke-width="4" stroke-linecap="round"/>
<path d="M117.093 226.692L154.438 212.62" stroke="black" stroke-width="4" stroke-linecap="round"/>
<path d="M120.882 235.621L158.226 219.655" stroke="black" stroke-width="4" stroke-linecap="round"/>
<path d="M99.3419 241.802L97.35 238.057C96.0151 235.548 97.0382 232.432 99.6007 231.202L104.187 229C106.572 227.855 109.436 228.767 110.721 231.08L112.703 234.646C114.07 237.108 113.137 240.212 110.639 241.511L106.063 243.89C103.629 245.156 100.63 244.224 99.3419 241.802Z" stroke="black" stroke-width="4" stroke-linecap="round"/>
<path d="M143.072 140.907C161.474 133.781 200.713 118.933 210.455 116.552" stroke="black" stroke-width="4" stroke-linecap="round"/>
<path d="M140.636 133.33C169.863 117.093 255.485 96.4725 258.083 90.8438" stroke="black" stroke-width="4" stroke-linecap="round"/>
<path d="M136.848 126.564C168.51 110.327 252.724 87.4334 255.106 82.4541" stroke="black" stroke-width="4" stroke-linecap="round"/>
<path d="M52.9578 139.012C85.7019 124.129 235.892 76.5008 251.588 64.3232" stroke="black" stroke-width="4" stroke-linecap="round"/>
<path d="M52.687 131.706C111.41 107.622 232.428 66.8672 248.881 57.5581" stroke="black" stroke-width="4" stroke-linecap="round"/>
<path d="M82.1839 202.336C82.375 196.603 70.4898 174.14 62.4259 159.892C60.8908 157.18 62.1391 153.719 65.0103 152.506C83.1353 144.853 109.384 130.083 122.235 130.083C126.927 130.083 139.282 159.381 145.931 176.021C146.916 178.487 145.782 181.282 143.358 182.368C120.491 192.616 81.9808 208.428 82.1839 202.336Z" fill="black"/>
<path d="M49.7103 117.364L44.723 103.745C44.0636 101.944 46.0713 100.337 47.6838 101.376L57.9767 108.003C59.5266 109 61.4867 107.548 60.9834 105.775L56.7462 90.8438" stroke="black" stroke-width="4" stroke-linecap="round"/>
<path d="M74.0656 84.3491L65.1592 88.6881C64.227 89.1423 63.7965 90.2337 64.1677 91.202L69.0095 103.833C69.4089 104.875 70.5837 105.388 71.6198 104.974L80.5603 101.398" stroke="black" stroke-width="4" stroke-linecap="round"/>
<path d="M67.0295 98.4205L76.501 94.3613" stroke="black" stroke-width="4" stroke-linecap="round"/>
<path d="M79.4778 86.2428L85.9413 94.9281C86.8878 96.2 88.8673 95.9175 89.4202 94.4316L91.1974 89.6554C91.7476 88.1767 93.7133 87.8876 94.666 89.1452L95.6384 90.4287C96.796 91.9568 99.2325 91.1381 99.2325 89.221V75.9595" stroke="black" stroke-width="4" stroke-linecap="round"/>
<path d="M115.742 72.1712C113.575 69.4651 108.165 70.0063 107.353 75.6892C106.271 83.2663 119.529 77.5835 121.425 83.2663C124.423 92.2509 109.338 91.0239 108.165 88.6786" stroke="black" stroke-width="4" stroke-linecap="round"/>
<path d="M126.294 67.5708L132.935 80.8521C133.445 81.8724 134.703 82.26 135.699 81.7036L143.072 77.5835" stroke="black" stroke-width="4" stroke-linecap="round"/>
<path d="M153.355 58.9111L145.933 63.0589C144.956 63.6048 144.617 64.846 145.181 65.8126L150.787 75.4225C151.318 76.3334 152.465 76.6753 153.409 76.2036L164.721 70.5475" stroke="black" stroke-width="4" stroke-linecap="round"/>
<path d="M148.755 71.3596L154.979 67.0298" stroke="black" stroke-width="4" stroke-linecap="round"/>
<path d="M162.827 57.5583L177.981 50.793" stroke="black" stroke-width="4" stroke-linecap="round"/>
<path d="M170.945 54.04L178.522 67.0295" stroke="black" stroke-width="4" stroke-linecap="round"/>
<path d="M180.958 51.063L192.053 44.8389" stroke="black" stroke-width="4" stroke-linecap="round"/>
<path d="M186.099 48.3574L192.594 60.8056" stroke="black" stroke-width="4" stroke-linecap="round"/>
<path d="M206.937 36.7212L198.213 42.6902C197.337 43.289 197.082 44.4668 197.63 45.3746L204.244 56.3297C204.829 57.2976 206.098 57.589 207.046 56.9729L216.137 51.0637" stroke="black" stroke-width="4" stroke-linecap="round"/>
<path d="M201.254 51.6046L210.184 46.1924" stroke="black" stroke-width="4" stroke-linecap="round"/>
<path d="M223.444 50.5224L215.428 36.2434C215.037 35.5478 215.081 34.6669 215.663 34.1216C219.615 30.4201 225.798 32.6552 223.433 38.1689C222.862 39.4979 223.395 41.1886 224.795 41.5515L236.433 44.5689" stroke="black" stroke-width="4" stroke-linecap="round"/>
</svg>
