<svg width="24" height="24" viewBox="0 0 24 24" fill="none" xmlns="http://www.w3.org/2000/svg">
<path d="M11.925 22.275C6.69374 22.275 1.04999 18.9938 1.04999 11.7938C1.04999 4.59375 6.69374 1.3125 11.925 1.3125C14.8312 1.3125 17.5125 2.26875 19.5 4.0125C21.6562 5.925 22.8 8.625 22.8 11.7938C22.8 14.9625 21.6562 17.6438 19.5 19.5563C17.5125 21.3 14.8125 22.275 11.925 22.275Z" fill="url(#paint0_radial_1356_17800)"/>
<path d="M20.9044 5.56299C21.9037 7.17549 22.425 9.09549 22.425 11.2311C22.425 14.3999 21.2812 17.0811 19.125 18.9936C17.1375 20.7374 14.4375 21.7124 11.55 21.7124C8.16374 21.7124 4.61249 20.3342 2.51624 17.4111C4.53374 20.7224 8.32874 22.2749 11.925 22.2749C14.8125 22.2749 17.5125 21.2999 19.5 19.5561C21.6562 17.6436 22.8 14.9624 22.8 11.7936C22.8 9.40486 22.1494 7.28236 20.9044 5.56299Z" fill="#EB8F00"/>
<path d="M12 16.3408C14.0287 16.3408 15.3431 17.8258 15.6844 18.5102C15.8156 18.7746 15.8231 18.994 15.7106 19.0971C15.5925 19.174 15.4387 19.174 15.3206 19.0971C15.2625 19.069 15.2044 19.0371 15.1519 18.9996C14.2331 18.3412 13.1312 17.9871 12.0009 17.9871C10.8706 17.9871 9.76872 18.3412 8.84999 18.9996C8.79749 19.0371 8.74124 19.069 8.68124 19.0971C8.56312 19.1758 8.40937 19.1758 8.29124 19.0971C8.17874 18.994 8.18624 18.7746 8.31749 18.5102C8.65687 17.8277 9.97124 16.3408 12 16.3408ZM5.13562 7.45709C4.72312 7.53021 4.70249 8.13021 5.15249 8.15084C6.14624 8.16584 7.10624 7.79834 7.83749 7.12521C8.11544 6.88607 8.35067 6.60138 8.53312 6.28334C8.64187 6.12771 8.60437 5.91396 8.45062 5.80334C8.29687 5.69271 8.08124 5.73209 7.97062 5.88584L7.95187 5.90459C7.21499 6.72771 6.22312 7.27334 5.13562 7.45709ZM16.1475 5.91021L16.1287 5.89146C16.0762 5.81675 15.9961 5.76591 15.9062 5.7501C15.8162 5.73428 15.7236 5.75478 15.6487 5.80709C15.6117 5.83308 15.5801 5.86615 15.5559 5.90439C15.5317 5.94263 15.5152 5.98529 15.5076 6.02991C15.4999 6.07453 15.5011 6.12023 15.5112 6.16437C15.5213 6.2085 15.54 6.25021 15.5662 6.28709C15.75 6.60396 15.9862 6.88709 16.2656 7.12521C16.9969 7.79834 17.9569 8.16396 18.9506 8.14709C19.4006 8.12646 19.38 7.52646 18.9656 7.45334C17.8781 7.27146 16.8862 6.72771 16.1475 5.91021Z" fill="#422B0D"/>
<path d="M3.66 20.0626C2.07375 20.0626 0.847504 18.5232 0.847504 17.2051C0.847504 16.2788 1.26188 15.2045 1.84875 13.7157C1.92188 13.4963 2.01938 13.2751 2.11688 13.0313C2.39625 12.3338 2.64188 11.5782 3.01688 10.9238C3.07407 10.8214 3.15758 10.7361 3.25877 10.6767C3.35996 10.6173 3.47517 10.5859 3.5925 10.5859C3.70984 10.5859 3.82505 10.6173 3.92624 10.6767C4.02743 10.7361 4.11093 10.8214 4.16813 10.9238C4.51688 11.567 4.75688 12.2626 5.11875 13.0745C6.14438 15.3695 6.43125 16.2976 6.43125 17.2238C6.46688 18.5307 5.22188 20.0626 3.66 20.0626Z" fill="url(#paint1_radial_1356_17800)"/>
<path d="M5.37561 18.3095C5.01749 18.872 4.20374 18.7595 4.20374 17.8389C4.20374 17.2502 4.32374 14.2277 4.82999 14.6514C5.65124 15.3395 5.88561 17.5258 5.37561 18.3095Z" fill="#81D4FA"/>
<path d="M8.37561 10.3013C7.58999 10.3013 6.87561 10.965 6.87561 12.0675C6.87561 13.17 7.58999 13.8319 8.37561 13.8319C9.16124 13.8319 9.87561 13.1681 9.87561 12.0675C9.87561 10.9669 9.16124 10.3013 8.37561 10.3013Z" fill="#422B0D"/>
<path d="M8.3025 11.0381C8.17412 10.977 8.0268 10.9692 7.89264 11.0162C7.75848 11.0633 7.64835 11.1615 7.58625 11.2893C7.48688 11.4975 7.53188 11.7468 7.69875 11.9081C7.965 12.0356 8.28563 11.9231 8.415 11.6568C8.51438 11.4487 8.46938 11.1993 8.3025 11.0381Z" fill="#896024"/>
<path d="M15.5625 10.3013C14.7769 10.3013 14.0625 10.965 14.0625 12.0675C14.0625 13.17 14.7769 13.8319 15.5625 13.8319C16.3481 13.8319 17.0625 13.1681 17.0625 12.0675C17.0625 10.9669 16.3519 10.3013 15.5625 10.3013Z" fill="#422B0D"/>
<path d="M15.4931 11.0381C15.3647 10.977 15.2174 10.9692 15.0832 11.0162C14.9491 11.0633 14.839 11.1615 14.7769 11.2893C14.6775 11.4975 14.7225 11.7468 14.8894 11.9081C15.1556 12.0356 15.4762 11.9231 15.6056 11.6568C15.705 11.4487 15.66 11.1993 15.4931 11.0381Z" fill="#896024"/>
<defs>
<radialGradient id="paint0_radial_1356_17800" cx="0" cy="0" r="1" gradientUnits="userSpaceOnUse" gradientTransform="translate(11.925 11.7938) scale(10.68)">
<stop offset="0.5" stop-color="#FDE030"/>
<stop offset="0.92" stop-color="#F7C02B"/>
<stop offset="1" stop-color="#F4A223"/>
</radialGradient>
<radialGradient id="paint1_radial_1356_17800" cx="0" cy="0" r="1" gradientUnits="userSpaceOnUse" gradientTransform="translate(3.86063 11.8014) scale(6.2625 9.64425)">
<stop offset="0.46" stop-color="#29B6F6"/>
<stop offset="1" stop-color="#1E88E5"/>
</radialGradient>
</defs>
</svg>