<svg width="485" height="419" viewBox="0 0 485 419" fill="none" xmlns="http://www.w3.org/2000/svg">
<path d="M377.248 4.01022L336.973 161.888C336.837 162.421 337.156 162.963 337.687 163.102L341.954 164.225C342.49 164.366 343.038 164.044 343.177 163.508L383.79 5.88841C383.924 5.36839 383.623 4.83538 383.109 4.68107L378.504 3.29958C377.96 3.13619 377.388 3.45923 377.248 4.01022Z" stroke="black" stroke-width="5" stroke-linecap="round"/>
<path d="M168.948 216.481C168.281 122.92 191.452 90.4228 205.41 84.6686C206.911 84.0501 208.584 84.5423 209.828 85.5842L209.982 85.7136C219.114 93.3615 250.245 119.432 248.317 150.5C248.317 192.583 217.003 236.903 207.869 253.866C198.735 270.83 170.136 269.199 156.978 266.263C118.048 253.105 42.9299 222.744 53.891 206.564C64.1527 191.416 126.489 208.824 162.152 221.368C165.476 222.537 168.973 220.005 168.948 216.481Z" fill="black"/>
<path d="M254.217 147.55C264.944 151.037 275.135 140.309 279.426 134.946" stroke="black" stroke-width="5" stroke-linecap="round"/>
<path d="M55.8518 192.707C51.0671 188.14 39.0186 181.158 29.1014 189.771C19.1842 198.383 9.31044 211.193 5.61323 216.521C3.00343 220.762 0.0674135 228.918 9.20169 227.613C20.6195 225.982 28.1228 211.628 37.9095 212.933" stroke="black" stroke-width="5" stroke-linecap="round"/>
<path d="M156.536 199.975C159.196 192.872 163.723 183.309 167.657 175.464C169.517 171.755 174.711 171.945 176.108 175.852C184.034 198.018 188.511 229.626 160.24 229.4C119.462 229.074 53.8907 185.359 74.4429 177.53C89.2748 171.88 126.282 190.405 147.915 203.267C150.998 205.1 155.277 203.334 156.536 199.975Z" fill="black"/>
<path d="M75.4218 173.751C70.0059 168.678 56.4536 159.065 45.5715 161.196C31.9688 163.859 5.14135 182.882 13.8319 186.687C22.5225 190.491 35.2962 181.118 51.6074 181.118" stroke="black" stroke-width="5" stroke-linecap="round"/>
<path d="M183.076 114.218C158.156 104.475 101.628 110.894 102.844 182.423" stroke="black" stroke-width="5" stroke-linecap="round"/>
<path d="M232.009 182.423V239.309C232.009 248.158 229.726 263.327 211.131 263.327" stroke="black" stroke-width="5" stroke-linecap="round"/>
<path d="M175.08 269.473L231.379 263.395C231.797 263.35 232.233 263.356 232.647 263.43C249.825 266.46 244.579 287.794 232.009 287.794H101.027C100.277 287.794 99.5218 287.627 98.8617 287.271C83.3199 278.886 92.623 261.41 103.803 263.327L174.107 269.483C174.431 269.511 174.757 269.508 175.08 269.473Z" stroke="black" stroke-width="5" stroke-linecap="round"/>
<path d="M108.127 288.12L102.467 373.072C102.308 375.471 104.211 377.505 106.615 377.505V377.505C108.636 377.505 110.365 376.052 110.711 374.06L125.66 288.12" stroke="black" stroke-width="5" stroke-linecap="round"/>
<path d="M226.055 288.12L231.714 373.072C231.874 375.471 229.971 377.505 227.566 377.505V377.505C225.545 377.505 223.817 376.052 223.471 374.06L208.521 288.12" stroke="black" stroke-width="5" stroke-linecap="round"/>
<path d="M104.13 245.711C103.368 251.257 104.847 262.218 116.852 261.696" stroke="black" stroke-width="5" stroke-linecap="round"/>
<path d="M212.436 82.2727C219.939 76.0744 240.883 66.2876 275.071 75.4219" stroke="black" stroke-width="5" stroke-linecap="round"/>
<path d="M266.263 73.4643C278.224 59.5454 315.001 34.4478 366.414 45.409" stroke="black" stroke-width="5" stroke-linecap="round"/>
<path d="M335.749 70.5283C307.911 80.75 261.66 110.866 293.992 153.716C318.607 186.338 326.615 159.261 316.502 133.163C314.871 127.618 312.587 118.549 324.331 113.59" stroke="black" stroke-width="5" stroke-linecap="round"/>
<path d="M313.083 173.941C311.125 178.509 312.886 186.142 316.018 187.969" stroke="black" stroke-width="5" stroke-linecap="round"/>
<path d="M325.31 176.877C328.092 175.331 333.805 173.2 341.893 174.925C342.785 175.116 343.59 175.588 344.215 176.252C348.667 180.982 355.382 189.207 352.712 190.905C349.842 192.732 344.557 186.012 343.252 183.728" stroke="black" stroke-width="5" stroke-linecap="round"/>
<path d="M347.167 188.622C349.124 191.558 349.124 194.494 346.514 195.472C343.904 196.451 340.642 190.253 339.664 187.643" stroke="black" stroke-width="5" stroke-linecap="round"/>
<path d="M343.904 194.82C343.469 196.138 340.911 198.38 338.032 195.472C336.075 193.495 335.423 192.21 334.444 190.252" stroke="black" stroke-width="5" stroke-linecap="round"/>
<path d="M324.331 188.622H247.267C244.577 188.622 242.38 190.823 243.396 193.313C244.614 196.295 247.18 199.515 252.103 200.598C252.405 200.665 252.717 200.692 253.026 200.692H265.504C268.265 200.692 270.504 202.93 270.504 205.692V399.256C270.504 402.017 272.742 404.256 275.504 404.256H396.426" stroke="black" stroke-width="5" stroke-linecap="round"/>
<path d="M269.199 199.387V210.479L442.098 204.775V199.387H269.199Z" fill="black"/>
<path d="M440.467 258.107V205.202C440.467 202.505 442.605 200.294 445.3 200.204L450.254 200.039C455.125 200.039 458.214 198.221 459.575 194.04C460.451 191.353 458.024 188.948 455.197 188.948H353.691" stroke="black" stroke-width="5" stroke-linecap="round"/>
<path d="M337.38 195.472C336.184 197.538 332.095 199.126 325.31 188.948" stroke="black" stroke-width="5" stroke-linecap="round"/>
<path d="M342.926 164.155C357.606 148.17 386.052 94.2125 383.704 4.95752" stroke="black" stroke-width="5" stroke-linecap="round"/>
<circle cx="385.987" cy="89.7755" r="7.28673" stroke="black" stroke-width="5"/>
<path d="M383.704 98.584L396.427 162.198C397.514 167.744 395.97 179.227 381.094 180.793H354.017C352.93 180.684 350.755 180.988 350.755 183.076" stroke="black" stroke-width="5" stroke-linecap="round"/>
<path d="M387.619 187.969C394.796 186.229 408.301 178.183 404.909 159.914C401.516 141.645 394.361 110.11 391.207 96.6265" stroke="black" stroke-width="5" stroke-linecap="round"/>
<path d="M399.838 415.222L388.006 363.223C387.834 362.469 388.556 361.816 389.295 362.04C422.596 372.142 448.678 366.967 459.446 362.398C460.22 362.069 461.081 362.747 460.904 363.57L449.771 415.211C449.672 415.671 449.265 416 448.794 416H400.813C400.346 416 399.942 415.677 399.838 415.222Z" stroke="black" stroke-width="5" stroke-linecap="round"/>
<path d="M449.773 244.262C417.922 284.237 414.914 340.03 417.772 365.52C417.875 366.44 418.603 367.138 419.526 367.217C425.795 367.754 436.609 367.974 440.903 365.467C441.269 365.253 441.517 364.873 441.641 364.467C467.229 280.209 456.116 261.433 453.635 245.473C453.351 243.647 450.925 242.817 449.773 244.262Z" fill="black"/>
<path d="M484.627 274.428C484.959 301.714 464.387 337.339 449.633 358.547C448.315 360.442 445.42 358.861 446.142 356.667C454.585 330.994 459.538 302.814 460.023 292.439C460.036 292.161 460.1 291.907 460.227 291.66C464.277 283.789 475.086 276.531 481.887 272.833C483.129 272.158 484.61 273.014 484.627 274.428Z" fill="black"/>
<path d="M406.539 231.683C421.154 246.037 427.2 267.677 428.396 276.702C415.608 308.281 414.804 349.885 416 366.74C414.173 366.74 411.541 366.088 410.454 365.761C386.183 313.565 397.731 254.628 406.539 231.683Z" fill="black"/>
<path d="M387.108 317.807C388.152 346.254 384.139 354.561 388.923 363.152C385.792 363.152 392.763 376.745 389.718 375.549C350.832 335.097 343.72 289.099 345.025 271.157C360.684 276.898 379.605 304.649 387.108 317.807Z" fill="black" fill-opacity="0.3"/>
<path d="M394.143 305.084C395.187 333.53 405.017 357.823 409.801 366.414C406.67 366.414 399.797 364.022 396.753 362.825C357.867 322.374 350.755 276.376 352.06 258.434C367.719 264.175 386.64 291.926 394.143 305.084Z" fill="black"/>
</svg>
