<svg width="87" height="82" viewBox="0 0 87 82" fill="none" xmlns="http://www.w3.org/2000/svg">
<path d="M40.9473 73.9221C42.0854 74.1868 45.3144 74.3668 45.9496 72.334" stroke="black" stroke-width="1.11321" stroke-linecap="round"/>
<path d="M42.6143 69.4755C44.5199 71.3018 47.5373 74.2397 49.1253 71.8576L50.0782 70.2696" stroke="black" stroke-width="1.11321" stroke-linecap="round"/>
<path d="M42.6143 64.5526C44.7846 66.617 51.4439 71.5718 54.3659 69.7932C54.8953 69.4491 55.9699 68.348 56.0334 66.6965" stroke="black" stroke-width="1.11321" stroke-linecap="round"/>
<path d="M47.8557 61.7734C50.5289 63.8644 56.4312 67.6016 58.6545 65.823C60.8778 64.0443 58.5751 61.5881 57.1458 60.5824L47.5381 52.8008" stroke="black" stroke-width="1.11321" stroke-linecap="round"/>
<path d="M20.2227 54.2301C21.4137 54.8557 22.7278 56.4783 23.1606 57.9621C23.7164 59.8677 25.278 61.5087 25.9397 62.0116" stroke="black" stroke-width="1.11321" stroke-linecap="round"/>
<path d="M44.0436 43.5901C42.4556 42.9549 38.009 41.6685 34.5152 42.2402C31.0215 42.8119 31.3391 41.6844 29.6716 40.7316L20.2227 34.9351" stroke="black" stroke-width="1.11321" stroke-linecap="round"/>
<path d="M56.748 43.1137L60.2418 41.2874M59.8448 63.6791C61.3058 63.298 63.7355 61.1382 64.7678 60.106L68.8173 57.962" stroke="black" stroke-width="1.11321" stroke-linecap="round"/>
<path d="M57.0664 51.6098C54.7373 53.0126 48.9038 54.7383 44.2031 51.054" stroke="black" stroke-width="1.11321" stroke-linecap="round"/>
<path d="M44.2031 51.0541C42.4562 53.5156 38.359 58.2162 35.9451 57.3269C33.5313 56.4376 34.6217 53.8332 35.4687 52.6421C37.9302 47.7191 45.6323 38.9212 56.7488 43.1137" stroke="black" stroke-width="1.11321" stroke-linecap="round"/>
<path d="M41.1058 71.0635C41.0423 73.4139 40.2853 74.4249 39.9147 74.6367C38.1083 75.6689 36.1034 74.0808 36.6629 72.7901C37.047 72.0751 37.5616 70.6 37.7708 69.9519C38.258 68.4432 41.1693 68.7132 41.1058 71.0635Z" stroke="black" stroke-width="1.11321" stroke-linecap="round"/>
<path d="M34.5155 73.2869C31.8475 73.8586 31.8158 71.143 33.0068 69.7931C33.3885 69.3606 34.3408 68.4717 35.5477 67.4904C36.7546 66.5092 37.5328 67.3463 37.771 67.8875C38.0856 68.6021 37.1834 72.7152 34.5155 73.2869Z" stroke="black" stroke-width="1.11321" stroke-linecap="round"/>
<path d="M30.0691 70.1108C27.1471 70.0472 27.29 67.4905 28.481 66.3788C29.4074 65.3995 31.7683 63.5838 33.8011 64.1555C35.8338 64.7272 35.3891 66.617 34.9127 67.5699C34.5157 68.4433 32.9911 70.1743 30.0691 70.1108Z" stroke="black" stroke-width="1.11321" stroke-linecap="round"/>
<path d="M31.0215 61.297C27.9089 60.5347 25.278 62.4086 24.3517 63.4408C23.7164 64.2666 23.7694 65.2142 23.8752 65.5848C24.6375 67.4904 28.163 66.1141 29.8305 65.1877C31.5244 64.2084 34.1341 62.0592 31.0215 61.297Z" stroke="black" stroke-width="1.11321" stroke-linecap="round"/>
<path d="M35.3096 32.7119C35.786 33.7706 36.5959 36.3803 36.0242 38.3495" stroke="black" stroke-width="1.11321" stroke-linecap="round"/>
<path d="M38.248 34.6969C38.3804 35.2792 38.6451 36.682 38.6451 37.6348" stroke="black" stroke-width="1.11321" stroke-linecap="round"/>
<path d="M48.1729 29.0593L49.9991 35.4909" stroke="black" stroke-width="1.11321" stroke-linecap="round"/>
<path d="M53.3341 31.9178L52.7783 35.7291" stroke="black" stroke-width="1.11321" stroke-linecap="round"/>
<path d="M58.2576 34.6969L55.4785 36.8408" stroke="black" stroke-width="1.11321" stroke-linecap="round"/>
<circle cx="3.31013" cy="41.6844" r="2.4615" fill="black"/>
<path d="M7.35542 41.8947C11.5195 41.466 18.0535 41.9729 18.8257 45.194C19.598 48.4151 16.649 49.5931 15.078 49.7795C9.09683 50.7302 1.16602 50.2828 1.16602 45.194" stroke="black" stroke-width="1.11321" stroke-linecap="round"/>
<circle cx="5.85097" cy="46.2898" r="0.556604" stroke="black" stroke-width="0.633664"/>
<mask id="path-22-inside-1_3532_21798" fill="white">
<ellipse cx="9.9001" cy="46.2898" rx="0.952839" ry="0.873436"/>
</mask>
<path d="M9.73974 46.2898C9.73974 46.1906 9.78586 46.1196 9.82164 46.0868C9.85581 46.0555 9.88646 46.05 9.9001 46.05V48.2765C10.948 48.2765 11.9662 47.4762 11.9662 46.2898H9.73974ZM9.9001 46.05C9.91375 46.05 9.9444 46.0555 9.97857 46.0868C10.0144 46.1196 10.0605 46.1906 10.0605 46.2898H7.83406C7.83406 47.4762 8.85222 48.2765 9.9001 48.2765V46.05ZM10.0605 46.2898C10.0605 46.3891 10.0144 46.46 9.97857 46.4928C9.9444 46.5241 9.91375 46.5296 9.9001 46.5296V44.3032C8.85222 44.3032 7.83406 45.1034 7.83406 46.2898H10.0605ZM9.9001 46.5296C9.88646 46.5296 9.85581 46.5241 9.82164 46.4928C9.78586 46.46 9.73974 46.3891 9.73974 46.2898H11.9662C11.9662 45.1034 10.948 44.3032 9.9001 44.3032V46.5296Z" fill="black" mask="url(#path-22-inside-1_3532_21798)"/>
<circle cx="13.9506" cy="46.2898" r="0.556604" stroke="black" stroke-width="0.633664"/>
<circle cx="72.3906" cy="71.3812" r="2.30269" fill="black"/>
<path d="M76.135 69.7137C77.5315 69.7137 81.5218 69.7137 83.3987 69.7137C84.9192 69.7137 85.6511 70.0501 85.6511 72.4042C85.6511 74.6916 85.6323 77.6544 85.6511 78.8502C85.6642 79.6909 85.2456 80.6214 83.8492 80.7559C82.4527 80.8904 76.8481 80.812 74.2204 80.7559C73.2444 80.7559 71.5175 80.2026 71.5176 77.9533L71.5176 75.431" stroke="black" stroke-width="1.11321" stroke-linecap="round"/>
<path d="M75.1699 73.6839L78.6637 76.066" stroke="black" stroke-width="1.11321" stroke-linecap="round"/>
<path d="M78.6641 76.066L85.0163 70.1902" stroke="black" stroke-width="1.11321" stroke-linecap="round"/>
<path d="M73.8994 78.1305L76.4605 74.6367M80.2737 74.6367L83.7454 78.1305" stroke="black" stroke-width="1.11321" stroke-linecap="round"/>
<path d="M73.5426 32.5602L65.2846 38.833C54.8033 46.8528 65.0463 55.8518 68.8577 57.8898L81.0065 50.1083" stroke="black" stroke-width="1.11321" stroke-linecap="round"/>
<path d="M38.3906 12.2643C39.5817 12.1054 42.1385 11.2003 42.8372 8.84991" stroke="black" stroke-width="1.11321" stroke-linecap="round"/>
<path d="M34.5 10.3586C35.294 10.3851 37.1203 9.99335 38.0731 8.21472" stroke="black" stroke-width="1.11321" stroke-linecap="round"/>
<path d="M30.9268 7.50009C32.1972 7.23624 34.9604 6.4145 35.8498 5.23834" stroke="black" stroke-width="1.11321" stroke-linecap="round"/>
<path d="M42.3892 16.2634C34.4945 18.0047 27.1324 10.2443 24.1229 5.71236C23.9634 5.47217 24.0796 5.15004 24.353 5.05837L36.6911 0.920625C36.8555 0.865485 37.0361 0.910829 37.158 1.03409C41.2449 5.16393 48.6719 7.04844 52.8272 7.61906C53.2328 7.67477 53.3766 8.20587 53.047 8.44892L42.5547 16.188C42.5056 16.2242 42.4488 16.2503 42.3892 16.2634Z" stroke="black" stroke-width="1.11321" stroke-linecap="round"/>
</svg>
