<svg width="96" height="81" viewBox="0 0 96 81" fill="none" xmlns="http://www.w3.org/2000/svg">
<path d="M20.8422 51.0174C18.3665 46.504 20.3023 44.6903 21.4672 43.8223C21.3296 47.2403 23.6507 49.0764 24.882 49.5458L24.7632 50.5553C24.5455 50.2782 21.9365 50.4142 20.8422 51.0174Z" fill="black"/>
<path d="M35.8048 49.6207C34.199 51.1465 32.8221 51.1249 32.195 51.1955C30.0658 50.6969 29.1043 50.8038 28.2496 51.0531L28.5553 48.7555C29.7149 47.9178 30.5429 46.4289 30.8119 45.7893C31.1142 46.0448 31.5073 45.9475 31.6661 45.867C31.8702 45.7341 32.2618 45.234 32.195 44.2966C32.1283 43.3593 31.4477 43.611 31.1157 43.854L29.4573 44.0327C29.527 42.4829 28.5718 41.9657 28.0854 41.9009C28.4676 41.0424 27.784 40.6668 27.4242 40.5193C26.9081 41.1517 26.2318 41.4065 25.9458 41.525C23.0352 42.2865 21.2586 41.244 20.4386 39.9429C19.5484 38.6295 19.6925 35.5453 22.2107 34.7945C23.0342 34.4776 24.9863 34.2178 26.2074 35.7134C29.8021 34.3924 31.5035 38.1732 31.9702 39.5461L32.5096 40.7979C37.1942 41.7944 37.6064 46.2251 36.7836 48.1655C36.4105 49.0454 36.3615 49.0919 35.8295 49.5972L35.8048 49.6207Z" fill="black"/>
<path d="M29.4325 44.0539C29.2469 45.1102 28.3373 45.8035 27.4281 45.6438C26.519 45.4841 25.9001 44.5223 26.0857 43.466C26.2712 42.4097 27.1809 41.7164 28.09 41.8761C28.9992 42.0358 29.6181 42.9976 29.4325 44.0539Z" stroke="black" stroke-width="0.402878"/>
<path d="M24.9023 43.9089C24.7167 44.9652 23.8071 45.6585 22.8979 45.4988C21.9887 45.3391 21.3698 44.3773 21.5554 43.321C21.7409 42.2646 22.6506 41.5713 23.5598 41.731C24.469 41.8908 25.0878 42.8526 24.9023 43.9089Z" stroke="black" stroke-width="0.402878"/>
<path d="M24.957 43.5123L26.0811 43.5818" stroke="black" stroke-width="0.402878" stroke-linecap="round"/>
<path d="M24.5459 47.8124C24.7714 48.0617 25.4005 48.4107 26.1128 47.8124" stroke="black" stroke-width="0.402878" stroke-linecap="round"/>
<path d="M25.5858 44.6075C25.2564 45.4535 24.5827 46.1596 25.3275 46.6954" stroke="black" stroke-width="0.402878" stroke-linecap="round"/>
<path d="M22.5268 45.3462C22.8174 45.3972 23.0943 45.203 23.1454 44.9125C23.1964 44.6219 23.0022 44.3449 22.7117 44.2939C22.4211 44.2429 22.1442 44.437 22.0931 44.7276C22.0421 45.0182 22.2363 45.2951 22.5268 45.3462Z" fill="black"/>
<path d="M26.9868 45.4789C27.2774 45.53 27.5543 45.3358 27.6053 45.0452C27.6564 44.7546 27.4622 44.4777 27.1716 44.4267C26.8811 44.3756 26.6041 44.5698 26.5531 44.8604C26.502 45.1509 26.6962 45.4279 26.9868 45.4789Z" fill="black"/>
<path d="M31.5354 44.4955C31.5926 44.6502 31.648 45.007 31.4121 45.197" stroke="black" stroke-width="0.402878" stroke-linecap="round"/>
<path d="M21.9875 41.4187C21.3167 42.6989 20.7133 45.827 23.3923 48.5248C26.0713 51.2228 28.9432 48.6925 30.0443 47.09L30.823 45.7444C31.1464 46.0302 31.8557 46.2874 32.1056 45.0296C32.3555 43.7718 31.8625 43.6008 31.5847 43.6726C31.4342 43.7064 31.1042 43.8557 30.9889 44.1826" stroke="black" stroke-width="0.402878" stroke-linecap="round"/>
<path d="M29.4551 43.9856L31.2951 43.8026" stroke="black" stroke-width="0.402878" stroke-linecap="round"/>
<path d="M27.4824 43.6863C27.7729 43.7277 28.3514 43.9603 28.3413 44.5598" stroke="black" stroke-width="0.402878" stroke-linecap="round"/>
<path d="M22.2656 43.3361C22.4873 43.2386 23.0293 43.1225 23.4239 43.4373" stroke="black" stroke-width="0.402878" stroke-linecap="round"/>
<path d="M18.6268 60.5587C18.449 61.2963 18.239 63.4144 18.8326 64.366" stroke="black" stroke-width="0.402878" stroke-linecap="round"/>
<path d="M24.6902 50.5133C22.5533 50.117 18.3857 51.2071 17.9873 54.7765" stroke="black" stroke-width="0.402878" stroke-linecap="round"/>
<path d="M30.1173 58.0958C30.0106 57.5128 29.8328 56.3397 30.6866 55.169" stroke="black" stroke-width="0.402878" stroke-linecap="round"/>
<path d="M28.3109 51.0484C32.8617 50.2953 33.9698 52.2969 34.8008 55.7452C35.7178 59.5502 34.6227 64.9007 30.1178 66.3871C27.9195 66.3901 25.2836 65.4361 22.7707 62.6022C22.3314 62.1065 21.7893 61.3299 22.5333 60.7591C23.4632 60.0457 28.4424 60.6798 30.1178 62.1065" stroke="black" stroke-width="0.402878" stroke-linecap="round"/>
<path d="M17.8466 54.8179C17.2616 55.1996 17.7125 56.9712 17.9563 57.6808L18.1685 57.6004L18.1091 57.3226L18.1289 57.0447C18.2386 56.7511 18.8717 56.5309 19.2373 57.0447C19.5948 57.5471 20.0488 57.9775 20.2965 58.0845C21.2618 58.6425 21.0887 57.7298 20.8815 57.2037C20.7596 56.959 20.4135 56.1246 20.2965 55.3317C20.1795 54.5389 19.6749 54.4509 19.3823 54.4141C19.1142 54.3897 18.4317 54.4361 17.8466 54.8179Z" fill="black"/>
<path d="M15.7207 55.8144L16.8972 55.7083" stroke="black" stroke-width="0.402878" stroke-linecap="round"/>
<path d="M16.9324 55.0713L15.1143 54.7529" stroke="black" stroke-width="0.402878" stroke-linecap="round"/>
<path d="M17.2536 54.5407L16.1484 53.7976" stroke="black" stroke-width="0.402878" stroke-linecap="round"/>
<path d="M18.9207 54.1117C18.7234 54.0528 18.3217 54.0835 18.293 54.6774" stroke="black" stroke-width="0.402878" stroke-linecap="round"/>
<path d="M19.595 53.7228C19.4053 53.6744 19.0547 53.7056 18.9202 54.1117C18.8912 54.1994 18.8723 54.3045 18.8672 54.4299" stroke="black" stroke-width="0.402878" stroke-linecap="round"/>
<path d="M20.6993 56.9756C20.6753 56.7517 20.7802 56.3557 20.9866 56.1271C21.2739 55.8088 21.3577 55.2078 21.3816 54.8542C21.4056 54.7128 21.4914 54.3286 21.1662 54.2885C20.8789 54.2532 20.8429 54.5007 20.807 54.6775C20.7951 54.9013 20.4479 55.0939 20.4479 54.536C20.4479 54.1117 20.4838 54.0057 20.4838 53.5814C20.4838 53.1218 20.5556 52.6975 20.0169 52.6975C19.5859 52.7329 19.6577 53.0157 19.5954 53.7228C19.59 53.8716 19.5975 54.0362 19.6218 54.2178" stroke="black" stroke-width="0.402878" stroke-linecap="round"/>
<path d="M17.7283 56.4255C17.0591 57.4801 16.06 60.6912 18.109 63.393" stroke="black" stroke-width="0.402878" stroke-linecap="round"/>
<path d="M18.3797 59.5449C18.2133 59.7827 18.0582 60.3222 18.769 60.5789C19.4798 60.8357 21.3582 61.7802 22.0097 62.2318" stroke="black" stroke-width="0.402878" stroke-linecap="round"/>
<path d="M18.3423 58.6892C18.1647 58.8675 17.9789 59.2026 18.3795 59.5449C18.5227 59.6672 18.7388 59.7889 19.0532 59.9015" stroke="black" stroke-width="0.402878" stroke-linecap="round"/>
<path d="M19.1957 58.3327C19.0062 58.0118 18.125 57.37 17.8452 57.9404C17.7403 58.1544 17.8097 58.4396 18.3427 58.6892L18.9825 59.1527" stroke="black" stroke-width="0.402878" stroke-linecap="round"/>
<path d="M22.998 59.9728C22.8558 59.224 22.1451 58.7605 21.8252 57.4056C21.7152 56.9402 21.5764 56.5142 21.1499 56.5499C20.8087 56.5784 20.6879 57.0134 20.759 57.2987C20.9367 57.7265 21.1144 58.4112 20.5457 58.297C19.9771 58.1829 19.4321 57.5126 19.2307 57.1917C19.0648 56.9064 18.5555 56.5856 18.1645 57.156C18.0935 57.2597 18.0579 57.573 18.4844 57.7726" stroke="black" stroke-width="0.402878" stroke-linecap="round"/>
<path d="M30.6992 57.0367C30.1745 57.8457 29.6617 59.1568 29.2324 61.4981" stroke="black" stroke-width="0.402878" stroke-linecap="round"/>
<path d="M31.86 66.4555C28.3266 67.5568 23.8779 66.7819 20.9869 65.6091C18.4171 64.4014 15.3476 61.6659 11.2074 63.4065C9.42279 64.3067 7.65882 65.5534 5.71722 69.8743C5.17547 71.17 4.82531 72.6208 7.46141 72.8182C8.57133 72.3837 9.40011 72.9103 14.5033 67.1654" stroke="black" stroke-width="0.402878" stroke-linecap="round"/>
<path d="M24.0924 75.2947C20.8325 75.5837 13.5134 75.2097 10.3154 71.401" stroke="black" stroke-width="0.402878" stroke-linecap="round"/>
<path d="M31.8602 66.4556C31.7531 69.1911 30.8378 74.8779 24.5205 75.2733C24.3768 75.2825 24.234 75.2898 24.0922 75.2947C19.1925 75.4793 14.9734 72.9766 12.7139 69.163" stroke="black" stroke-width="0.402878" stroke-linecap="round"/>
<path d="M15.0532 62.9377C12.357 62.1799 6.51884 62.5948 3.87476 69.0309C3.48384 70.1255 3.0426 71.4902 5.4011 71.8269" stroke="black" stroke-width="0.402878" stroke-linecap="round"/>
<path d="M2.18199 72.4711C2.61665 71.107 4.56512 71.731 5.65935 72.2138C6.13354 72.6721 7.10825 72.8133 7.53636 72.8268C7.53636 73.5595 7.34751 73.9 7.07396 74.0882C6.96695 74.2061 6.2533 74.3424 4.25515 73.947C2.257 73.5516 2.07496 72.8946 2.18199 72.4711Z" fill="black"/>
<path d="M0.511724 70.4287C0.911376 69.628 2.67651 70.2979 3.5448 70.7153C3.73442 71.4499 4.86151 71.7707 5.40134 71.8398L5.51985 72.1766C3.38679 71.2445 2.41901 71.8196 2.261 72.3159C1.67817 72.113 0.112069 71.2299 0.511724 70.4287Z" fill="black"/>
<path d="M24.8927 69.1379C23.8327 68.072 21.4442 65.8101 20.3701 65.2876" stroke="black" stroke-width="0.402878" stroke-linecap="round"/>
<path d="M31.8604 66.4488C31.8604 66.1884 31.8604 65.7655 31.8604 65.532" stroke="black" stroke-width="0.402878" stroke-linecap="round"/>
<path d="M25.0223 50.517C25.5715 50.853 26.7966 51.3236 27.3036 50.517C27.9373 49.5089 28.5075 50.7046 28.2541 51.4783C28.0006 52.252 25.8492 53.5398 24.4043 50.7151" stroke="black" stroke-width="0.402878" stroke-linecap="round"/>
<path d="M26.0664 52.392C25.6326 52.6072 24.8053 53.2914 24.9669 54.3066" stroke="black" stroke-width="0.402878" stroke-linecap="round"/>
<path d="M26.5257 53.75C25.87 54.6153 25.1234 54.7933 24.832 54.7741" stroke="black" stroke-width="0.402878" stroke-linecap="round"/>
<path d="M26.3581 52.57C26.3094 52.8395 26.3201 53.2968 26.5258 53.75C26.6997 54.133 27.0129 54.513 27.5474 54.7741" stroke="black" stroke-width="0.402878" stroke-linecap="round"/>
<path d="M27.1436 52.4587C27.525 52.7778 28.1533 53.6342 27.884 54.7741" stroke="black" stroke-width="0.402878" stroke-linecap="round"/>
<path d="M87.3515 16.0894C87.3674 15.4479 87.1987 13.9395 86.4018 13.0371C85.4056 11.9091 85.3359 11.2234 85.3359 9.12219" stroke="black" stroke-width="0.402878" stroke-linecap="round"/>
<path d="M87.7193 9.79448C87.3679 9.72952 86.7702 9.29627 87.1919 8.08325" stroke="black" stroke-width="0.402878" stroke-linecap="round"/>
<path d="M93.029 7.9198C93.0149 8.1403 92.875 8.59024 92.4258 8.62556" stroke="black" stroke-width="0.402878" stroke-linecap="round"/>
<path d="M92.4258 9.79448C93.2576 9.30195 94.5929 8.09186 93.2783 7.192C93.098 7.05969 92.6751 6.98024 92.4258 7.72132" stroke="black" stroke-width="0.402878" stroke-linecap="round"/>
<path d="M90.4085 6.55538C90.2411 6.50926 89.812 6.44469 89.4307 6.55538" stroke="black" stroke-width="0.402878" stroke-linecap="round"/>
<path d="M86.4971 6.79983C86.2985 6.75369 85.7888 6.68915 85.3359 6.79983" stroke="black" stroke-width="0.402878" stroke-linecap="round"/>
<path d="M91.7039 1.63819C96.6585 2.15286 95.1447 5.90488 93.7683 7.71655C93.4872 7.09543 92.9335 7.07324 92.6921 7.1398C92.4635 3.6436 90.2835 4.11538 89.222 4.78829C87.0084 4.69956 86.4553 5.57951 86.4553 6.03058C85.4951 5.42594 84.6829 6.13582 84.6169 6.29111C82.157 -0.949674 88.3364 0.196248 91.7039 1.63819Z" fill="black"/>
<path d="M89.767 8.96941C88.9232 8.96941 88.2391 8.28535 88.2391 7.44152C88.2391 6.59769 88.9232 5.91364 89.767 5.91364C90.6109 5.91364 91.2949 6.59769 91.2949 7.44152C91.2949 8.28535 90.6109 8.96941 89.767 8.96941Z" stroke="black" stroke-width="0.402878"/>
<path d="M89.8283 8.20545C89.6089 8.20545 89.4311 7.98655 89.4311 7.71652C89.4311 7.4465 89.6089 7.2276 89.8283 7.2276C90.0477 7.2276 90.2256 7.4465 90.2256 7.71652C90.2256 7.98655 90.0477 8.20545 89.8283 8.20545Z" fill="black"/>
<path d="M84.2061 7.44152C84.2061 8.28278 84.9009 8.96941 85.7645 8.96941C86.6281 8.96941 87.3229 8.28278 87.3229 7.44152C87.3229 6.60028 86.6281 5.91364 85.7645 5.91364C84.9009 5.91364 84.2061 6.60028 84.2061 7.44152Z" stroke="black" stroke-width="0.402878"/>
<path d="M85.733 8.20545C85.4799 8.20545 85.2747 7.98655 85.2747 7.71652C85.2747 7.4465 85.4799 7.2276 85.733 7.2276C85.9862 7.2276 86.1914 7.4465 86.1914 7.71652C86.1914 7.98655 85.9862 8.20545 85.733 8.20545Z" fill="black"/>
<path d="M87.3535 7.41095H88.148" stroke="black" stroke-width="0.402878" stroke-linecap="round"/>
<path d="M91.3252 7.2276L92.4864 7.47206" stroke="black" stroke-width="0.402878" stroke-linecap="round"/>
<path d="M87.0479 11.139C87.2996 11.4618 88.0184 11.9139 88.8813 11.139" stroke="black" stroke-width="0.402878" stroke-linecap="round"/>
<path d="M82.7024 11.0779H72.0133C69.4819 11.0779 67.4297 13.1301 67.4297 15.6615C67.4297 18.193 69.4819 20.2452 72.0133 20.2452H84.6642C87.1956 20.2452 89.2479 18.193 89.2479 15.6615" stroke="black" stroke-width="0.402878" stroke-linecap="round"/>
<path d="M71.2188 17.495H78.0154M71.2188 13.767H81.4703H71.2188ZM71.2188 15.7112H85.5198H71.2188Z" stroke="black" stroke-width="0.402878" stroke-linecap="round"/>
<path d="M82.2517 37.9322C82.7229 39.6321 82.9588 39.7828 83.6445 40.5359C83.6445 39.7916 83.7723 38.5422 83.7723 38.022C86.0177 38.022 87.9135 37.1016 88.5802 36.6414C88.5564 38.2021 90.0134 39.2225 90.0134 39.2225C90.0134 39.2225 89.8044 39.8528 89.6852 41.2633C89.5892 42.3918 89.8643 42.1737 90.0134 41.9236C90.4436 40.5311 91.1483 40.9032 91.4472 41.2633C95.1116 35.2855 89.4762 34.1304 88.4012 34.2404C87.5889 33.5442 86.4559 32.9985 85.6595 32.9185C82.7871 32.6299 81.4872 35.1758 82.2517 37.9322Z" fill="black"/>
<path d="M89.9812 42.9605C89.5925 45.3064 86.9841 46.9932 85.1017 45.0929C83.2194 43.1926 83.5959 39.7141 83.7969 38.0909" stroke="black" stroke-width="0.402878" stroke-linecap="round"/>
<path d="M91.491 41.0856C91.7245 41.6747 91.5057 42.9802 89.9814 42.9802" stroke="black" stroke-width="0.402878" stroke-linecap="round"/>
<path d="M90.8248 41.4523C90.8627 41.5658 90.8327 41.8347 90.4092 42.0023" stroke="black" stroke-width="0.402878" stroke-linecap="round"/>
<path d="M83.8691 42.6746C83.3778 42.4619 83.0312 41.6744 83.1645 40.4133" stroke="black" stroke-width="0.402878" stroke-linecap="round"/>
<path d="M86.6812 44.0538C86.2125 44.1794 86.2424 43.8337 85.8867 43.5302" stroke="black" stroke-width="0.402878" stroke-linecap="round"/>
<path d="M85.214 41.3911C85.0452 41.3911 84.9084 41.2406 84.9084 41.055C84.9084 40.8694 85.0452 40.7189 85.214 40.7189C85.3827 40.7189 85.5195 40.8694 85.5195 41.055C85.5195 41.2406 85.3827 41.3911 85.214 41.3911Z" fill="black"/>
<path d="M88.0555 41.3912C87.8698 41.3912 87.7193 41.2544 87.7193 41.0856C87.7193 40.9168 87.8698 40.78 88.0555 40.78C88.2411 40.78 88.3916 40.9168 88.3916 41.0856C88.3916 41.2544 88.2411 41.3912 88.0555 41.3912Z" fill="black"/>
<path d="M88.7591 40.4133C88.6919 40.2067 88.4022 39.8246 87.7812 39.9486" stroke="black" stroke-width="0.402878" stroke-linecap="round"/>
<path d="M85.764 39.9855C85.6161 39.8933 85.2127 39.7641 84.7861 39.9855" stroke="black" stroke-width="0.402878" stroke-linecap="round"/>
<path d="M86.8249 40.9022C86.8823 41.3305 86.9208 42.199 86.6201 42.2468" stroke="black" stroke-width="0.402878" stroke-linecap="round"/>
<path d="M81.8896 43.2246H72.0133C69.4819 43.2246 67.4297 45.2768 67.4297 47.8083C67.4297 50.3397 69.4819 52.3919 72.0133 52.3919H83.5031C86.0345 52.3919 88.0867 50.3397 88.0867 47.8083" stroke="black" stroke-width="0.402878" stroke-linecap="round"/>
<path d="M71.2188 49.6417H77.4342M71.2188 45.9137H80.5939H71.2188ZM71.2188 47.8579H84.2975H71.2188Z" stroke="black" stroke-width="0.402878" stroke-linecap="round"/>
<path d="M42.1279 75.4291C43.4423 74.7972 46.6419 73.5742 48.9246 73.7356C49.2482 73.749 49.737 73.889 49.103 74.3406C48.4688 74.7923 48.1518 75.0257 48.0726 75.0862C47.7423 75.3686 47.4186 75.9651 48.7661 76.094C50.4504 76.2554 55.2061 74.502 64.6184 75.7915" stroke="black" stroke-width="0.402878" stroke-linecap="round"/>
<path d="M0.385742 79.093C0.992949 78.8015 2.47099 78.2374 3.52551 78.3113C3.67503 78.318 3.90082 78.3822 3.6079 78.5906C3.31497 78.799 3.16851 78.9072 3.1319 78.9347C2.97933 79.0649 2.82982 79.3405 3.45228 79.4004C4.23036 79.4743 6.42731 78.6652 10.7754 79.2604" stroke="black" stroke-width="0.402878" stroke-linecap="round"/>
<path d="M58.9794 56.3179C57.9264 56.5301 58.4202 57.9542 57.6483 58.3332C56.727 58.7855 56.4099 56.2387 56.5297 55.1576C56.564 54.6837 57.1259 54.4728 57.2017 55.1576C57.2823 55.8851 56.3633 58.7059 55.3102 57.6174L54.6071 56.8182C54.4117 56.5818 54.0265 56.2532 53.701 56.8182C53.3755 57.3833 52.8569 57.1965 52.6382 57.0325L51.9512 56.5416" stroke="black" stroke-width="0.402878" stroke-linecap="round"/>
<path d="M52.3822 53.4183L44.3967 52.0656C44.3364 52.0554 44.3002 52.1303 44.3456 52.1713L48.0648 55.5206C48.0693 55.5247 48.074 55.528 48.0796 55.5303C48.404 55.6628 49.6759 55.1591 50.3358 54.8624C50.37 54.847 50.41 54.8657 50.4203 54.9019C50.5774 55.4555 50.7694 55.969 50.8642 56.202C50.875 56.2286 50.9045 56.244 50.9259 56.2249C51.1152 56.0553 51.1391 55.0139 51.1253 54.4344C51.1246 54.4029 51.1475 54.3762 51.1783 54.3706C51.6677 54.2819 52.3394 53.8462 52.6232 53.6318" stroke="black" stroke-width="0.402878" stroke-linecap="round"/>
<path d="M50.4228 54.9029C49.5681 54.4934 47.4059 53.4679 45.5947 52.6416" stroke="black" stroke-width="0.402878" stroke-linecap="round"/>
<path d="M50.9122 56.2474L49.3232 55.3918" stroke="black" stroke-width="0.402878" stroke-linecap="round"/>
<path d="M50.5453 54.0473L48.4062 53.375" stroke="black" stroke-width="0.402878" stroke-linecap="round"/>
<path d="M28.6055 32.6546C29.7263 32.5525 32.3672 33.2208 34.1313 36.658C34.1775 36.7479 34.3077 36.7503 34.3536 36.6603C36.1632 33.1178 38.3841 29.5243 45.4041 33.851C45.512 33.9175 45.6536 33.797 45.6001 33.6821C44.4612 31.2326 43.8457 26.561 49.153 24.2435C49.2594 24.197 49.2548 24.0388 49.1433 24.0062L47.7705 23.6049C47.6446 23.5681 47.6583 23.3955 47.7889 23.3837C49.2031 23.2563 51.1983 23.3393 50.5114 24.1737C49.7094 25.148 49.5121 25.7639 49.7077 26.781" stroke="black" stroke-width="0.402878" stroke-linecap="round"/>
<path d="M66.4151 26.9679H74.1218C76.6703 26.9679 78.736 29.0338 78.736 31.5821C78.736 34.1305 76.6703 36.1963 74.1218 36.1963H65.749C63.2005 36.1963 61.1348 34.1305 61.1348 31.5821" stroke="black" stroke-width="0.402878" stroke-linecap="round"/>
<path d="M74.9468 33.3851H70.1834M74.9468 29.7181H67.762H74.9468ZM74.9468 31.6304H64.9238H74.9468Z" stroke="black" stroke-width="0.402878" stroke-linecap="round"/>
<path d="M60.4366 20.7173C62.2478 20.9786 62.9017 23.188 63.0019 24.26C63.5196 25.9611 63.4738 27.3735 63.1089 28.4309C63.0484 28.6989 63.1932 29.1696 64.2597 28.9083C65.3262 28.647 64.8721 26.8229 64.5115 25.9435C64.3104 25.4811 64.2597 24.6286 64.2597 24.26C64.6423 19.2952 61.6018 18.7575 60.0342 19.1093C60.5171 19.4309 60.5037 20.3153 60.4366 20.7173Z" fill="black"/>
<path d="M54.1469 21.9049C54.9268 17.9043 59.6067 18.0793 61.0157 19.3045C62.6005 21.3048 58.5499 26.2557 57.4429 25.7806C56.6579 25.1805 56.0688 25.5055 55.9081 25.7806C55.1835 27.0208 56.2101 27.7142 56.8139 27.906C56.6528 28.7661 58.726 29.7062 58.4241 30.3564C56.8139 32.3818 51.8825 29.0812 53.065 28.081C54.011 27.2808 53.9598 26.2557 53.9456 25.7806C53.8701 23.2552 53.9456 23.0552 54.1469 21.9049Z" fill="black"/>
<path d="M61.1348 27.3346C61.9647 27.1338 61.5265 26.7322 61.3426 25.929" stroke="black" stroke-width="0.402878" stroke-linecap="round"/>
<path d="M62.4941 25.51C62.6192 25.49 62.6963 25.3217 62.6663 25.1342C62.6363 24.9466 62.5107 24.8107 62.3856 24.8307C62.2606 24.8506 62.1835 25.0189 62.2134 25.2065C62.2434 25.3941 62.369 25.53 62.4941 25.51Z" fill="black"/>
<path d="M59.936 26.1516C60.0594 26.1319 60.1354 25.9659 60.1059 25.7808C60.0763 25.5957 59.9523 25.4616 59.8289 25.4813C59.7055 25.501 59.6294 25.667 59.659 25.8521C59.6886 26.0372 59.8126 26.1713 59.936 26.1516Z" fill="black"/>
<path d="M56.4283 26.1734C56.3822 26.3323 56.3176 26.7137 56.4283 26.9679" stroke="black" stroke-width="0.402878" stroke-linecap="round"/>
<path d="M58.2012 30.0796C60.2855 30.0796 61.4403 31.4503 63.2738 28.4347" stroke="black" stroke-width="0.402878" stroke-linecap="round"/>
<path d="M60.8291 28.7455C61.3357 28.889 61.7416 28.7455 61.8681 28.4347" stroke="black" stroke-width="0.402878" stroke-linecap="round"/>
<path d="M60.7372 25.8373C60.7372 26.4315 60.3214 26.8763 59.851 26.8763C59.3806 26.8763 58.9648 26.4315 58.9648 25.8373C58.9648 25.2431 59.3806 24.7983 59.851 24.7983C60.3214 24.7983 60.7372 25.2431 60.7372 25.8373Z" stroke="black" stroke-width="0.402878"/>
<path d="M63.3046 25.1956C63.3046 25.8104 62.8853 26.2651 62.4184 26.2651C61.9515 26.2651 61.5322 25.8104 61.5322 25.1956C61.5322 24.5807 61.9515 24.126 62.4184 24.126C62.8853 24.126 63.3046 24.5807 63.3046 25.1956Z" stroke="black" stroke-width="0.402878"/>
<path d="M61.4398 25.3353C61.2877 25.3038 60.9405 25.2927 60.7676 25.5012" stroke="black" stroke-width="0.402878" stroke-linecap="round"/>
<path d="M58.9286 25.4706L58.1523 25.4956" stroke="black" stroke-width="0.402878" stroke-linecap="round"/>
<path d="M40.2188 70.7264V69.4431" stroke="black" stroke-width="0.402878" stroke-linecap="round"/>
<path d="M39.0723 70.1561L39.772 70.7265" stroke="black" stroke-width="0.402878" stroke-linecap="round"/>
<path d="M40.6855 70.7264L41.2105 69.8913" stroke="black" stroke-width="0.402878" stroke-linecap="round"/>
<path d="M19.2568 80.566V79.2827" stroke="black" stroke-width="0.402878" stroke-linecap="round"/>
<path d="M18.1094 79.9957L18.8091 80.5661" stroke="black" stroke-width="0.402878" stroke-linecap="round"/>
<path d="M19.7236 80.566L20.2486 79.7309" stroke="black" stroke-width="0.402878" stroke-linecap="round"/>
<path d="M1.5332 65.9594V64.6761" stroke="black" stroke-width="0.402878" stroke-linecap="round"/>
<path d="M0.385742 65.3891L1.08551 65.9594" stroke="black" stroke-width="0.402878" stroke-linecap="round"/>
<path d="M2 65.9595L2.52498 65.1243" stroke="black" stroke-width="0.402878" stroke-linecap="round"/>
<path d="M83.916 75.0046V73.7213" stroke="black" stroke-width="0.402878" stroke-linecap="round"/>
<path d="M82.7695 74.4342L83.4693 75.0045" stroke="black" stroke-width="0.402878" stroke-linecap="round"/>
<path d="M84.3838 75.0045L84.9088 74.1694" stroke="black" stroke-width="0.402878" stroke-linecap="round"/>
</svg>
