<svg width="194" height="81" viewBox="0 0 194 81" fill="none" xmlns="http://www.w3.org/2000/svg">
<path d="M0.801758 47.05C17.5083 50.4765 9.67444 73.4731 21.9191 79.5927C36.5338 86.8972 41.5662 45.7707 39.6646 28.3145C39.1196 20.6605 30.2061 17.2561 29.0036 28.3145C27.7263 40.0609 42.3039 85.6103 59.0106 68.034L70.1655 55.1296C73.265 51.311 79.3752 46.0059 84.5389 55.1296C89.7023 64.253 97.93 61.2381 101.399 58.5899L112.298 50.6633" stroke="black" stroke-width="0.865472" stroke-linecap="round"/>
<path d="M104.357 15.5869L193.11 0.552417C193.281 0.523473 193.384 0.735732 193.255 0.851704L151.383 38.5617C151.37 38.5732 151.357 38.5822 151.341 38.5893C147.827 40.17 133.207 34.308 126.143 31.0943C126.046 31.0502 125.937 31.1052 125.908 31.2078C124.08 37.7687 121.755 43.9109 120.759 46.3115C120.728 46.3865 120.65 46.4288 120.574 46.4008C118.148 45.5131 117.892 32.7472 118.075 26.2174C118.078 26.1285 118.014 26.056 117.926 26.0433C112.56 25.2708 104.911 20.3176 101.729 17.9153" stroke="black" stroke-width="0.865472" stroke-linecap="round"/>
<path d="M126.296 31.319C135.44 26.9847 158.572 16.1293 177.949 7.38196" stroke="black" stroke-width="0.865472" stroke-linecap="round"/>
<path d="M120.627 46.4371L137.635 36.3584" stroke="black" stroke-width="0.865472" stroke-linecap="round"/>
<path d="M124.406 22.5001L147.713 14.941" stroke="black" stroke-width="0.865472" stroke-linecap="round"/>
</svg>
