<svg width="124" height="82" viewBox="0 0 124 82" fill="none" xmlns="http://www.w3.org/2000/svg">
<path d="M85.6756 76.1665C78.2775 73.6077 82.6855 52.6242 86.1135 45.0276C91.2794 49.8617 100.521 47.7764 101.232 45.8333C101.446 46.9795 102.13 52.1134 105.127 56.6553C108.125 61.1973 112.014 63.5594 112.701 65.5313C114.375 70.3292 110.708 72.808 108.874 73.3678C102.433 74.8391 96.9959 67.5838 95.0826 63.7721C92.3402 75.031 87.6686 76.7263 85.6756 76.1665Z" fill="black"/>
<path d="M84.2859 75.0276C84.3407 75.8582 83.964 78.6446 81.7911 77.1174C81.2552 76.5816 79.9885 75.7028 79.2159 76.4744C78.4433 77.246 79.9675 78.6714 80.8254 79.2876C81.7107 79.9843 83.8835 81.1684 85.4931 80.3325C87.1026 79.4966 87.0769 77.305 86.8612 76.3136" stroke="black" stroke-width="0.506494" stroke-linecap="round"/>
<path d="M110.663 72.116C111.225 72.3839 112.348 73.1285 112.348 73.9643C111.706 74.8751 110.679 77.1145 111.706 78.786C112.733 80.4576 114.595 76.6431 115.397 74.5268C115.799 73.3214 115.847 70.6534 112.83 69.6248" stroke="black" stroke-width="0.506494" stroke-linecap="round"/>
<path d="M86.6816 79.7669C87.0257 80.4262 88.3782 81.3964 91.0418 80.0042" stroke="black" stroke-width="0.506494" stroke-linecap="round"/>
<path d="M88.4824 78.6295C89.2473 79.3203 91.2937 80.457 93.8853 79.4851" stroke="black" stroke-width="0.506494" stroke-linecap="round"/>
<path d="M92.1797 78.1556C93.139 79.2645 95.809 81.0547 98.8148 79.3438" stroke="black" stroke-width="0.506494" stroke-linecap="round"/>
<path d="M96.3506 77.5869C96.5896 78.5692 99.8248 80.6648 110.853 81.1887" stroke="black" stroke-width="0.506494" stroke-linecap="round"/>
<path d="M95.564 37.3973C99.9527 36.1363 103.406 32.1555 104.584 30.3227C105.899 28.3523 104.843 23.9471 90.0946 22.0892" stroke="black" stroke-width="0.506494" stroke-linecap="round"/>
<path d="M95.5918 37.3973C95.3236 37.0369 94.6185 36.3855 93.7908 36.3546" stroke="black" stroke-width="0.506494" stroke-linecap="round"/>
<path d="M93.7913 36.3546C93.8158 35.3254 94.684 32.6711 97.9619 30.2882" stroke="black" stroke-width="0.506494" stroke-linecap="round"/>
<path d="M93.9805 29.7532C93.6403 29.2024 92.5952 28.0331 91.1369 27.7627" stroke="black" stroke-width="0.506494" stroke-linecap="round"/>
<path d="M90.7953 37.967C90.0483 37.9305 88.4883 37.821 88.2237 37.6748C87.8931 37.4922 87.8197 37.4922 87.8197 37.1269C87.8197 36.7617 90.7953 37.3827 90.7953 36.2138C90.5258 35.946 90.0899 35.3446 90.5014 35.0815C90.9128 34.8186 91.7749 35.5808 92.1544 35.9947C92.5463 36.4086 93.4255 37.0612 93.8076 36.3599" stroke="black" stroke-width="0.506494" stroke-linecap="round"/>
<path d="M95.4971 37.3827C95.1665 38.3445 93.9762 40.0708 91.8603 39.2819C89.7443 38.493 89.6561 38.0766 89.8766 37.9671" stroke="black" stroke-width="0.506494" stroke-linecap="round"/>
<path d="M80.7803 36.4648C80.2661 36.3242 79.1422 35.6705 78.7602 34.1795C78.3782 32.6886 78.8949 32.6813 79.2009 32.8639" stroke="black" stroke-width="0.506494" stroke-linecap="round"/>
<path d="M82.6904 35.3855C82.5313 34.5572 81.9705 32.9591 81.0009 33.1929" stroke="black" stroke-width="0.506494" stroke-linecap="round"/>
<path d="M82.2867 34.0334C82.9625 33.478 83.3763 34.7521 83.4988 35.4586C84.2627 35.6925 84.5517 36.7986 84.6006 37.3223C82.8327 37.5037 81.5764 37.0289 80.7808 36.4649C80.2937 36.1196 79.9793 35.7408 79.8258 35.4586C79.4463 34.4476 78.8929 32.3379 79.7157 31.9871C80.5384 31.6363 80.7685 32.4256 80.7808 32.864C80.6926 33.8581 81.2093 34.9592 81.4786 35.3856" stroke="black" stroke-width="0.506494" stroke-linecap="round"/>
<path d="M99.6675 38.3789C101.17 40.4064 103.127 45.9281 99.6675 47.0993C94.7543 48.5481 84.5964 48.8324 83.2693 38.3789" stroke="black" stroke-width="0.506494" stroke-linecap="round"/>
<path d="M78.4827 34.9802L66.9551 34.2842C66.3887 34.25 65.9047 34.6876 65.8819 35.2546L65.7019 39.722C65.679 40.2918 65.1904 40.7304 64.6214 40.6919L61.742 40.497C61.1941 40.46 60.7756 39.9932 60.7982 39.4446L60.9058 36.8349C60.9287 36.28 60.5006 35.8102 59.946 35.7815L59.2045 35.7431C58.6479 35.7143 58.1726 36.1406 58.1408 36.697L58.065 38.024C58.0337 38.572 57.5716 38.9954 57.023 38.9788L55.927 38.9455C55.3548 38.9282 54.9106 38.4406 54.9467 37.8693L55.148 34.6761C55.1835 34.1131 54.7523 33.6296 54.1889 33.6007L52.5323 33.5157C51.9717 33.487 51.5414 33.0079 51.5728 32.4474L51.7907 28.5567C51.8221 27.9958 52.3038 27.5676 52.8645 27.6022L65.66 28.3925L97.2979 30.5252" stroke="black" stroke-width="0.506494" stroke-linecap="round"/>
<path d="M83.8555 23.0437C83.2285 22.6579 78.5121 23.0298 77.5951 17.097C76.0252 17.1154 75.1716 15.8294 76.3694 15.2791C77.6464 14.6206 77.5505 13.4117 77.3192 12.6994C76.9514 11.7653 76.9291 10.7845 77.0085 10.5793" stroke="black" stroke-width="0.506494" stroke-linecap="round"/>
<path d="M78.9798 14.9546C78.8017 14.9567 78.6547 14.7417 78.6516 14.4745C78.6485 14.2073 78.7903 13.989 78.9685 13.9869C79.1466 13.9848 79.2936 14.1998 79.2967 14.467C79.2998 14.7342 79.1579 14.9525 78.9798 14.9546Z" fill="black"/>
<path d="M79.8555 12.9964C79.5936 12.7164 78.9162 12.3068 78.3026 12.9084" stroke="black" stroke-width="0.506494" stroke-linecap="round"/>
<path d="M81.6338 18.4481C81.1524 19.1889 80.6239 19.3992 79.5973 18.9212" stroke="black" stroke-width="0.506494" stroke-linecap="round"/>
<path d="M85.5749 13.256C85.6865 13.5009 85.7799 14.0569 85.2615 14.3216" stroke="black" stroke-width="0.506494" stroke-linecap="round"/>
<path d="M91.1007 10.7409C91.7115 14.0827 89.8004 16.5982 88.4149 18.532C86.9352 17.7326 84.51 15.8316 85.4401 15.6264C86.4178 15.4107 87.4489 12.7441 86.4995 11.9283C85.3856 10.9712 84.3816 12.4193 84.1902 13.5174L83.293 11.9659C83.5468 10.8807 83.6462 8.97716 82.0146 10.0443C80.3831 11.1114 77.9898 10.8319 76.9971 10.5587C75.0398 9.15773 71.9988 5.88981 75.4934 4.02622C78.4 2.47623 82.1823 4.43584 84.4911 6.19666C86.0544 5.78396 90.2679 6.1846 91.1007 10.7409Z" fill="black"/>
<path d="M88.3057 18.3081C87.5991 19.1587 87.2481 19.8651 87.2918 21.3283" stroke="black" stroke-width="0.506494" stroke-linecap="round"/>
<path d="M89.0917 23.2873C89.339 22.4244 89.484 20.7785 88.0848 21.0984C86.3359 21.4982 82.7712 23.2277 83.0323 24.1864" stroke="black" stroke-width="0.506494" stroke-linecap="round"/>
<path d="M83.0322 25.5353C81.7526 26.7201 81.4682 27.4784 81.2787 28.9002" stroke="black" stroke-width="0.506494" stroke-linecap="round"/>
<path d="M30.4414 49.4896C31.5596 51.4153 35.6364 54.2357 43.0862 50.4047C43.2392 50.326 43.4221 50.4567 43.3904 50.6258C42.6232 54.7088 42.5939 61.3841 52.1002 63.8972C56.2234 64.9873 60.0149 62.8546 56.9817 60.2953C52.8541 56.8126 45.5125 68.3522 49.7779 75.4138" stroke="black" stroke-width="0.506494" stroke-linecap="round"/>
<path d="M11.9098 19.7669C11.7447 14.7931 12.9007 4.37194 20.9512 4.70353C23.3045 4.84564 26.8632 7.7162 27.0614 15.2195" stroke="black" stroke-width="0.506494" stroke-linecap="round"/>
<path d="M8.0194 20.7148C7.85454 15.0928 9.53438 2.06988 18.3644 1.24317C27.4728 0.390381 29.671 9.75509 29.9045 15.3139" stroke="black" stroke-width="0.506494" stroke-linecap="round"/>
<path d="M13.8857 18.2029L25.0706 15.2645" stroke="black" stroke-width="0.506494" stroke-linecap="round"/>
<path d="M6.69725 20.3357C5.40183 20.5727 2.51715 21.5679 1.3418 23.6532" stroke="black" stroke-width="0.506494" stroke-linecap="round"/>
<path d="M1.15193 23.511C4.48842 21.5394 5.55951 25.2803 5.93866 26.9233V49.4825C5.93866 54.4115 7.36046 54.1745 8.77208 55.4213C4.79103 54.0469 2.71588 52.1366 1.99481 51.2033C0.0352657 48.6672 0.241272 30.0659 0.146485 28.028C0.0706561 26.3977 0.899163 24.0639 1.15193 23.511Z" fill="black"/>
<path d="M29.835 17.6835L9.76027 23.5376C7.59911 24.1678 6.11328 26.1488 6.11328 28.4V50.6022C6.11328 54.2174 9.7917 56.6686 13.1282 55.2768L33.2029 46.9028C35.0893 46.1159 36.3179 44.2722 36.3179 42.2283V22.5459C36.3179 19.1694 33.0765 16.7382 29.835 17.6835Z" stroke="black" stroke-width="0.506494" stroke-linecap="round"/>
<path d="M22.2768 32.1486C24.5265 28.4715 22.1696 26.6585 20.71 26.2117C25.6273 25.4073 24.7676 29.9621 23.723 32.3401L26.7763 40.3357L24.3642 39.202C24.0859 39.0712 23.8821 38.8211 23.8101 38.5222L22.2768 32.1486Z" fill="black"/>
<path d="M18.7197 42.6105L20.8762 32.9508C18.0808 32.326 18.0357 26.4682 20.8762 26.0784C25.4289 25.4537 24.9097 30.2595 23.7117 32.326L26.587 40.3037L18.7197 42.6105Z" stroke="black" stroke-width="0.506494"/>
<path d="M1.43608 65.556C-0.990462 64.6081 0.867358 63.4233 2.09959 62.9493L23.2844 56.3617C24.959 55.8877 28.9242 55.2811 31.3887 56.646C34.4693 58.3522 31.0569 59.2053 30.4408 59.6792C29.8247 60.1531 16.8389 65.556 12.384 67.0252C7.92898 68.4944 4.46925 66.7408 1.43608 65.556Z" fill="black"/>
<path d="M122.549 34.5543C122.398 37.5505 121.434 40.21 120.011 42.0883C118.587 43.9679 116.723 45.0444 114.761 44.9454C112.799 44.8463 111.053 43.5875 109.826 41.5741C108.599 39.5621 107.908 36.8189 108.059 33.8227C108.211 30.8265 109.175 28.167 110.597 26.2887C112.021 24.4091 113.885 23.3326 115.847 23.4316C117.809 23.5307 119.555 24.7895 120.783 26.8029C122.009 28.8149 122.7 31.558 122.549 34.5543Z" stroke="black" stroke-width="0.506494"/>
<path d="M119.494 34.3769C119.406 36.1273 118.843 37.6764 118.017 38.7663C117.191 39.8575 116.12 40.4679 115.007 40.4116C113.893 40.3554 112.889 39.6404 112.177 38.4715C111.465 37.3039 111.061 35.706 111.149 33.9556C111.238 32.2052 111.801 30.6562 112.627 29.5662C113.453 28.475 114.524 27.8647 115.637 27.9209C116.751 27.9771 117.754 28.6922 118.467 29.8611C119.179 31.0287 119.583 32.6265 119.494 34.3769Z" stroke="black" stroke-width="0.506494"/>
<path d="M104.17 31.473L108.435 31.71" stroke="black" stroke-width="0.506494" stroke-linecap="round"/>
<path d="M84.5488 35.9281L90.473 36.3546" stroke="black" stroke-width="0.506494" stroke-linecap="round"/>
<path d="M97.6768 36.8285L108.388 37.255" stroke="black" stroke-width="0.506494" stroke-linecap="round"/>
</svg>
