<svg width="112" height="98" viewBox="0 0 112 98" fill="none" xmlns="http://www.w3.org/2000/svg">
<path fill-rule="evenodd" clip-rule="evenodd" d="M38.4055 88.3344C59.502 89.44 80.6716 73.7008 85.6893 53.1799C88.1218 43.2316 86.3117 33.9858 81.3971 26.9734C91.1692 34.0101 95.8671 46.3793 92.5168 60.0812C87.4991 80.6021 66.3294 96.3413 45.233 95.2357C34.3638 94.666 25.6347 89.7362 20.4118 82.2838C25.2751 85.7858 31.3952 87.967 38.4055 88.3344Z" fill="black"/>
<path d="M102.318 37.7317L111 36.1758" stroke="black" stroke-width="2" stroke-linecap="round"/>
<path d="M105.722 46.0375L109.75 46.9824" stroke="black" stroke-width="2" stroke-linecap="round"/>
<path d="M29.1034 7.18269L27.7615 2.02734" stroke="black" stroke-width="2" stroke-linecap="round"/>
<path d="M21.4643 8.67827L13.6755 1" stroke="black" stroke-width="2" stroke-linecap="round"/>
<path d="M16.8366 15.7393L9.80712 12.897" stroke="black" stroke-width="2" stroke-linecap="round"/>
<circle cx="38.251" cy="38.251" r="38.251" transform="matrix(0.99863 0.052336 -0.237516 0.971384 18.1704 11.6797)" stroke="black" stroke-width="2"/>
<path d="M46.8616 31C43.0702 38.6448 44.0094 49.0392 46.2384 57.3197" stroke="black" stroke-width="2" stroke-linecap="round"/>
<path d="M46.5586 64C46.5586 64.5001 46.697 67 47.197 68" stroke="black" stroke-width="2" stroke-linecap="round"/>
</svg>
