<svg width="113" height="98" viewBox="0 0 113 98" fill="none" xmlns="http://www.w3.org/2000/svg">
<path fill-rule="evenodd" clip-rule="evenodd" d="M38.9052 88.334C60.0017 89.4396 81.1714 73.7004 86.189 53.1795C88.6215 43.2312 86.8114 33.9854 81.8969 26.9731C91.669 34.0097 96.3668 46.379 93.0165 60.0808C87.9989 80.6017 66.8292 96.3409 45.7327 95.2353C34.8636 94.6657 26.1344 89.7358 20.9115 82.2834C25.7748 85.7854 31.8949 87.9666 38.9052 88.334Z" fill="black"/>
<path d="M102.817 37.7314L111.5 36.1756" stroke="black" stroke-width="2" stroke-linecap="round"/>
<path d="M106.222 46.0374L110.25 46.9823" stroke="black" stroke-width="2" stroke-linecap="round"/>
<path d="M29.6037 7.1822L28.2617 2.02686" stroke="black" stroke-width="2" stroke-linecap="round"/>
<path d="M21.9646 8.67827L14.1758 1" stroke="black" stroke-width="2" stroke-linecap="round"/>
<path d="M17.3362 15.7395L10.3066 12.8973" stroke="black" stroke-width="2" stroke-linecap="round"/>
<circle cx="38.251" cy="38.251" r="38.251" transform="matrix(0.99863 0.052336 -0.237516 0.971384 18.6709 11.6801)" stroke="black" stroke-width="2"/>
<path d="M70.8818 42.2806C58.57 42.693 27.9562 83.6434 34.2165 43.4236" stroke="black" stroke-width="2" stroke-linecap="round"/>
</svg>
