<svg width="350" height="276" viewBox="0 0 350 276" fill="none" xmlns="http://www.w3.org/2000/svg">
<g clip-path="url(#clip0_1_338)">
<path d="M216.797 114.965C226.979 177.727 195.925 234.088 148.551 241.769C101.177 249.45 53.8973 205.79 43.7157 143.028C33.5341 80.2662 64.5878 23.905 111.962 16.224C159.335 8.54309 206.615 52.2036 216.797 114.965Z" stroke="black" stroke-width="5"/>
<path d="M197.098 117.006C200.991 141.004 197.285 163.826 188.237 181.313C179.189 198.801 164.876 210.842 147.533 213.654C130.19 216.466 112.803 209.565 98.691 195.832C84.5786 182.1 73.8476 161.618 69.9546 137.621C66.0616 113.623 69.7674 90.8002 78.8149 73.313C87.8629 55.8253 102.177 43.7841 119.519 40.9723C136.862 38.1604 154.248 45.0619 168.361 58.7944C182.474 72.5266 193.205 93.009 197.098 117.006Z" stroke="black" stroke-width="5"/>
<path d="M146.856 172.736C165.074 169.782 176.613 147.481 172.629 122.924C168.645 98.3674 150.648 80.8547 132.43 83.8084C114.213 86.7621 102.674 109.064 106.658 133.62C110.641 158.177 128.639 175.69 146.856 172.736Z" fill="black"/>
<path d="M62.8594 230.031C123.204 288.096 190.337 254.162 204.67 217.588C198.287 254.07 155.045 274.768 119.055 275.653C79.4538 275.653 30.0465 242.85 16.4688 213.063C-33.4962 103.45 42.6187 26.2984 80.586 15.4899C9.30313 49.0473 -1.99656 167.624 62.8594 230.031Z" fill="black"/>
<path d="M139.044 118.424L246.533 49.7186L268.031 36.2269" stroke="black" stroke-width="5" stroke-linecap="round"/>
<path d="M243.894 44.1449L246.359 27.2463C246.468 26.4969 246.945 25.8519 247.63 25.528L289.219 5.85043C291.239 4.89425 293.275 7.13523 292.129 9.05463L283.821 22.9722C282.97 24.3995 283.896 26.2273 285.552 26.3838L303.55 28.0859C305.672 28.2865 306.366 31.039 304.593 32.2205L268.938 55.9834C268.365 56.3652 267.65 56.4655 266.994 56.2561L246.534 49.7186" stroke="black" stroke-width="5" stroke-linecap="round"/>
<path d="M143.193 126.342L277.748 78.1638L301.624 69.5511" stroke="black" stroke-width="5" stroke-linecap="round"/>
<path d="M276.354 72.156L282.358 56.168C282.624 55.459 283.228 54.9303 283.965 54.7593L328.789 44.3742C330.967 43.8695 332.48 46.4921 330.952 48.124L319.873 59.9569C318.737 61.1703 319.254 63.1533 320.838 63.6582L338.063 69.1481C340.093 69.795 340.185 72.6322 338.202 73.4097L298.308 89.0485C297.667 89.2996 296.946 89.2453 296.35 88.9014L277.748 78.1638" stroke="black" stroke-width="5" stroke-linecap="round"/>
<path d="M248.205 110.854L256.196 97.5396C256.584 96.8934 257.268 96.4831 258.021 96.4447L298.564 94.3626C300.796 94.248 301.825 97.0924 300.037 98.4325L288.968 106.722C287.646 107.713 287.797 109.74 289.25 110.524L302.765 117.811C304.629 118.817 304.214 121.602 302.138 122.021L264.835 129.532C264.149 129.67 263.437 129.482 262.907 129.024L248.409 116.474" stroke="black" stroke-width="5" stroke-linecap="round"/>
<path d="M145.456 134.26L248.409 116.474L270.978 112.575" stroke="black" stroke-width="5" stroke-linecap="round"/>
</g>
<defs>
<clipPath id="clip0_1_338">
<rect width="350" height="276" fill="white"/>
</clipPath>
</defs>
</svg>