<svg width="241" height="227" viewBox="0 0 241 227" fill="none" xmlns="http://www.w3.org/2000/svg">
<path d="M113.775 205.744C116.947 206.481 125.948 206.983 127.719 201.317" stroke="black" stroke-width="4" stroke-linecap="round"/>
<path d="M118.423 193.349C123.735 198.44 132.146 206.629 136.573 199.989L139.229 195.562" stroke="black" stroke-width="4" stroke-linecap="round"/>
<path d="M118.423 179.626C124.473 185.381 143.036 199.192 151.181 194.234C152.656 193.275 155.652 190.206 155.829 185.602" stroke="black" stroke-width="4" stroke-linecap="round"/>
<path d="M133.031 171.879C140.483 177.708 156.936 188.125 163.133 183.167C169.33 178.209 162.912 171.363 158.928 168.559L132.146 146.868" stroke="black" stroke-width="4" stroke-linecap="round"/>
<path d="M56.0061 150.852C59.3262 152.596 62.9892 157.119 64.1955 161.255C65.745 166.567 70.0979 171.141 71.9424 172.543" stroke="black" stroke-width="4" stroke-linecap="round"/>
<path d="M122.407 121.193C117.98 119.422 105.585 115.837 95.8467 117.43C86.1079 119.024 86.9933 115.881 82.3451 113.225L56.0061 97.0674" stroke="black" stroke-width="4" stroke-linecap="round"/>
<path d="M157.821 119.865L167.56 114.774M166.453 177.191C170.526 176.129 177.298 170.109 180.176 167.231L191.464 161.255" stroke="black" stroke-width="4" stroke-linecap="round"/>
<path d="M158.706 143.548C152.214 147.458 135.953 152.269 122.85 141.999" stroke="black" stroke-width="4" stroke-linecap="round"/>
<path d="M122.85 141.999C117.98 148.86 106.559 161.963 99.8306 159.484C93.1019 157.005 96.1416 149.746 98.5025 146.426C105.364 132.703 126.834 108.179 157.821 119.865" stroke="black" stroke-width="4" stroke-linecap="round"/>
<path d="M114.218 197.776C114.041 204.327 111.931 207.145 110.898 207.736C105.862 210.613 100.273 206.186 101.833 202.588C102.904 200.595 104.338 196.484 104.922 194.677C106.279 190.471 114.395 191.224 114.218 197.776Z" stroke="black" stroke-width="4" stroke-linecap="round"/>
<path d="M95.8466 203.973C88.4097 205.566 88.3211 197.997 91.6412 194.234C92.705 193.028 95.3596 190.55 98.7239 187.815C102.088 185.08 104.257 187.413 104.921 188.922C105.798 190.914 103.283 202.379 95.8466 203.973Z" stroke="black" stroke-width="4" stroke-linecap="round"/>
<path d="M83.4518 195.119C75.3067 194.942 75.7051 187.815 79.0251 184.717C81.6074 181.987 88.1884 176.926 93.8547 178.519C99.5209 180.113 98.2814 185.381 96.9534 188.037C95.8467 190.471 91.597 195.297 83.4518 195.119Z" stroke="black" stroke-width="4" stroke-linecap="round"/>
<path d="M86.108 170.551C77.4316 168.426 70.0979 173.65 67.5157 176.527C65.745 178.829 65.8926 181.47 66.1877 182.503C68.3125 187.815 78.1398 183.979 82.7879 181.397C87.5097 178.667 94.7843 172.676 86.108 170.551Z" stroke="black" stroke-width="4" stroke-linecap="round"/>
<path d="M98.0601 90.8701C99.3881 93.8213 101.646 101.096 100.052 106.585" stroke="black" stroke-width="4" stroke-linecap="round"/>
<path d="M106.25 96.4036C106.618 98.0267 107.356 101.937 107.356 104.593" stroke="black" stroke-width="4" stroke-linecap="round"/>
<path d="M133.917 80.6885L139.007 98.6167" stroke="black" stroke-width="4" stroke-linecap="round"/>
<path d="M148.303 88.6567L146.754 99.2809" stroke="black" stroke-width="4" stroke-linecap="round"/>
<path d="M162.026 96.4036L154.28 102.38" stroke="black" stroke-width="4" stroke-linecap="round"/>
<circle cx="8.86143" cy="115.881" r="6.86143" fill="black"/>
<path d="M20.1382 116.467C31.7457 115.272 49.959 116.685 52.1117 125.664C54.2644 134.643 46.0442 137.927 41.665 138.446C24.9924 141.096 2.88525 139.849 2.88525 125.664" stroke="black" stroke-width="4" stroke-linecap="round"/>
<circle cx="15.9442" cy="128.719" r="2" stroke="black" stroke-width="0.869401"/>
<mask id="path-22-inside-1_27_179" fill="white">
<ellipse cx="27.2325" cy="128.719" rx="2.65604" ry="2.4347"/>
</mask>
<path d="M25.8885 128.719C25.8885 128.168 26.1401 127.737 26.4077 127.492C26.6694 127.252 26.9714 127.153 27.2325 127.153V135.153C30.5737 135.153 33.8885 132.593 33.8885 128.719H25.8885ZM27.2325 127.153C27.4935 127.153 27.7955 127.252 28.0572 127.492C28.3248 127.737 28.5764 128.168 28.5764 128.719H20.5764C20.5764 132.593 23.8912 135.153 27.2325 135.153V127.153ZM28.5764 128.719C28.5764 129.27 28.3248 129.7 28.0572 129.946C27.7955 130.186 27.4935 130.284 27.2325 130.284V122.284C23.8912 122.284 20.5764 124.844 20.5764 128.719H28.5764ZM27.2325 130.284C26.9714 130.284 26.6694 130.186 26.4077 129.946C26.1401 129.7 25.8885 129.27 25.8885 128.719H33.8885C33.8885 124.844 30.5737 122.284 27.2325 122.284V130.284Z" fill="black" mask="url(#path-22-inside-1_27_179)"/>
<circle cx="38.5206" cy="128.719" r="2" stroke="black" stroke-width="0.869401"/>
<circle cx="201.424" cy="198.661" r="6.41876" fill="black"/>
<path d="M211.861 194.013C215.753 194.013 226.876 194.013 232.108 194.013C236.346 194.013 238.387 194.95 238.387 201.513C238.387 207.889 238.334 216.147 238.387 219.481C238.423 221.824 237.256 224.418 233.364 224.793C229.471 225.168 213.848 224.949 206.524 224.793C203.803 224.793 198.989 223.251 198.99 216.981L198.99 209.95" stroke="black" stroke-width="4" stroke-linecap="round"/>
<path d="M209.171 205.08L218.91 211.72" stroke="black" stroke-width="4" stroke-linecap="round"/>
<path d="M218.91 211.72L236.617 195.341" stroke="black" stroke-width="4" stroke-linecap="round"/>
<path d="M205.629 217.474L212.768 207.736M223.398 207.736L233.075 217.474" stroke="black" stroke-width="4" stroke-linecap="round"/>
<path d="M204.635 90.4473L181.616 107.933C152.4 130.288 180.952 155.373 191.576 161.054L225.441 139.363" stroke="black" stroke-width="4" stroke-linecap="round"/>
<path d="M106.647 33.8724C109.968 33.4298 117.095 30.9065 119.042 24.355" stroke="black" stroke-width="4" stroke-linecap="round"/>
<path d="M95.802 28.5603C98.0154 28.6341 103.106 27.5422 105.762 22.5842" stroke="black" stroke-width="4" stroke-linecap="round"/>
<path d="M85.8418 20.5925C89.3832 19.857 97.0857 17.5664 99.5647 14.2878" stroke="black" stroke-width="4" stroke-linecap="round"/>
<path d="M117.64 45.0538C96.1478 49.6744 76.0966 29.0959 67.4145 16.4051C66.6833 15.3363 67.2057 13.8911 68.4335 13.4794L101.452 2.40614C102.191 2.15848 103.002 2.36463 103.557 2.91087C114.387 13.565 133.207 18.763 144.922 20.6313C146.738 20.921 147.378 23.3302 145.898 24.4219L118.383 44.7163C118.163 44.879 117.908 44.9962 117.64 45.0538Z" stroke="black" stroke-width="4" stroke-linecap="round"/>
</svg>
