<svg width="24" height="24" viewBox="0 0 24 24" fill="none" xmlns="http://www.w3.org/2000/svg">
<path d="M5 15C2.79 15 1 16.79 1 19C1 19.75 1.21 20.46 1.58 21.06C2.27 22.22 3.54 23 5 23C6.46 23 7.73 22.22 8.42 21.06C8.79 20.46 9 19.75 9 19C9 16.79 7.21 15 5 15ZM6.97 18.67L4.84 20.64C4.7 20.77 4.51 20.84 4.33 20.84C4.14 20.84 3.95 20.77 3.8 20.62L2.81 19.63C2.52 19.34 2.52 18.86 2.81 18.57C3.1 18.28 3.58 18.28 3.87 18.57L4.35 19.05L5.95 17.57C6.25 17.29 6.73 17.31 7.01 17.61C7.29 17.91 7.27 18.39 6.97 18.67Z" fill="#F8F7F0"/>
<path d="M21.5 12.5H19C17.9 12.5 17 13.4 17 14.5C17 15.6 17.9 16.5 19 16.5H21.5C21.78 16.5 22 16.28 22 16V13C22 12.72 21.78 12.5 21.5 12.5Z" fill="#F8F7F0"/>
<path d="M16.53 5.39991C16.83 5.68991 16.58 6.13991 16.16 6.13991L7.87996 6.12991C7.39996 6.12991 7.15996 5.54991 7.49996 5.20991L9.24996 3.44991C10.73 1.97991 13.12 1.97991 14.6 3.44991L16.49 5.35991C16.5 5.36991 16.52 5.38991 16.53 5.39991Z" fill="#F8F7F0"/>
<path d="M21.8701 18.66C21.2601 20.72 19.5001 22 17.1001 22H10.6001C10.2101 22 9.96011 21.57 10.1201 21.21C10.4201 20.51 10.6101 19.72 10.6101 19C10.6101 15.97 8.14011 13.5 5.11011 13.5C4.35011 13.5 3.61011 13.66 2.93011 13.96C2.56011 14.12 2.11011 13.87 2.11011 13.47V12C2.11011 9.28 3.75011 7.38 6.30011 7.06C6.55011 7.02 6.82011 7 7.10011 7H17.1001C17.3601 7 17.6101 7.01 17.8501 7.05C19.8701 7.28 21.3301 8.51 21.8701 10.34C21.9701 10.67 21.7301 11 21.3901 11H19.1001C16.9301 11 15.2101 12.98 15.6801 15.23C16.0101 16.87 17.5301 18 19.2001 18H21.3901C21.7401 18 21.9701 18.34 21.8701 18.66Z" fill="#F8F7F0"/>
</svg>
