<svg width="36" height="36" viewBox="0 0 36 36" fill="none" xmlns="http://www.w3.org/2000/svg">
<rect width="36" height="36" rx="10" fill="#1E1E1E"/>
<path d="M22.19 8H13.81C10.17 8 8 10.17 8 13.81V22.18C8 25.83 10.17 28 13.81 28H22.18C25.82 28 27.99 25.83 27.99 22.19V13.81C28 10.17 25.83 8 22.19 8ZM22.41 15.83C21.8 17.57 20.16 18.74 18.32 18.74C18.31 18.74 18.31 18.74 18.3 18.74L16.24 18.73C16.24 18.73 16.24 18.73 16.23 18.73C15.47 18.73 14.81 19.24 14.61 19.97C15.5 20.25 16.15 21.08 16.15 22.06C16.15 23.27 15.16 24.26 13.95 24.26C12.74 24.26 11.75 23.27 11.75 22.06C11.75 21.17 12.29 20.4 13.05 20.06V15.7C12.29 15.4 11.75 14.66 11.75 13.8C11.75 12.67 12.67 11.75 13.8 11.75C14.93 11.75 15.85 12.67 15.85 13.8C15.85 14.67 15.31 15.4 14.55 15.7V17.72C15.04 17.41 15.62 17.23 16.23 17.23H16.24L18.3 17.24C19.48 17.28 20.53 16.52 20.95 15.42C20.46 15.04 20.14 14.46 20.14 13.8C20.14 12.67 21.06 11.75 22.19 11.75C23.32 11.75 24.24 12.67 24.24 13.8C24.25 14.86 23.44 15.72 22.41 15.83Z" fill="white"/>
</svg>
