<svg width="10" height="7" viewBox="0 0 10 7" fill="none" xmlns="http://www.w3.org/2000/svg">
<path fill-rule="evenodd" clip-rule="evenodd" d="M0.292593 0.793031C0.480121 0.60556 0.734428 0.500244 0.999593 0.500244C1.26476 0.500244 1.51906 0.60556 1.70659 0.793031L4.99959 4.08603L8.29259 0.793031C8.4812 0.610873 8.7338 0.510078 8.99599 0.512356C9.25819 0.514635 9.509 0.619804 9.69441 0.805212C9.87982 0.99062 9.98499 1.24143 9.98727 1.50363C9.98955 1.76583 9.88875 2.01843 9.70659 2.20703L5.70659 6.20703C5.51906 6.3945 5.26476 6.49982 4.99959 6.49982C4.73443 6.49982 4.48012 6.3945 4.29259 6.20703L0.292593 2.20703C0.105122 2.0195 -0.000193596 1.76519 -0.000193596 1.50003C-0.000193596 1.23487 0.105122 0.980558 0.292593 0.793031Z" fill="#606060"/>
</svg>
