<svg width="20" height="20" viewBox="0 0 20 20" fill="none" xmlns="http://www.w3.org/2000/svg">
<path d="M6.68301 3.8501H5.81634C4.49134 3.8501 3.95801 4.3501 3.95801 5.61676V15.5168H8.54134V5.61676C8.53301 4.3501 7.99968 3.8501 6.68301 3.8501Z" fill="#1E1E1E"/>
<path d="M13.767 8.0166H12.9003C11.5753 8.0166 11.042 8.52493 11.042 9.78327V15.5166H15.6253V9.78327C15.6253 8.52493 15.0837 8.0166 13.767 8.0166Z" fill="#1E1E1E"/>
<path d="M2.29199 14.8999H17.7087C18.0503 14.8999 18.3337 15.1832 18.3337 15.5249C18.3337 15.8666 18.0503 16.1499 17.7087 16.1499H2.29199C1.95033 16.1499 1.66699 15.8666 1.66699 15.5166C1.66699 15.1666 1.95033 14.8999 2.29199 14.8999Z" fill="#1E1E1E"/>
</svg>
