
<svg width="112" height="98" viewBox="0 0 112 98" fill="none" xmlns="http://www.w3.org/2000/svg">
<path fill-rule="evenodd" clip-rule="evenodd" d="M38.4052 88.3344C59.5017 89.44 80.6714 73.7008 85.689 53.1799C88.1215 43.2316 86.3114 33.9858 81.3969 26.9734C91.169 34.0101 95.8668 46.3793 92.5165 60.0812C87.4989 80.6021 66.3292 96.3413 45.2327 95.2357C34.3636 94.666 25.6344 89.7362 20.4115 82.2838C25.2748 85.7858 31.3949 87.967 38.4052 88.3344Z" fill="black"/>
<path d="M102.317 37.7317L111 36.1758" stroke="black" stroke-width="2" stroke-linecap="round"/>
<path d="M105.722 46.0375L109.75 46.9824" stroke="black" stroke-width="2" stroke-linecap="round"/>
<path d="M29.1037 7.18269L27.7617 2.02734" stroke="black" stroke-width="2" stroke-linecap="round"/>
<path d="M21.4646 8.67827L13.6758 1" stroke="black" stroke-width="2" stroke-linecap="round"/>
<path d="M16.8362 15.7393L9.80664 12.897" stroke="black" stroke-width="2" stroke-linecap="round"/>
<circle cx="38.251" cy="38.251" r="38.251" transform="matrix(0.99863 0.052336 -0.237516 0.971384 18.1709 11.6797)" stroke="black" stroke-width="2"/>
<path d="M46.8613 31C43.07 38.6448 44.0092 49.0392 46.2381 57.3197" stroke="black" stroke-width="2" stroke-linecap="round"/>
<path d="M46.5586 64C46.5586 64.5001 46.697 67 47.197 68" stroke="black" stroke-width="2" stroke-linecap="round"/>
</svg>
