<svg width="20" height="21" viewBox="0 0 20 21" fill="none" xmlns="http://www.w3.org/2000/svg">
<path d="M15.6248 12.083H14.1369C13.9389 12.083 13.7453 12.1418 13.5807 12.252L11.7415 13.483C11.4415 13.683 11.0915 13.7747 10.7498 13.7747C10.4582 13.7747 10.1665 13.708 9.89984 13.558C9.53447 13.3649 9.25737 13.0246 9.1013 12.6356C8.93655 12.2249 8.66016 11.8336 8.26636 11.6318C7.92802 11.4583 7.62155 11.238 7.35817 10.9747C6.6415 10.258 6.24984 9.24967 6.24984 8.12467V4.87467V4.66634C6.24984 4.2061 5.87674 3.83301 5.4165 3.83301C3.1665 3.83301 1.6665 4.95801 1.6665 7.58301V12.083C1.6665 14.708 3.1665 15.833 5.4165 15.833H8.5415V18.208H6.1665C5.82484 18.208 5.5415 18.4913 5.5415 18.833C5.5415 19.1747 5.82484 19.458 6.1665 19.458H12.1665C12.5082 19.458 12.7915 19.1747 12.7915 18.833C12.7915 18.4913 12.5082 18.208 12.1665 18.208H9.7915V15.833H12.9165C14.858 15.833 16.2411 14.9954 16.5838 13.0792C16.6811 12.5355 16.2188 12.083 15.6665 12.083H15.6248Z" fill="#1E1E1E"/>
<path d="M15.625 2.16699H10.2083C8.96667 2.16699 8.03333 2.80033 7.66667 3.83366C7.55833 4.15033 7.5 4.50033 7.5 4.87533V8.12532C7.5 8.93366 7.76667 9.61699 8.24167 10.092C8.71667 10.567 9.4 10.8337 10.2083 10.8337V11.992C10.2083 12.417 10.6917 12.6753 11.05 12.442L13.4583 10.8337H15.625C16 10.8337 16.35 10.7753 16.6667 10.667C17.7 10.3003 18.3333 9.36699 18.3333 8.12532V4.87533C18.3333 3.25033 17.25 2.16699 15.625 2.16699ZM10.5167 7.16699C10.1667 7.16699 9.89167 6.88366 9.89167 6.54199C9.89167 6.20033 10.1667 5.91699 10.5167 5.91699C10.8667 5.91699 11.1417 6.20033 11.1417 6.54199C11.1417 6.88366 10.8667 7.16699 10.5167 7.16699ZM12.8667 7.16699C12.5167 7.16699 12.2417 6.88366 12.2417 6.54199C12.2417 6.20033 12.525 5.91699 12.8667 5.91699C13.2083 5.91699 13.4917 6.20033 13.4917 6.54199C13.4917 6.88366 13.2083 7.16699 12.8667 7.16699ZM15.2083 7.16699C14.8583 7.16699 14.5833 6.88366 14.5833 6.54199C14.5833 6.20033 14.8667 5.91699 15.2083 5.91699C15.55 5.91699 15.8333 6.20033 15.8333 6.54199C15.8333 6.88366 15.55 7.16699 15.2083 7.16699Z" fill="#1E1E1E"/>
<path d="M18.3333 4.87533V8.12532C18.3333 9.36699 17.7 10.3003 16.6667 10.667C16.35 10.7753 16 10.8337 15.625 10.8337H13.4583L11.05 12.442C10.6917 12.6753 10.2083 12.417 10.2083 11.992V10.8337C9.4 10.8337 8.71667 10.567 8.24167 10.092C7.76667 9.61699 7.5 8.93366 7.5 8.12532V4.87533C7.5 4.50033 7.55833 4.15033 7.66667 3.83366C8.03333 2.80033 8.96667 2.16699 10.2083 2.16699H15.625C17.25 2.16699 18.3333 3.25033 18.3333 4.87533Z" fill="#1E1E1E"/>
</svg>
