<svg width="21" height="20" viewBox="0 0 21 20" fill="none" xmlns="http://www.w3.org/2000/svg">
<path d="M18.5189 10.1919H15.6189C14.8022 10.1919 14.0772 10.6419 13.7105 11.3752L13.0105 12.7586C12.8439 13.0919 12.5105 13.3002 12.1439 13.3002H9.41055C9.15221 13.3002 8.78555 13.2419 8.54388 12.7586L7.84388 11.3836C7.47721 10.6586 6.74388 10.2002 5.93555 10.2002H3.01888C2.69388 10.2002 2.43555 10.4586 2.43555 10.7836V13.5002C2.43555 16.5252 4.25221 18.3336 7.28555 18.3336H14.2689C17.1272 18.3336 18.8855 16.7669 19.1022 13.9836V10.7752C19.1022 10.4586 18.8439 10.1919 18.5189 10.1919Z" fill="#1E1E1E"/>
<path d="M11.394 1.6665C11.394 1.32484 11.1107 1.0415 10.769 1.0415C10.4274 1.0415 10.144 1.32484 10.144 1.6665V3.33317H11.394V1.6665Z" fill="#1E1E1E"/>
<path d="M19.1022 8.17516V9.04183C18.9189 8.97516 18.7189 8.94183 18.5189 8.94183H15.6189C14.3272 8.94183 13.1689 9.6585 12.5939 10.8085L11.9689 12.0418H9.58555L8.96055 10.8168C8.38555 9.6585 7.22721 8.94183 5.93555 8.94183H3.01888C2.81888 8.94183 2.61888 8.97516 2.43555 9.04183V8.17516C2.43555 5.14183 4.24388 3.3335 7.27721 3.3335H10.1439V5.99183L9.54388 5.39183C9.30221 5.15016 8.90221 5.15016 8.66055 5.39183C8.41888 5.6335 8.41888 6.0335 8.66055 6.27516L10.3272 7.94183C10.3355 7.95016 10.3439 7.95016 10.3439 7.9585C10.4022 8.0085 10.4605 8.05016 10.5272 8.07516C10.6105 8.1085 10.6855 8.12516 10.7689 8.12516C10.8522 8.12516 10.9272 8.1085 11.0022 8.07516C11.0772 8.05016 11.1522 8.00016 11.2105 7.94183L12.8772 6.27516C13.1189 6.0335 13.1189 5.6335 12.8772 5.39183C12.6355 5.15016 12.2355 5.15016 11.9939 5.39183L11.3939 5.99183V3.3335H14.2605C17.2939 3.3335 19.1022 5.14183 19.1022 8.17516Z" fill="#1E1E1E"/>
</svg>
