<svg width="21" height="20" viewBox="0 0 21 20" fill="none" xmlns="http://www.w3.org/2000/svg">
<path d="M18.5191 10.1919H15.6191C14.8025 10.1919 14.0775 10.6419 13.7108 11.3752L13.0108 12.7586C12.8441 13.0919 12.5108 13.3002 12.1441 13.3002H9.41079C9.15246 13.3002 8.78579 13.2419 8.54412 12.7586L7.84412 11.3836C7.47746 10.6586 6.74412 10.2002 5.93579 10.2002H3.01912C2.69412 10.2002 2.43579 10.4586 2.43579 10.7836V13.5002C2.43579 16.5252 4.25246 18.3336 7.28579 18.3336H14.2691C17.1275 18.3336 18.8858 16.7669 19.1025 13.9836V10.7752C19.1025 10.4586 18.8441 10.1919 18.5191 10.1919Z" fill="#1E1E1E"/>
<path d="M14.2608 1.6665H7.27746C4.24412 1.6665 2.43579 3.47484 2.43579 6.50817V9.0415C2.61912 8.97484 2.81912 8.9415 3.01912 8.9415H5.93579C7.22746 8.9415 8.38579 9.65817 8.96079 10.8165L9.58579 12.0415H11.9691L12.5941 10.8082C13.1691 9.65817 14.3275 8.9415 15.6191 8.9415H18.5191C18.7191 8.9415 18.9191 8.97484 19.1025 9.0415V6.50817C19.1025 3.47484 17.2941 1.6665 14.2608 1.6665ZM9.47746 4.50817H12.0608C12.3775 4.50817 12.6441 4.7665 12.6441 5.08317C12.6441 5.40817 12.3775 5.6665 12.0608 5.6665H9.47746C9.16079 5.6665 8.89412 5.40817 8.89412 5.08317C8.89412 4.7665 9.16079 4.50817 9.47746 4.50817ZM12.7108 7.9915H8.82746C8.51079 7.9915 8.25246 7.73317 8.25246 7.4165C8.25246 7.0915 8.51079 6.83317 8.82746 6.83317H12.7108C13.0275 6.83317 13.2858 7.0915 13.2858 7.4165C13.2858 7.73317 13.0275 7.9915 12.7108 7.9915Z" fill="#1E1E1E"/>
</svg>
