<svg width="20" height="20" viewBox="0 0 20 20" fill="none" xmlns="http://www.w3.org/2000/svg">
<path d="M15.5752 9.60841C15.1002 9.48341 14.5419 9.41675 13.8752 9.41675C12.9502 9.41675 12.6086 9.64175 12.1336 10.0001C12.1086 10.0167 12.0836 10.0417 12.0586 10.0667L11.2669 10.9084C10.6002 11.6084 9.40023 11.6167 8.73356 10.9001L7.94189 10.0667C7.91689 10.0417 7.89189 10.0167 7.86689 10.0001C7.39189 9.64175 7.05023 9.41675 6.12523 9.41675C5.45856 9.41675 4.90023 9.48341 4.42523 9.60841C2.44189 10.1417 2.44189 11.7167 2.44189 13.1001V13.8751C2.44189 15.9667 2.44189 18.3334 6.90023 18.3334H13.1002C16.0586 18.3334 17.5586 16.8334 17.5586 13.8751V13.1001C17.5586 11.7167 17.5586 10.1417 15.5752 9.60841ZM11.9419 15.3334H8.05856C7.74189 15.3334 7.48356 15.0751 7.48356 14.7501C7.48356 14.4251 7.74189 14.1667 8.05856 14.1667H11.9419C12.2586 14.1667 12.5169 14.4251 12.5169 14.7501C12.5169 15.0751 12.2586 15.3334 11.9419 15.3334Z" fill="#1E1E1E"/>
<path d="M10.5583 3.58341L11.1 4.12508C11.3167 4.34175 11.675 4.34175 11.8917 4.12508C12.1083 3.90841 12.1083 3.55008 11.8917 3.33341L10.3917 1.83341C10.3417 1.78341 10.275 1.74175 10.2083 1.70841C10.1417 1.68341 10.075 1.66675 10 1.66675C9.925 1.66675 9.85833 1.68341 9.78333 1.70841C9.71667 1.73341 9.66667 1.77508 9.61667 1.81675C9.60833 1.82508 9.60833 1.82508 9.6 1.82508L8.1 3.33341C7.88333 3.55008 7.88333 3.90841 8.1 4.12508C8.31667 4.34175 8.675 4.34175 8.89167 4.12508L9.43333 3.58341V5.00008H10.5583V3.58341Z" fill="#1E1E1E"/>
<path d="M16.0084 8.43333C15.975 8.41667 15.9334 8.40833 15.9 8.4H15.8917C15.3 8.24167 14.6417 8.16667 13.875 8.16667C12.5917 8.16667 11.9834 8.54167 11.4334 8.95833C11.3167 9.04167 11.2334 9.125 11.15 9.20833L10.3584 10.05C10.275 10.1333 10.1417 10.1833 10 10.1833C9.95003 10.1833 9.7667 10.175 9.6417 10.0417L8.82503 9.18333C8.7417 9.09167 8.6417 9.01667 8.6167 9C8.0167 8.54167 7.40837 8.16667 6.12503 8.16667C5.35837 8.16667 4.70003 8.24167 4.10003 8.4C4.0667 8.40833 4.02503 8.41667 3.9917 8.43333C4.00003 6.775 4.1667 5 7.67503 5H9.4417V7.56667C9.4417 7.875 9.6917 8.125 10 8.125C10.3084 8.125 10.5584 7.875 10.5584 7.56667V5H12.325C15.8334 5 16 6.775 16.0084 8.43333Z" fill="#1E1E1E"/>
</svg>
