<svg width="22" height="22" viewBox="0 0 22 22" fill="none" xmlns="http://www.w3.org/2000/svg">
<rect width="22" height="22" rx="4" fill="#F5F5F5"/>
<path d="M15.375 10.3749C15.3275 10.3474 15.2736 10.333 15.2188 10.333C15.1639 10.333 15.11 10.3474 15.0625 10.3749L11 12.6718L6.9375 10.3749C6.88991 10.3474 6.8359 10.333 6.78094 10.333C6.72598 10.3331 6.67201 10.3476 6.62446 10.3752C6.57692 10.4028 6.53749 10.4424 6.51015 10.4901C6.48281 10.5377 6.46853 10.5918 6.46875 10.6468V13.3436C6.46875 13.5923 6.56752 13.8307 6.74334 14.0065C6.91916 14.1824 7.15761 14.2811 7.40625 14.2811H14.5938C14.8424 14.2811 15.0808 14.1824 15.2567 14.0065C15.4325 13.8307 15.5313 13.5923 15.5313 13.3436V10.6483C15.5317 10.593 15.5175 10.5385 15.4901 10.4905C15.4626 10.4424 15.4229 10.4025 15.375 10.3749Z" fill="#2962FF"/>
<path d="M14.5938 7.71875H7.40625C7.15761 7.71875 6.91916 7.81752 6.74334 7.99334C6.56752 8.16915 6.46875 8.40761 6.46875 8.65625V9.24219C6.46853 9.29725 6.48287 9.3514 6.51031 9.39914C6.53775 9.44688 6.57731 9.48653 6.625 9.51406L10.8438 11.8969C10.8913 11.9243 10.9451 11.9387 11 11.9387C11.0549 11.9387 11.1087 11.9243 11.1563 11.8969L15.375 9.51406C15.4227 9.48653 15.4623 9.44688 15.4897 9.39914C15.5171 9.3514 15.5315 9.29725 15.5313 9.24219V8.65625C15.5313 8.40761 15.4325 8.16915 15.2567 7.99334C15.0808 7.81752 14.8424 7.71875 14.5938 7.71875Z" fill="#2962FF"/>
</svg>
