<svg width="24" height="25" viewBox="0 0 24 25" fill="none" xmlns="http://www.w3.org/2000/svg">
<path d="M16.19 2.5H7.81C4.17 2.5 2 4.67 2 8.31V16.68C2 20.33 4.17 22.5 7.81 22.5H16.18C19.82 22.5 21.99 20.33 21.99 16.69V8.31C22 4.67 19.83 2.5 16.19 2.5ZM8.5 6.88C9.53 6.88 10.38 7.72 10.38 8.76C10.38 9.8 9.54 10.64 8.5 10.64C7.46 10.64 6.62 9.78 6.62 8.75C6.62 7.72 7.47 6.88 8.5 6.88ZM12 19.58C9.31 19.58 7.12 17.39 7.12 14.7C7.12 14 7.69 13.42 8.39 13.42H15.59C16.29 13.42 16.86 13.99 16.86 14.7C16.88 17.39 14.69 19.58 12 19.58ZM15.5 10.62C14.47 10.62 13.62 9.78 13.62 8.74C13.62 7.7 14.46 6.86 15.5 6.86C16.54 6.86 17.38 7.7 17.38 8.74C17.38 9.78 16.53 10.62 15.5 10.62Z" fill="#1E1E1E"/>
</svg>
