<svg width="20" height="20" viewBox="0 0 20 20" fill="none" xmlns="http://www.w3.org/2000/svg">
<path d="M9.99984 1.66602C5.39984 1.66602 1.6665 5.39935 1.6665 9.99935C1.6665 14.5993 5.39984 18.3327 9.99984 18.3327C14.5998 18.3327 18.3332 14.5993 18.3332 9.99935C18.3332 5.39935 14.5998 1.66602 9.99984 1.66602ZM12.9415 11.0243L8.62484 14.016C7.9915 14.4577 7.62484 14.1993 7.80817 13.4577L8.59984 10.2577L7.22484 9.91602C6.59984 9.76602 6.52484 9.33268 7.04984 8.96602L11.3665 5.97435C11.9998 5.53268 12.3665 5.79102 12.1832 6.53268L11.3915 9.73268L12.7665 10.0743C13.3915 10.2327 13.4665 10.6577 12.9415 11.0243Z" fill="#1E1E1E"/>
</svg>
