<svg width="24" height="25" viewBox="0 0 24 25" fill="none" xmlns="http://www.w3.org/2000/svg">
<path d="M2.58005 19.5103L2.56005 19.5303C2.29005 18.9403 2.12005 18.2703 2.05005 17.5303C2.12005 18.2603 2.31005 18.9203 2.58005 19.5103Z" fill="#1E1E1E"/>
<path d="M9 10.8801C10.3144 10.8801 11.38 9.81456 11.38 8.50012C11.38 7.18568 10.3144 6.12012 9 6.12012C7.68556 6.12012 6.62 7.18568 6.62 8.50012C6.62 9.81456 7.68556 10.8801 9 10.8801Z" fill="#1E1E1E"/>
<path d="M16.19 2.5H7.81C4.17 2.5 2 4.67 2 8.31V16.69C2 17.78 2.19 18.73 2.56 19.53C3.42 21.43 5.26 22.5 7.81 22.5H16.19C19.83 22.5 22 20.33 22 16.69V14.4V8.31C22 4.67 19.83 2.5 16.19 2.5ZM20.37 13C19.59 12.33 18.33 12.33 17.55 13L13.39 16.57C12.61 17.24 11.35 17.24 10.57 16.57L10.23 16.29C9.52 15.67 8.39 15.61 7.59 16.15L3.85 18.66C3.63 18.1 3.5 17.45 3.5 16.69V8.31C3.5 5.49 4.99 4 7.81 4H16.19C19.01 4 20.5 5.49 20.5 8.31V13.11L20.37 13Z" fill="#1E1E1E"/>
</svg>
