<svg width="28" height="28" viewBox="0 0 28 28" fill="none" xmlns="http://www.w3.org/2000/svg">
<path d="M19.337 0.666504H8.16366C3.31033 0.666504 0.416992 3.55984 0.416992 8.41317V19.5732C0.416992 24.4398 3.31033 27.3332 8.16366 27.3332H19.3237C24.177 27.3332 27.0703 24.4398 27.0703 19.5865V8.41317C27.0837 3.55984 24.1903 0.666504 19.337 0.666504ZM20.177 12.4265C19.7903 12.8132 19.1503 12.8132 18.7637 12.4265L14.7503 8.41317V21.9998C14.7503 22.5465 14.297 22.9998 13.7503 22.9998C13.2037 22.9998 12.7503 22.5465 12.7503 21.9998V8.41317L8.73699 12.4265C8.35033 12.8132 7.71033 12.8132 7.32366 12.4265C7.12366 12.2265 7.03033 11.9732 7.03033 11.7198C7.03033 11.4665 7.13699 11.1998 7.32366 11.0132L13.0437 5.29317C13.2303 5.1065 13.4837 4.99984 13.7503 4.99984C14.017 4.99984 14.2703 5.1065 14.457 5.29317L20.177 11.0132C20.5637 11.3998 20.5637 12.0265 20.177 12.4265Z" fill="#34B53A"/>
</svg>
