<svg width="22" height="22" viewBox="0 0 22 22" fill="none" xmlns="http://www.w3.org/2000/svg">
<rect width="22" height="22" rx="4" fill="#F5F5F5"/>
<g clip-path="url(#clip0_676_13855)">
<path d="M11.0016 6C8.91418 6 8.30368 6.00215 8.18501 6.012C7.75663 6.04762 7.49006 6.11509 7.19965 6.25971C6.97585 6.37088 6.79934 6.49973 6.62515 6.68036C6.3079 7.00978 6.11563 7.41504 6.04602 7.89678C6.01219 8.13064 6.00234 8.17833 6.00034 9.3729C5.99957 9.77109 6.00034 10.2951 6.00034 10.998C6.00034 13.0844 6.00265 13.6944 6.01265 13.8129C6.04726 14.2298 6.11263 14.4922 6.25106 14.7791C6.51563 15.3284 7.02092 15.7407 7.61619 15.8946C7.82231 15.9477 8.04996 15.9769 8.34221 15.9908C8.46603 15.9962 9.7281 16 10.9909 16C12.2538 16 13.5166 15.9985 13.6374 15.9923C13.9758 15.9764 14.1723 15.95 14.3895 15.8938C14.9887 15.7392 15.4847 15.333 15.7547 14.776C15.8904 14.496 15.9592 14.2237 15.9904 13.8285C15.9972 13.7423 16 12.3686 16 10.9967C16 9.62461 15.9969 8.25342 15.9902 8.16726C15.9586 7.76569 15.8898 7.49567 15.7497 7.21025C15.6347 6.97662 15.507 6.80214 15.3217 6.62375C14.9909 6.30772 14.5863 6.11539 14.1043 6.04585C13.8707 6.01208 13.8242 6.00207 12.629 6H11.0016Z" fill="url(#paint0_radial_676_13855)"/>
<path d="M11.0016 6C8.91418 6 8.30368 6.00215 8.18501 6.012C7.75663 6.04762 7.49006 6.11509 7.19965 6.25971C6.97585 6.37088 6.79934 6.49973 6.62515 6.68036C6.3079 7.00978 6.11563 7.41504 6.04602 7.89678C6.01219 8.13064 6.00234 8.17833 6.00034 9.3729C5.99957 9.77109 6.00034 10.2951 6.00034 10.998C6.00034 13.0844 6.00265 13.6944 6.01265 13.8129C6.04726 14.2298 6.11263 14.4922 6.25106 14.7791C6.51563 15.3284 7.02092 15.7407 7.61619 15.8946C7.82231 15.9477 8.04996 15.9769 8.34221 15.9908C8.46603 15.9962 9.7281 16 10.9909 16C12.2538 16 13.5166 15.9985 13.6374 15.9923C13.9758 15.9764 14.1723 15.95 14.3895 15.8938C14.9887 15.7392 15.4847 15.333 15.7547 14.776C15.8904 14.496 15.9592 14.2237 15.9904 13.8285C15.9972 13.7423 16 12.3686 16 10.9967C16 9.62461 15.9969 8.25342 15.9902 8.16726C15.9586 7.76569 15.8898 7.49567 15.7497 7.21025C15.6347 6.97662 15.507 6.80214 15.3217 6.62375C14.9909 6.30772 14.5863 6.11539 14.1043 6.04585C13.8707 6.01208 13.8242 6.00207 12.629 6H11.0016Z" fill="url(#paint1_radial_676_13855)"/>
<path d="M11.0016 6C8.91418 6 8.30368 6.00215 8.18501 6.012C7.75663 6.04762 7.49006 6.11509 7.19965 6.25971C6.97585 6.37088 6.79934 6.49973 6.62515 6.68036C6.3079 7.00978 6.11563 7.41504 6.04602 7.89678C6.01219 8.13064 6.00234 8.17833 6.00034 9.3729C5.99957 9.77109 6.00034 10.2951 6.00034 10.998C6.00034 13.0844 6.00265 13.6944 6.01265 13.8129C6.04726 14.2298 6.11263 14.4922 6.25106 14.7791C6.51563 15.3284 7.02092 15.7407 7.61619 15.8946C7.82231 15.9477 8.04996 15.9769 8.34221 15.9908C8.46603 15.9962 9.7281 16 10.9909 16C12.2538 16 13.5166 15.9985 13.6374 15.9923C13.9758 15.9764 14.1723 15.95 14.3895 15.8938C14.9887 15.7392 15.4847 15.333 15.7547 14.776C15.8904 14.496 15.9592 14.2237 15.9904 13.8285C15.9972 13.7423 16 12.3686 16 10.9967C16 9.62461 15.9969 8.25342 15.9902 8.16726C15.9586 7.76569 15.8898 7.49567 15.7497 7.21025C15.6347 6.97662 15.507 6.80214 15.3217 6.62375C14.9909 6.30772 14.5863 6.11539 14.1043 6.04585C13.8707 6.01208 13.8242 6.00207 12.629 6H11.0016Z" fill="url(#paint2_radial_676_13855)"/>
<path d="M11.0016 6C8.91418 6 8.30368 6.00215 8.18501 6.012C7.75663 6.04762 7.49006 6.11509 7.19965 6.25971C6.97585 6.37088 6.79934 6.49973 6.62515 6.68036C6.3079 7.00978 6.11563 7.41504 6.04602 7.89678C6.01219 8.13064 6.00234 8.17833 6.00034 9.3729C5.99957 9.77109 6.00034 10.2951 6.00034 10.998C6.00034 13.0844 6.00265 13.6944 6.01265 13.8129C6.04726 14.2298 6.11263 14.4922 6.25106 14.7791C6.51563 15.3284 7.02092 15.7407 7.61619 15.8946C7.82231 15.9477 8.04996 15.9769 8.34221 15.9908C8.46603 15.9962 9.7281 16 10.9909 16C12.2538 16 13.5166 15.9985 13.6374 15.9923C13.9758 15.9764 14.1723 15.95 14.3895 15.8938C14.9887 15.7392 15.4847 15.333 15.7547 14.776C15.8904 14.496 15.9592 14.2237 15.9904 13.8285C15.9972 13.7423 16 12.3686 16 10.9967C16 9.62461 15.9969 8.25342 15.9902 8.16726C15.9586 7.76569 15.8898 7.49567 15.7497 7.21025C15.6347 6.97662 15.507 6.80214 15.3217 6.62375C14.9909 6.30772 14.5863 6.11539 14.1043 6.04585C13.8707 6.01208 13.8242 6.00207 12.629 6H11.0016Z" fill="url(#paint3_radial_676_13855)"/>
<path d="M11.0021 7.28418C9.99231 7.28418 9.86559 7.28859 9.46899 7.30663C9.07317 7.32474 8.80299 7.38736 8.56658 7.47924C8.32204 7.57413 8.1146 7.70107 7.90794 7.90765C7.70113 8.11417 7.57409 8.32145 7.47881 8.56573C7.38663 8.80204 7.32389 9.0721 7.30608 9.46747C7.28834 9.86377 7.28369 9.99048 7.28369 10.9995C7.28369 12.0085 7.28819 12.1348 7.30615 12.5311C7.32436 12.9266 7.38702 13.1966 7.47889 13.4328C7.57393 13.6772 7.70097 13.8844 7.90771 14.0909C8.1143 14.2976 8.32173 14.4249 8.56612 14.5198C8.80268 14.6116 9.07294 14.6743 9.46868 14.6924C9.86528 14.7104 9.99192 14.7148 11.0016 14.7148C12.0115 14.7148 12.1378 14.7104 12.5344 14.6924C12.9302 14.6742 13.2007 14.6116 13.4373 14.5198C13.6817 14.4249 13.8889 14.2976 14.0954 14.0909C14.3023 13.8844 14.4293 13.6772 14.5246 13.4329C14.616 13.1966 14.6787 12.9265 14.6973 12.5311C14.7151 12.1348 14.7198 12.0085 14.7198 10.9995C14.7198 9.99047 14.7151 9.86385 14.6973 9.46755C14.6787 9.07202 14.616 8.80204 14.5246 8.56581C14.4293 8.32145 14.3023 8.11416 14.0954 7.90765C13.8886 7.70099 13.6818 7.57405 13.437 7.47923C13.2 7.38736 12.9297 7.32474 12.5338 7.30663C12.1372 7.28859 12.011 7.28418 11.0009 7.28418H11.0021ZM10.6685 7.95371C10.7675 7.95356 10.878 7.95371 11.0021 7.95371C11.9948 7.95371 12.1125 7.95727 12.5045 7.97507C12.867 7.99164 13.0637 8.05216 13.1948 8.10302C13.3683 8.17036 13.492 8.25086 13.6221 8.38089C13.7522 8.51093 13.8328 8.63478 13.9003 8.80815C13.9512 8.93896 14.0119 9.13557 14.0284 9.49781C14.0462 9.88947 14.05 10.0071 14.05 10.9986C14.05 11.9902 14.0462 12.1078 14.0284 12.4995C14.0118 12.8617 13.9512 13.0583 13.9003 13.1891C13.8329 13.3625 13.7522 13.486 13.6221 13.6159C13.4919 13.746 13.3684 13.8265 13.1948 13.8938C13.0639 13.9449 12.867 14.0053 12.5045 14.0218C12.1125 14.0396 11.9948 14.0435 11.0021 14.0435C10.0093 14.0435 9.89161 14.0396 9.49966 14.0218C9.13715 14.0051 8.94041 13.9446 8.80926 13.8937C8.63575 13.8264 8.51181 13.7459 8.38169 13.6158C8.25155 13.4858 8.171 13.3623 8.10345 13.1888C8.05256 13.058 7.99191 12.8614 7.97541 12.4992C7.95759 12.1075 7.95403 11.9899 7.95403 10.9977C7.95403 10.0056 7.95759 9.88854 7.97541 9.49688C7.99199 9.13464 8.05256 8.93804 8.10345 8.80707C8.17084 8.63369 8.25155 8.50985 8.38169 8.37981C8.51181 8.24977 8.63575 8.16928 8.80926 8.10178C8.94033 8.05069 9.13715 7.99032 9.49966 7.97368C9.84265 7.9582 9.97558 7.95356 10.6685 7.95278L10.6685 7.95371ZM12.9868 8.57061C12.7404 8.57061 12.5406 8.77007 12.5406 9.01629C12.5406 9.26243 12.7404 9.46213 12.9868 9.46213C13.2331 9.46213 13.4329 9.26243 13.4329 9.01629C13.4329 8.77015 13.2331 8.57046 12.9867 8.57046L12.9868 8.57061ZM11.0021 9.09152C9.94761 9.09152 9.09269 9.94581 9.09269 10.9995C9.09269 12.0532 9.94761 12.9071 11.0021 12.9071C12.0565 12.9071 12.9112 12.0532 12.9112 10.9995C12.9112 9.94581 12.0565 9.09152 11.002 9.09152H11.0021ZM11.0021 9.76106C11.6865 9.76106 12.2414 10.3155 12.2414 10.9995C12.2414 11.6834 11.6865 12.2379 11.0021 12.2379C10.3176 12.2379 9.76272 11.6834 9.76272 10.9995C9.76272 10.3155 10.3176 9.76106 11.0021 9.76106Z" fill="white"/>
</g>
<defs>
<radialGradient id="paint0_radial_676_13855" cx="0" cy="0" r="1" gradientUnits="userSpaceOnUse" gradientTransform="translate(15.6771 10.6871) rotate(164.25) scale(6.38943 4.60328)">
<stop stop-color="#FF005F"/>
<stop offset="1" stop-color="#FC01D8"/>
</radialGradient>
<radialGradient id="paint1_radial_676_13855" cx="0" cy="0" r="1" gradientUnits="userSpaceOnUse" gradientTransform="translate(8.65617 16.7702) rotate(-90) scale(7.98219 8.46893)">
<stop stop-color="#FFCC00"/>
<stop offset="0.1242" stop-color="#FFCC00"/>
<stop offset="0.5672" stop-color="#FE4A05"/>
<stop offset="0.6942" stop-color="#FF0F3F"/>
<stop offset="1" stop-color="#FE0657" stop-opacity="0"/>
</radialGradient>
<radialGradient id="paint2_radial_676_13855" cx="0" cy="0" r="1" gradientUnits="userSpaceOnUse" gradientTransform="translate(11.2527 15.859) rotate(-59.8703) scale(3.3007 4.29715)">
<stop stop-color="#FFCC00"/>
<stop offset="1" stop-color="#FFCC00" stop-opacity="0"/>
</radialGradient>
<radialGradient id="paint3_radial_676_13855" cx="0" cy="0" r="1" gradientUnits="userSpaceOnUse" gradientTransform="translate(7.35679 6.4072) rotate(164.274) scale(6.31856 2.15273)">
<stop stop-color="#780CFF"/>
<stop offset="1" stop-color="#820BFF" stop-opacity="0"/>
</radialGradient>
<clipPath id="clip0_676_13855">
<rect width="10" height="10" fill="white" transform="translate(6 6)"/>
</clipPath>
</defs>
</svg>
