<svg width="24" height="25" viewBox="0 0 24 25" fill="none" xmlns="http://www.w3.org/2000/svg">
<path d="M7.25001 12.5C7.25001 12.09 7.59001 11.75 8.00001 11.75H11V8C11 7.45 10.55 7 10 7H7.77001C4.62001 7 1.88001 9.58 2.00001 12.72C2.06001 14.15 2.66001 15.44 3.61001 16.39C4.61001 17.38 5.98001 18 7.50001 18H10C10.55 18 11 17.55 11 17V13.25H8.00001C7.59001 13.25 7.25001 12.91 7.25001 12.5Z" fill="#1E1E1E"/>
<path d="M20.39 8.61C19.39 7.62 18.02 7 16.5 7H14C13.45 7 13 7.45 13 8V11.75H16C16.41 11.75 16.75 12.09 16.75 12.5C16.75 12.91 16.41 13.25 16 13.25H13V17C13 17.55 13.45 18 14 18H16.23C19.38 18 22.12 15.42 21.99 12.28C21.94 10.85 21.33 9.56 20.39 8.61Z" fill="#1E1E1E"/>
<path d="M13 11.75H11V13.25H13V11.75Z" fill="#1E1E1E"/>
</svg>
