<svg width="20" height="20" viewBox="0 0 20 20" fill="none" xmlns="http://www.w3.org/2000/svg">
<path d="M15.625 6.66675V8.41675C15.2583 8.36675 14.8417 8.34175 14.375 8.33342V6.66675C14.375 4.04175 13.6333 2.29175 10 2.29175C6.36667 2.29175 5.625 4.04175 5.625 6.66675V8.33342C5.15833 8.34175 4.74167 8.36675 4.375 8.41675V6.66675C4.375 4.25008 4.95833 1.04175 10 1.04175C15.0417 1.04175 15.625 4.25008 15.625 6.66675Z" fill="#1E1E1E"/>
<path d="M15.6248 8.41659C15.2582 8.36659 14.8415 8.34159 14.3748 8.33325H5.62484C5.15817 8.34159 4.7415 8.36659 4.37484 8.41659C2.24984 8.67492 1.6665 9.71659 1.6665 12.4999V14.1666C1.6665 17.4999 2.49984 18.3333 5.83317 18.3333H14.1665C17.4998 18.3333 18.3332 17.4999 18.3332 14.1666V12.4999C18.3332 9.71659 17.7498 8.67492 15.6248 8.41659ZM7.25817 13.9249C7.09984 14.0749 6.88317 14.1666 6.6665 14.1666C6.55817 14.1666 6.44984 14.1416 6.34984 14.0999C6.2415 14.0583 6.15817 13.9999 6.07484 13.9249C5.92484 13.7666 5.83317 13.5499 5.83317 13.3333C5.83317 13.2249 5.85817 13.1166 5.89984 13.0166C5.9415 12.9166 5.99984 12.8249 6.07484 12.7416C6.15817 12.6666 6.2415 12.6083 6.34984 12.5666C6.65817 12.4333 7.02484 12.5083 7.25817 12.7416C7.33317 12.8249 7.3915 12.9166 7.43317 13.0166C7.47484 13.1166 7.49984 13.2249 7.49984 13.3333C7.49984 13.5499 7.40817 13.7666 7.25817 13.9249ZM10.7665 13.6499C10.7248 13.7499 10.6665 13.8416 10.5915 13.9249C10.4332 14.0749 10.2165 14.1666 9.99984 14.1666C9.77484 14.1666 9.5665 14.0749 9.40817 13.9249C9.33317 13.8416 9.27484 13.7499 9.23317 13.6499C9.1915 13.5499 9.1665 13.4416 9.1665 13.3333C9.1665 13.1083 9.25817 12.8999 9.40817 12.7416C9.7165 12.4333 10.2748 12.4333 10.5915 12.7416C10.7415 12.8999 10.8332 13.1083 10.8332 13.3333C10.8332 13.4416 10.8082 13.5499 10.7665 13.6499ZM13.9248 13.9249C13.7665 14.0749 13.5498 14.1666 13.3332 14.1666C13.1165 14.1666 12.8998 14.0749 12.7415 13.9249C12.5915 13.7666 12.4998 13.5583 12.4998 13.3333C12.4998 13.1083 12.5915 12.8999 12.7415 12.7416C13.0582 12.4333 13.6165 12.4333 13.9248 12.7416C13.9582 12.7833 13.9915 12.8249 14.0248 12.8749C14.0582 12.9166 14.0832 12.9666 14.0998 13.0166C14.1248 13.0666 14.1415 13.1166 14.1498 13.1666C14.1582 13.2249 14.1665 13.2833 14.1665 13.3333C14.1665 13.5499 14.0748 13.7666 13.9248 13.9249Z" fill="#1E1E1E"/>
</svg>
