<svg width="20" height="21" viewBox="0 0 20 21" fill="none" xmlns="http://www.w3.org/2000/svg">
<path d="M15.3918 14.5253L15.7168 17.1587C15.8002 17.8503 15.0585 18.3337 14.4668 17.9753L11.5835 16.2587C11.3835 16.142 11.3335 15.892 11.4418 15.692C11.8585 14.9253 12.0835 14.0587 12.0835 13.192C12.0835 10.142 9.46682 7.65866 6.25016 7.65866C5.59182 7.65866 4.95016 7.75866 4.35016 7.95866C4.04182 8.05866 3.74182 7.77533 3.81682 7.45866C4.57516 4.42533 7.49182 2.16699 10.9752 2.16699C15.0418 2.16699 18.3335 5.24199 18.3335 9.03366C18.3335 11.2837 17.1752 13.2753 15.3918 14.5253Z" fill="#1E1E1E"/>
<path d="M10.8332 13.1915C10.8332 14.1832 10.4665 15.0999 9.84984 15.8249C9.02484 16.8249 7.7165 17.4665 6.24984 17.4665L4.07484 18.7582C3.70817 18.9832 3.2415 18.6749 3.2915 18.2499L3.49984 16.6082C2.38317 15.8332 1.6665 14.5915 1.6665 13.1915C1.6665 11.7249 2.44984 10.4332 3.64984 9.66654C4.3915 9.1832 5.28317 8.9082 6.24984 8.9082C8.78317 8.9082 10.8332 10.8249 10.8332 13.1915Z" fill="#1E1E1E"/>
</svg>
