<svg width="21" height="20" viewBox="0 0 21 20" fill="none" xmlns="http://www.w3.org/2000/svg">
<path fill-rule="evenodd" clip-rule="evenodd" d="M19.7274 3.33317C19.7274 4.59882 18.7014 5.62484 17.4357 5.62484C16.1701 5.62484 15.144 4.59882 15.144 3.33317C15.144 2.06752 16.1701 1.0415 17.4357 1.0415C18.7014 1.0415 19.7274 2.06752 19.7274 3.33317ZM17.6086 2.08489C17.6555 1.89736 17.5415 1.70733 17.3539 1.66045C17.1664 1.61357 16.9764 1.72758 16.9295 1.91511L16.4295 3.91511C16.3997 4.03438 16.4346 4.16055 16.5216 4.24749C16.6085 4.33442 16.7347 4.36937 16.8539 4.33955L18.8539 3.83955C19.0415 3.79267 19.1555 3.60264 19.1086 3.41511C19.0617 3.22758 18.8717 3.11357 18.6842 3.16045L17.2501 3.51897L17.6086 2.08489Z" fill="#1E1E1E"/>
<path d="M16.6358 6.7915C15.3275 6.50817 14.2608 5.4415 13.9775 4.13317C13.8691 3.62484 13.8608 3.13317 13.9525 2.6665C14.0608 2.14984 13.6775 1.6665 13.1441 1.6665H6.60246C4.30246 1.6665 2.43579 3.53317 2.43579 5.83317V11.6248C2.43579 13.9248 4.30246 15.7915 6.60246 15.7915H7.85246C8.08579 15.7915 8.38579 15.9415 8.51912 16.1248L9.76912 17.7832C10.3191 18.5165 11.2191 18.5165 11.7691 17.7832L13.0191 16.1248C13.1775 15.9165 13.4191 15.7915 13.6858 15.7915H14.9441C17.2441 15.7915 19.1025 13.9332 19.1025 11.6332V7.62484C19.1025 7.09984 18.6191 6.7165 18.1025 6.8165C17.6358 6.89984 17.1441 6.89984 16.6358 6.7915ZM7.43579 9.99984C6.96912 9.99984 6.60246 9.62484 6.60246 9.1665C6.60246 8.70817 6.96912 8.33317 7.43579 8.33317C7.89412 8.33317 8.26912 8.70817 8.26912 9.1665C8.26912 9.62484 7.90246 9.99984 7.43579 9.99984ZM10.7691 9.99984C10.3025 9.99984 9.93579 9.62484 9.93579 9.1665C9.93579 8.70817 10.3025 8.33317 10.7691 8.33317C11.2275 8.33317 11.6025 8.70817 11.6025 9.1665C11.6025 9.62484 11.2358 9.99984 10.7691 9.99984ZM14.1025 9.99984C13.6358 9.99984 13.2691 9.62484 13.2691 9.1665C13.2691 8.70817 13.6358 8.33317 14.1025 8.33317C14.5608 8.33317 14.9358 8.70817 14.9358 9.1665C14.9358 9.62484 14.5691 9.99984 14.1025 9.99984Z" fill="#1E1E1E"/>
</svg>
