<svg width="21" height="20" viewBox="0 0 21 20" fill="none" xmlns="http://www.w3.org/2000/svg">
<path d="M14.9355 1.6665H6.60221C4.30221 1.6665 2.43555 3.52484 2.43555 5.8165V10.7998V11.6332C2.43555 13.9248 4.30221 15.7832 6.60221 15.7832H7.85221C8.07721 15.7832 8.37721 15.9332 8.51888 16.1165L9.76888 17.7748C10.3189 18.5082 11.2189 18.5082 11.7689 17.7748L13.0189 16.1165C13.1772 15.9082 13.4272 15.7832 13.6855 15.7832H14.9355C17.2355 15.7832 19.1022 13.9248 19.1022 11.6332V5.8165C19.1022 3.52484 17.2355 1.6665 14.9355 1.6665ZM7.43555 9.99984C6.96888 9.99984 6.60221 9.62484 6.60221 9.1665C6.60221 8.70817 6.97721 8.33317 7.43555 8.33317C7.89388 8.33317 8.26888 8.70817 8.26888 9.1665C8.26888 9.62484 7.90221 9.99984 7.43555 9.99984ZM10.7689 9.99984C10.3022 9.99984 9.93555 9.62484 9.93555 9.1665C9.93555 8.70817 10.3105 8.33317 10.7689 8.33317C11.2272 8.33317 11.6022 8.70817 11.6022 9.1665C11.6022 9.62484 11.2355 9.99984 10.7689 9.99984ZM14.1022 9.99984C13.6355 9.99984 13.2689 9.62484 13.2689 9.1665C13.2689 8.70817 13.6439 8.33317 14.1022 8.33317C14.5605 8.33317 14.9355 8.70817 14.9355 9.1665C14.9355 9.62484 14.5689 9.99984 14.1022 9.99984Z" fill="#1E1E1E"/>
</svg>
