<svg width="37" height="36" viewBox="0 0 37 36" fill="none" xmlns="http://www.w3.org/2000/svg">
<rect x="0.5" width="36" height="36" rx="10" fill="#1E1E1E"/>
<path d="M25.25 14V16.1C24.81 16.04 24.31 16.01 23.75 16V14C23.75 10.85 22.86 8.75 18.5 8.75C14.14 8.75 13.25 10.85 13.25 14V16C12.69 16.01 12.19 16.04 11.75 16.1V14C11.75 11.1 12.45 7.25 18.5 7.25C24.55 7.25 25.25 11.1 25.25 14Z" fill="white"/>
<path d="M25.25 16.1C24.81 16.04 24.31 16.01 23.75 16H13.25C12.69 16.01 12.19 16.04 11.75 16.1C9.2 16.41 8.5 17.66 8.5 21V23C8.5 27 9.5 28 13.5 28H23.5C27.5 28 28.5 27 28.5 23V21C28.5 17.66 27.8 16.41 25.25 16.1ZM15.21 22.71C15.02 22.89 14.76 23 14.5 23C14.37 23 14.24 22.97 14.12 22.92C13.99 22.87 13.89 22.8 13.79 22.71C13.61 22.52 13.5 22.26 13.5 22C13.5 21.87 13.53 21.74 13.58 21.62C13.63 21.5 13.7 21.39 13.79 21.29C13.89 21.2 13.99 21.13 14.12 21.08C14.49 20.92 14.93 21.01 15.21 21.29C15.3 21.39 15.37 21.5 15.42 21.62C15.47 21.74 15.5 21.87 15.5 22C15.5 22.26 15.39 22.52 15.21 22.71ZM19.42 22.38C19.37 22.5 19.3 22.61 19.21 22.71C19.02 22.89 18.76 23 18.5 23C18.23 23 17.98 22.89 17.79 22.71C17.7 22.61 17.63 22.5 17.58 22.38C17.53 22.26 17.5 22.13 17.5 22C17.5 21.73 17.61 21.48 17.79 21.29C18.16 20.92 18.83 20.92 19.21 21.29C19.39 21.48 19.5 21.73 19.5 22C19.5 22.13 19.47 22.26 19.42 22.38ZM23.21 22.71C23.02 22.89 22.76 23 22.5 23C22.24 23 21.98 22.89 21.79 22.71C21.61 22.52 21.5 22.27 21.5 22C21.5 21.73 21.61 21.48 21.79 21.29C22.17 20.92 22.84 20.92 23.21 21.29C23.25 21.34 23.29 21.39 23.33 21.45C23.37 21.5 23.4 21.56 23.42 21.62C23.45 21.68 23.47 21.74 23.48 21.8C23.49 21.87 23.5 21.94 23.5 22C23.5 22.26 23.39 22.52 23.21 22.71Z" fill="white"/>
</svg>
