<svg width="20" height="20" viewBox="0 0 20 20" fill="none" xmlns="http://www.w3.org/2000/svg">
<path d="M14.6084 6.47435C14.55 6.46602 14.4917 6.46602 14.4334 6.47435C13.1417 6.43268 12.1167 5.37435 12.1167 4.07435C12.1167 2.74935 13.1917 1.66602 14.525 1.66602C15.85 1.66602 16.9334 2.74102 16.9334 4.07435C16.925 5.37435 15.9 6.43268 14.6084 6.47435Z" fill="#1E1E1E"/>
<path d="M17.3252 12.2503C16.3918 12.8753 15.0835 13.1087 13.8752 12.9503C14.1918 12.267 14.3585 11.5087 14.3668 10.7087C14.3668 9.87534 14.1835 9.08367 13.8335 8.392C15.0668 8.22534 16.3752 8.45867 17.3168 9.08367C18.6335 9.95034 18.6335 11.3753 17.3252 12.2503Z" fill="#1E1E1E"/>
<path d="M5.36647 6.47435C5.4248 6.46602 5.48314 6.46602 5.54147 6.47435C6.83314 6.43268 7.85814 5.37435 7.85814 4.07435C7.85814 2.74102 6.78314 1.66602 5.4498 1.66602C4.1248 1.66602 3.0498 2.74102 3.0498 4.07435C3.0498 5.37435 4.0748 6.43268 5.36647 6.47435Z" fill="#1E1E1E"/>
<path d="M5.45843 10.7088C5.45843 11.5172 5.63343 12.2838 5.9501 12.9755C4.7751 13.1005 3.5501 12.8505 2.6501 12.2588C1.33343 11.3838 1.33343 9.95883 2.6501 9.08383C3.54176 8.48383 4.8001 8.24216 5.98343 8.37549C5.64176 9.07549 5.45843 9.86716 5.45843 10.7088Z" fill="#1E1E1E"/>
<path d="M10.1 13.225C10.0333 13.2167 9.95833 13.2167 9.88333 13.225C8.35 13.175 7.125 11.9167 7.125 10.3667C7.13333 8.78333 8.40833 7.5 10 7.5C11.5833 7.5 12.8667 8.78333 12.8667 10.3667C12.8583 11.9167 11.6417 13.175 10.1 13.225Z" fill="#1E1E1E"/>
<path d="M7.3915 14.9492C6.13317 15.7909 6.13317 17.1742 7.3915 18.0076C8.82484 18.9659 11.1748 18.9659 12.6082 18.0076C13.8665 17.1659 13.8665 15.7826 12.6082 14.9492C11.1832 13.9909 8.83317 13.9909 7.3915 14.9492Z" fill="#1E1E1E"/>
</svg>
