<svg width="22" height="22" viewBox="0 0 22 22" fill="none" xmlns="http://www.w3.org/2000/svg">
<rect width="22" height="22" rx="4" fill="#F5F5F5"/>
<path d="M13.5654 12.2939L12.7291 12.7639C12.6287 12.8203 12.5126 12.8423 12.3985 12.8267C12.2844 12.8111 12.1785 12.7586 12.0971 12.6773L9.3056 9.89247C9.22419 9.8112 9.17164 9.70561 9.15597 9.59178C9.1403 9.47796 9.16237 9.36214 9.21881 9.26199L9.68999 8.42761C9.7748 8.27743 9.80801 8.10369 9.78453 7.93292C9.76106 7.76215 9.6822 7.60374 9.55999 7.48189L8.30644 6.23132C8.23297 6.15798 8.14574 6.09981 8.04972 6.06012C7.95371 6.02043 7.8508 6 7.74687 6C7.64294 6 7.54002 6.02043 7.44401 6.06012C7.348 6.09981 7.26076 6.15798 7.18729 6.23132L6.61811 6.79874C6.28528 7.13079 6.07327 7.56431 6.01579 8.03038C5.95832 8.49644 6.05868 8.9683 6.30093 9.37093L6.58652 9.84578C8.04495 12.2707 10.1035 14.2811 12.5647 15.6841L12.6211 15.7164C13.4618 16.1956 14.5006 16.056 15.1738 15.3848L15.7681 14.7918C15.8416 14.7185 15.9 14.6315 15.9397 14.5357C15.9795 14.4399 16 14.3373 16 14.2336C16 14.1299 15.9795 14.0272 15.9397 13.9314C15.9 13.8356 15.8416 13.7486 15.7681 13.6753L14.5138 12.4239C14.3917 12.3019 14.2328 12.2231 14.0616 12.1996C13.8903 12.1761 13.716 12.2092 13.5654 12.2939Z" fill="black"/>
</svg>
