<svg width="20" height="21" viewBox="0 0 20 21" fill="none" xmlns="http://www.w3.org/2000/svg">
<path d="M9.99984 2.16602C7.8165 2.16602 6.0415 3.94102 6.0415 6.12435C6.0415 8.26602 7.7165 9.99935 9.89984 10.0743C9.9665 10.066 10.0332 10.066 10.0832 10.0743C10.0998 10.0743 10.1082 10.0743 10.1248 10.0743C10.1332 10.0743 10.1332 10.0743 10.1415 10.0743C12.2748 9.99935 13.9498 8.26602 13.9582 6.12435C13.9582 3.94102 12.1832 2.16602 9.99984 2.16602Z" fill="#1E1E1E"/>
<path d="M14.2333 12.2914C11.9083 10.7414 8.11663 10.7414 5.77497 12.2914C4.71663 12.9997 4.1333 13.9581 4.1333 14.9831C4.1333 16.0081 4.71663 16.9581 5.76663 17.6581C6.9333 18.4414 8.46663 18.8331 9.99997 18.8331C11.5333 18.8331 13.0666 18.4414 14.2333 17.6581C15.2833 16.9497 15.8666 15.9997 15.8666 14.9664C15.8583 13.9414 15.2833 12.9914 14.2333 12.2914Z" fill="#1E1E1E"/>
</svg>
