<svg width="21" height="21" viewBox="0 0 21 21" fill="none" xmlns="http://www.w3.org/2000/svg">
<path d="M8.26888 2.16699C6.08555 2.16699 4.31055 3.94199 4.31055 6.12533C4.31055 8.26699 5.98555 10.0003 8.16888 10.0753C8.23555 10.067 8.30221 10.067 8.35221 10.0753C8.36888 10.0753 8.37721 10.0753 8.39388 10.0753C8.40221 10.0753 8.40221 10.0753 8.41055 10.0753C10.5439 10.0003 12.2189 8.26699 12.2272 6.12533C12.2272 3.94199 10.4522 2.16699 8.26888 2.16699Z" fill="#1E1E1E"/>
<path d="M12.5023 12.2914C10.1773 10.7414 6.38568 10.7414 4.04401 12.2914C2.98568 12.9997 2.40234 13.9581 2.40234 14.9831C2.40234 16.0081 2.98568 16.9581 4.03568 17.6581C5.20234 18.4414 6.73568 18.8331 8.26901 18.8331C9.80234 18.8331 11.3357 18.4414 12.5023 17.6581C13.5523 16.9497 14.1357 15.9997 14.1357 14.9664C14.1273 13.9414 13.5523 12.9914 12.5023 12.2914Z" fill="#1E1E1E"/>
<path d="M17.4273 6.61708C17.5607 8.23374 16.4107 9.65041 14.819 9.84208C14.8107 9.84208 14.8107 9.84208 14.8023 9.84208H14.7773C14.7273 9.84208 14.6773 9.84207 14.6357 9.85874C13.8273 9.90041 13.0857 9.64207 12.5273 9.16707C13.3857 8.40041 13.8773 7.25041 13.7773 6.00041C13.719 5.32541 13.4857 4.70874 13.1357 4.18374C13.4523 4.02541 13.819 3.92541 14.194 3.89208C15.8273 3.75041 17.2857 4.96708 17.4273 6.61708Z" fill="#1E1E1E"/>
<path d="M19.0939 14.3247C19.0272 15.133 18.5106 15.833 17.6439 16.308C16.8106 16.7663 15.7606 16.983 14.7189 16.958C15.3189 16.4163 15.6689 15.7413 15.7356 15.0247C15.8189 13.9913 15.3272 12.9997 14.3439 12.208C13.7856 11.7663 13.1356 11.4163 12.4272 11.158C14.2689 10.6247 16.5856 10.983 18.0106 12.133C18.7772 12.7497 19.1689 13.5247 19.0939 14.3247Z" fill="#1E1E1E"/>
</svg>
