<svg width="28" height="28" viewBox="0 0 28 28" fill="none" xmlns="http://www.w3.org/2000/svg">
<path d="M19.337 0.666504H8.16366C3.31033 0.666504 0.416992 3.55984 0.416992 8.41317V19.5732C0.416992 24.4398 3.31033 27.3332 8.16366 27.3332H19.3237C24.177 27.3332 27.0703 24.4398 27.0703 19.5865V8.41317C27.0837 3.55984 24.1903 0.666504 19.337 0.666504ZM20.177 16.9865L14.457 22.7065C14.2703 22.8932 14.017 22.9998 13.7503 22.9998C13.4837 22.9998 13.2303 22.8932 13.0437 22.7065L7.32366 16.9865C6.93699 16.5998 6.93699 15.9598 7.32366 15.5732C7.71033 15.1865 8.35033 15.1865 8.73699 15.5732L12.7503 19.5865V5.99984C12.7503 5.45317 13.2037 4.99984 13.7503 4.99984C14.297 4.99984 14.7503 5.45317 14.7503 5.99984V19.5865L18.7637 15.5732C19.1503 15.1865 19.7903 15.1865 20.177 15.5732C20.377 15.7732 20.4703 16.0265 20.4703 16.2798C20.4703 16.5332 20.3637 16.7998 20.177 16.9865Z" fill="#FF3A29"/>
</svg>
