<svg width="20" height="20" viewBox="0 0 20 20" fill="none" xmlns="http://www.w3.org/2000/svg">
<path d="M17.4252 9.26758V5.60924C17.4252 4.92591 16.9085 4.15091 16.2669 3.89258L11.6252 1.99258C10.5835 1.56758 9.40853 1.56758 8.36686 1.99258L3.7252 3.89258C3.09186 4.15091 2.5752 4.92591 2.5752 5.60924V9.26758C2.5752 13.3426 5.53353 17.1592 9.57519 18.2759C9.85019 18.3509 10.1502 18.3509 10.4252 18.2759C14.4669 17.1592 17.4252 13.3426 17.4252 9.26758ZM10.6252 10.7259V12.9176C10.6252 13.2592 10.3419 13.5426 10.0002 13.5426C9.65853 13.5426 9.3752 13.2592 9.3752 12.9176V10.7259C8.53353 10.4592 7.91686 9.67591 7.91686 8.75091C7.91686 7.60091 8.85019 6.66758 10.0002 6.66758C11.1502 6.66758 12.0835 7.60091 12.0835 8.75091C12.0835 9.68425 11.4669 10.4592 10.6252 10.7259Z" fill="#1E1E1E"/>
</svg>
