<svg width="37" height="36" viewBox="0 0 37 36" fill="none" xmlns="http://www.w3.org/2000/svg">
<rect x="0.5" width="36" height="36" rx="10" fill="#1E1E1E"/>
<path d="M22.6401 8.96004L13.6101 11.96C7.54012 13.99 7.54012 17.3 13.6101 19.32L16.2901 20.21L17.1801 22.89C19.2001 28.96 22.5201 28.96 24.5401 22.89L27.5501 13.87C28.8901 9.82004 26.6901 7.61004 22.6401 8.96004ZM22.9601 14.34L19.1601 18.16C19.0101 18.31 18.8201 18.38 18.6301 18.38C18.4401 18.38 18.2501 18.31 18.1001 18.16C17.8101 17.87 17.8101 17.39 18.1001 17.1L21.9001 13.28C22.1901 12.99 22.6701 12.99 22.9601 13.28C23.2501 13.57 23.2501 14.05 22.9601 14.34Z" fill="white"/>
</svg>
