<svg width="36" height="36" viewBox="0 0 36 36" fill="none" xmlns="http://www.w3.org/2000/svg">
<rect width="36" height="36" rx="10" fill="#1E1E1E"/>
<path d="M24.4704 22.83L24.8604 25.99C24.9604 26.82 24.0704 27.4 23.3604 26.97L19.9004 24.91C19.6604 24.77 19.6004 24.47 19.7304 24.23C20.2304 23.31 20.5004 22.27 20.5004 21.23C20.5004 17.57 17.3604 14.59 13.5004 14.59C12.7104 14.59 11.9404 14.71 11.2204 14.95C10.8504 15.07 10.4904 14.73 10.5804 14.35C11.4904 10.71 14.9904 8 19.1704 8C24.0504 8 28.0004 11.69 28.0004 16.24C28.0004 18.94 26.6104 21.33 24.4704 22.83Z" fill="white"/>
<path d="M19 21.23C19 22.42 18.56 23.52 17.82 24.39C16.83 25.59 15.26 26.36 13.5 26.36L10.89 27.91C10.45 28.18 9.89 27.81 9.95 27.3L10.2 25.33C8.86 24.4 8 22.91 8 21.23C8 19.47 8.94 17.92 10.38 17C11.27 16.42 12.34 16.09 13.5 16.09C16.54 16.09 19 18.39 19 21.23Z" fill="white"/>
</svg>
