<svg width="21" height="21" viewBox="0 0 21 21" fill="none" xmlns="http://www.w3.org/2000/svg">
<path d="M15.769 2.16699H5.76904C4.38571 2.16699 3.26904 3.27533 3.26904 4.64199V13.7337C3.26904 15.1003 4.38571 16.2087 5.76904 16.2087H6.40238C7.06904 16.2087 7.70238 16.467 8.16904 16.9337L9.59404 18.342C10.244 18.9837 11.3024 18.9837 11.9524 18.342L13.3774 16.9337C13.844 16.467 14.4857 16.2087 15.144 16.2087H15.769C17.1524 16.2087 18.269 15.1003 18.269 13.7337V4.64199C18.269 3.27533 17.1524 2.16699 15.769 2.16699ZM10.769 5.29199C11.844 5.29199 12.7107 6.15866 12.7107 7.23366C12.7107 8.30866 11.844 9.17533 10.769 9.17533C9.69404 9.17533 8.82738 8.30033 8.82738 7.23366C8.82738 6.15866 9.69404 5.29199 10.769 5.29199ZM13.0024 13.0503H8.53571C7.86071 13.0503 7.46904 12.3003 7.84404 11.742C8.41071 10.9003 9.51071 10.3337 10.769 10.3337C12.0274 10.3337 13.1274 10.9003 13.694 11.742C14.069 12.3003 13.669 13.0503 13.0024 13.0503Z" fill="#1E1E1E"/>
</svg>
