<svg width="22" height="22" viewBox="0 0 22 22" fill="none" xmlns="http://www.w3.org/2000/svg">
<rect width="22" height="22" rx="4" fill="#F5F5F5"/>
<g clip-path="url(#clip0_676_13868)">
<path d="M6.21357 10.9404C6.21334 11.7806 6.43459 12.601 6.85529 13.3241L6.17334 15.7948L8.72146 15.1318C9.42624 15.5125 10.2159 15.712 11.0183 15.712H11.0204C13.6695 15.712 15.8258 13.5732 15.827 10.9442C15.8275 9.67029 15.3279 8.47239 14.4204 7.57115C13.5129 6.66998 12.3061 6.17343 11.0203 6.17285C8.37092 6.17285 6.21471 8.31161 6.21361 10.9404" fill="url(#paint0_linear_676_13868)"/>
<path d="M6.0418 10.9386C6.04152 11.809 6.2707 12.6588 6.70641 13.4078L6 15.9669L8.63949 15.2802C9.36676 15.6737 10.1856 15.8811 11.0188 15.8814H11.0209C13.765 15.8814 15.9988 13.6656 16 10.9426C16.0005 9.62287 15.483 8.3819 14.543 7.44837C13.6029 6.51496 12.3529 6.00054 11.0209 6C8.27641 6 6.04293 8.2155 6.04184 10.9386H6.0418ZM7.61367 13.2788L7.51512 13.1235C7.10082 12.4699 6.88215 11.7145 6.88246 10.9389C6.88336 8.67554 8.73977 6.83411 11.0225 6.83411C12.128 6.83457 13.1669 7.26217 13.9483 8.03798C14.7296 8.81388 15.1596 9.84527 15.1593 10.9422C15.1583 13.2056 13.3019 15.0473 11.0209 15.0473H11.0193C10.2766 15.0469 9.5482 14.849 8.91297 14.475L8.7618 14.386L7.19547 14.7935L7.61367 13.2787V13.2788Z" fill="url(#paint1_linear_676_13868)"/>
<path d="M9.77627 8.87437C9.68307 8.66883 9.58498 8.66468 9.49635 8.66108C9.42377 8.65797 9.3408 8.65821 9.25791 8.65821C9.17494 8.65821 9.04014 8.68918 8.92619 8.81263C8.81213 8.93619 8.49072 9.2348 8.49072 9.84212C8.49072 10.4495 8.93654 11.0364 8.99869 11.1189C9.06092 11.2012 9.85936 12.4874 11.1239 12.9822C12.1748 13.3934 12.3887 13.3116 12.6168 13.291C12.8449 13.2704 13.3529 12.9924 13.4565 12.7042C13.5602 12.416 13.5602 12.1689 13.5291 12.1173C13.498 12.0658 13.4151 12.035 13.2906 11.9732C13.1662 11.9115 12.5546 11.6129 12.4405 11.5717C12.3265 11.5305 12.2435 11.51 12.1606 11.6336C12.0776 11.757 11.8394 12.035 11.7667 12.1173C11.6942 12.1998 11.6216 12.2101 11.4972 12.1483C11.3727 12.0864 10.9721 11.9562 10.4967 11.5357C10.1269 11.2085 9.87717 10.8044 9.80459 10.6808C9.73201 10.5574 9.79682 10.4905 9.8592 10.429C9.9151 10.3737 9.98365 10.2848 10.0459 10.2128C10.1079 10.1407 10.1287 10.0893 10.1701 10.0069C10.2117 9.92452 10.1909 9.85243 10.1598 9.79069C10.1287 9.72894 9.88689 9.11848 9.77627 8.87441" fill="white"/>
</g>
<defs>
<linearGradient id="paint0_linear_676_13868" x1="11.0002" y1="15.7948" x2="11.0002" y2="6.17285" gradientUnits="userSpaceOnUse">
<stop stop-color="#1FAF38"/>
<stop offset="1" stop-color="#60D669"/>
</linearGradient>
<linearGradient id="paint1_linear_676_13868" x1="11" y1="15.9669" x2="11" y2="6" gradientUnits="userSpaceOnUse">
<stop stop-color="#F9F9F9"/>
<stop offset="1" stop-color="white"/>
</linearGradient>
<clipPath id="clip0_676_13868">
<rect width="10" height="10" fill="white" transform="translate(6 6)"/>
</clipPath>
</defs>
</svg>
